<svg height="512pt" viewBox="-44 0 512 512" width="512pt" xmlns="http://www.w3.org/2000/svg"><path d="m382.476562 347.085938v-18.964844c0-10.285156-8.367187-18.65625-18.65625-18.65625h-163.992187c-10.289063 0-18.65625 8.371094-18.65625 18.65625v18.964844c0 10.289062 8.367187 18.65625 18.65625 18.65625h163.992187c10.289063 0 18.65625-8.367188 18.65625-18.65625zm-15-18.964844v18.964844c0 2.015624-1.640624 3.65625-3.65625 3.65625h-22.621093v-26.277344h22.621093c2.015626 0 3.65625 1.640625 3.65625 3.65625zm-41.277343 22.621094h-26.277344v-26.277344h26.277344zm-130.027344-3.65625v-18.964844c0-2.015625 1.640625-3.65625 3.65625-3.65625h85.09375v26.277344h-85.09375c-2.015625 0-3.65625-1.640626-3.65625-3.65625zm0 0"/><path d="m154.230469 338.066406v.511719c0 4.140625 3.359375 7.5 7.5 7.5 4.144531 0 7.5-3.359375 7.5-7.5v-.511719c0-4.140625-3.355469-7.5-7.5-7.5-4.140625 0-7.5 3.359375-7.5 7.5zm0 0"/><path d="m363.820312 226.292969c10.289063 0 18.65625-8.367188 18.65625-18.65625v-18.964844c0-10.285156-8.367187-18.65625-18.65625-18.65625h-163.992187c-10.289063 0-18.65625 8.371094-18.65625 18.65625v18.964844c0 10.289062 8.367187 18.65625 18.65625 18.65625zm-63.898437-15v-26.277344h26.277344v26.277344zm67.554687-22.621094v18.964844c0 2.015625-1.640624 3.65625-3.65625 3.65625h-22.621093v-26.277344h22.621093c2.015626 0 3.65625 1.640625 3.65625 3.65625zm-171.304687 18.964844v-18.964844c0-2.015625 1.640625-3.65625 3.65625-3.65625h85.09375v26.277344h-85.09375c-2.015625 0-3.65625-1.640625-3.65625-3.65625zm0 0"/><path d="m169.230469 198.410156v-.511718c0-4.140626-3.355469-7.5-7.5-7.5-4.140625 0-7.5 3.359374-7.5 7.5v.511718c0 4.140625 3.359375 7.5 7.5 7.5 4.144531 0 7.5-3.359375 7.5-7.5zm0 0"/><path d="m405.210938 119.867188c10.289062 0 18.65625-8.371094 18.65625-18.65625v-82.554688c0-10.289062-8.371094-18.65625-18.65625-18.65625h-223.945313c-4.144531 0-7.5 3.359375-7.5 7.5s3.355469 7.5 7.5 7.5h223.945313c2.015624 0 3.65625 1.640625 3.65625 3.65625v82.554688c0 2.015624-1.640626 3.65625-3.65625 3.65625h-386.554688c-2.015625 0-3.65625-1.640626-3.65625-3.65625v-82.554688c0-2.015625 1.640625-3.65625 3.65625-3.65625h34.894531v12.582031c0 4.140625 3.355469 7.5 7.5 7.5 4.140625 0 7.5-3.359375 7.5-7.5v-12.582031h16.234375v12.582031c0 4.140625 3.359375 7.5 7.5 7.5 4.144532 0 7.5-3.359375 7.5-7.5v-12.582031h16.238282v12.582031c0 4.140625 3.359374 7.5 7.5 7.5 4.140624 0 7.5-3.359375 7.5-7.5v-12.582031h17.582031c4.140625 0 7.5-3.359375 7.5-7.5s-3.359375-7.5-7.5-7.5h-129.949219c-10.285156 0-18.65625 8.367188-18.65625 18.65625v82.554688c0 10.285156 8.367188 18.65625 18.65625 18.65625h185.777344v19.582031h-185.777344c-10.289062 0-18.65625 8.371093-18.65625 18.65625v82.554687c0 10.289063 8.367188 18.65625 18.65625 18.65625h55.949219c4.140625 0 7.5-3.355468 7.5-7.5 0-4.140625-3.359375-7.5-7.5-7.5h-55.949219c-2.015625 0-3.65625-1.636718-3.65625-3.65625v-82.554687c0-2.015625 1.640625-3.65625 3.65625-3.65625h34.894531v12.582031c0 4.144531 3.355469 7.5 7.5 7.5 4.140625 0 7.5-3.355469 7.5-7.5v-12.582031h16.234375v12.582031c0 4.140625 3.359375 7.5 7.5 7.5 4.144532 0 7.5-3.359375 7.5-7.5v-12.582031h16.238282v12.582031c0 4.140625 3.359374 7.5 7.5 7.5 4.140624 0 7.5-3.359375 7.5-7.5v-12.582031h274.1875c2.015624 0 3.65625 1.640625 3.65625 3.65625v82.554687c0 2.015625-1.640626 3.65625-3.65625 3.65625h-297.945313c-4.144531 0-7.5 3.359375-7.5 7.5 0 4.144532 3.355469 7.5 7.5 7.5h97.167969v19.582032h-185.777344c-10.289062 0-18.65625 8.371093-18.65625 18.65625v82.554687c0 10.289063 8.367188 18.65625 18.65625 18.65625h185.777344v46.652344c-12.578125 2.867187-22.496094 12.785156-25.363282 25.363281h-171.570312c-4.140625 0-7.5 3.359375-7.5 7.5 0 4.144531 3.359375 7.5 7.5 7.5h171.566406c3.421875 14.992188 16.855469 26.21875 32.867188 26.21875 16.011718 0 29.445312-11.226562 32.867187-26.21875h171.566407c4.140624 0 7.5-3.355469 7.5-7.5 0-4.140625-3.359376-7.5-7.5-7.5h-171.566407c-2.871093-12.578125-12.789062-22.496094-25.367187-25.363281v-46.652344h104.308594c4.140624 0 7.5-3.359375 7.5-7.5s-3.359376-7.5-7.5-7.5h-305.085938c-2.015625 0-3.65625-1.640625-3.65625-3.65625v-82.554687c0-2.015626 1.640625-3.65625 3.65625-3.65625h34.894531v12.582031c0 4.140625 3.355469 7.5 7.5 7.5 4.140625 0 7.5-3.359375 7.5-7.5v-12.582031h16.234375v12.582031c0 4.140625 3.359375 7.5 7.5 7.5 4.144532 0 7.5-3.359375 7.5-7.5v-12.582031h16.238282v12.582031c0 4.140625 3.359374 7.5 7.5 7.5 4.140624 0 7.5-3.359375 7.5-7.5v-12.582031h274.1875c2.015624 0 3.65625 1.640624 3.65625 3.65625v82.554687c0 2.015625-1.640626 3.65625-3.65625 3.65625h-48.808594c-4.140625 0-7.5 3.359375-7.5 7.5s3.359375 7.5 7.5 7.5h48.808594c10.289062 0 18.65625-8.367187 18.65625-18.65625v-82.554687c0-10.285157-8.367188-18.65625-18.65625-18.65625h-185.777344v-19.582032h185.777344c10.289062 0 18.65625-8.367187 18.65625-18.65625v-82.554687c0-10.285157-8.367188-18.65625-18.65625-18.65625h-185.777344v-19.582031zm-174.558594 358.414062c0 10.320312-8.398438 18.71875-18.71875 18.71875-10.320313 0-18.714844-8.394531-18.714844-18.71875 0-10.320312 8.394531-18.714844 18.714844-18.714844 10.320312 0 18.71875 8.398438 18.71875 18.714844zm0 0"/><path d="m363.820312 86.84375c10.289063 0 18.65625-8.371094 18.65625-18.65625v-18.964844c0-10.289062-8.367187-18.65625-18.65625-18.65625h-163.992187c-10.289063 0-18.65625 8.367188-18.65625 18.65625v18.964844c0 10.285156 8.367187 18.65625 18.65625 18.65625zm-63.898437-15v-26.277344h26.277344v26.277344zm67.554687-22.621094v18.964844c0 2.015625-1.640624 3.65625-3.65625 3.65625h-22.621093v-26.277344h22.621093c2.015626 0 3.65625 1.640625 3.65625 3.65625zm-171.304687 18.964844v-18.964844c0-2.015625 1.640625-3.65625 3.65625-3.65625h85.09375v26.277344h-85.09375c-2.015625 0-3.65625-1.640625-3.65625-3.65625zm0 0"/><path d="m154.230469 58.960938c0 4.140624 3.359375 7.5 7.5 7.5 4.144531 0 7.5-3.359376 7.5-7.5v-.511719c0-4.140625-3.355469-7.5-7.5-7.5-4.140625 0-7.5 3.359375-7.5 7.5zm0 0"/></svg>