<svg version="1" xmlns="http://www.w3.org/2000/svg" width="2606.667" height="2606.667" viewBox="0 0 1955.000000 1955.000000"><path d="M1075.6 39.5c-2.7 21.7-4.7 39.8-4.3 40.1.5.6 58.9 8.4 59.4 8 0 0 .4-2.2.8-4.7.8-5.6 3.5-4.8-26.5-8.5-11.8-1.4-21.7-2.8-21.9-3-.5-.4 2.8-25.6 3.4-26.2.2-.3 10.2.8 22.1 2.2 11.8 1.5 21.7 2.6 21.9 2.4.2-.2.5-2.3.6-4.8l.4-4.5-12-1.6c-6.6-.9-16.5-2.2-22-2.9l-10.1-1.2 1.5-11.9c1.3-10.9 1.6-11.9 3.5-11.9 1.2 0 11.7 1.2 23.3 2.7 11.7 1.5 21.5 2.4 21.8 2.1.3-.3.7-2.5.8-4.9l.2-4.3-25.5-3.3c-14-1.7-27.1-3.2-29-3.3h-3.6l-4.8 39.5zM914 19.2c0 1.3.9 13.5 2 27.3 1.1 13.7 2 26 2 27.2 0 2.1.5 2.3 5 2.3h5v-4c0-4.5-2.7-41.4-3.6-49.8l-.5-5.2h-5c-4.4 0-4.9.2-4.9 2.2zM859.7 21.7c-1.5.4-1.8 1.1-1.4 3.6.3 1.8 1.4 14.6 2.4 28.5.9 13.9 2 25.6 2.3 26.1.3.4 7.6.2 16.3-.5 18.1-1.4 23.2-3.2 27.3-9.4 6.8-10.2 2.2-22.1-10-26-2.6-.9-7.6-1.1-15.2-.8l-11.2.5-.9-11.1-.8-11.1-3.5-.2c-1.9 0-4.3.1-5.3.4zM891.5 52c4.7 1.1 7.5 4.1 7.5 8.2 0 7-4.3 9.5-18 10.5l-9 .6v-2.9c0-1.6-.3-5.9-.6-9.6l-.7-6.7 6.9-.4c3.8-.1 7.6-.4 8.4-.5.8-.1 3.3.3 5.5.8zM816.3 26.9c-4.9 1.3-12 5.8-14.6 9.4-3.9 5.1-5 10-4.5 20.2.3 7.9.8 10.1 3.6 15.8 3.9 7.9 8.7 12.2 16.2 14.4 14.8 4.3 31.2-6.2 32.2-20.7l.3-4.4-4.5.3c-4.9.3-6 1.2-6 5.1-.1 9.4-13.6 15.4-22 9.7-8.6-5.7-12.7-23.9-7.7-33.7 2.7-5.4 7.3-8 14-8 4.2 0 5.4.5 8.1 3.2 1.8 1.8 3.5 3.9 3.7 4.7.4 1.2 1.3 1.1 5.2-.4l4.7-1.8-2.3-4c-3.5-6.4-9.2-9.8-16.8-10.3-3.5-.2-7.8.1-9.6.5zM1157.5 34.3c-1.8 5-9.5 41.7-9.5 44.8 0 13.6 18 22.5 31.2 15.5l4.5-2.4-.7 3.5c-.7 3.1-.6 3.5 1.8 4.4 6.2 2.4 6.1 2.7 12.9-26.6 3.4-14.9 6.3-27.5 6.3-28.2 0-1.1-5.7-3.3-8.6-3.3-.6 0-2.8 7.5-4.9 16.7-4.5 19.9-5.8 23.5-9.5 26.7-5.6 4.7-15.9 4.1-19.9-1.1-3-3.7-2.7-8.5 1.8-27.9 2.2-9.3 4.1-17.8 4.3-18.8.2-1.6-.6-2.2-4.5-3.2-3.6-.9-4.9-.9-5.2-.1zM759.5 39.6c-16.1 4-20.3 6.2-23.5 12.9-2.7 5.6-2.2 11 1.5 16.7 2.8 4.1 6.2 6.3 11.8 7.3l3.7.7-2.1 2.9c-2.4 3.4-10.2 22.9-9.4 23.7.3.3 2.9 0 5.9-.7l5.4-1.2 3.6-9.2c5.8-15 7.8-17.1 17.2-19.1l3.1-.7 2.3 10.7c1.3 5.8 2.8 10.8 3.4 11 .6.2 2.9-.1 5.2-.8l4.1-1.3-6.5-28.3c-7.7-33-4.4-29.8-25.7-24.6zm12.7 14c2.7 11.3 2.8 11-5.1 12.8-13.9 3.2-20.4 1.7-21.7-4.8-.8-4.5.2-7.3 3.3-9.3 2.6-1.7 18.9-6.3 20.8-5.9.6.2 1.8 3.4 2.7 7.2zM1217 64.2c-2.3 8.4-6 21.3-8 28.6l-3.8 13.2 4.4 1.1c2.4.6 4.6 1.2 5 1.3.4 0 2.8-7.3 5.4-16.4 5.1-17.8 7.7-24 11.2-26.4 2.8-2 8.8-2.1 11.4-.1 2.9 2.2 3.9 1.9 7-2.2l2.7-3.6-2.9-2.4c-6.1-4.9-14.2-4.9-18.3 0-2 2.5-3.2 2-2.1-.9 1.6-4 1.2-5.1-1.7-5.8-1.6-.4-3.5-.9-4.4-1.2-1.2-.3-2.4 2.6-5.9 14.8zM707.5 53.2c-1.6.6-3.5 1.4-4.1 1.9-.6.5-3.5 11.7-6.5 24.9s-5.7 24-6.1 24c-.3 0-3.6-9-7.3-20-3.7-11-6.8-20-6.9-20-.1 0-2.4.7-5 1.6-4 1.4-4.6 1.9-4 3.7.4 1.1 4.6 13.6 9.4 27.6 9.7 28.1 8.8 26.9 16.3 23.8l3.2-1.4 4.9-21.4c2.7-11.8 5.4-23 5.9-24.9.9-3.4 1.2-2.7 7.9 16.4 3.8 11 7.1 20.2 7.3 20.4.6.6 9.5-1.9 9.5-2.7 0-.3-4.2-12.7-9.3-27.6-6.2-18-9.7-27-10.7-27.2-.8-.1-2.8.3-4.5.9zM1263.5 66.9c-3.7 1.6-9.5 7.2-9.5 9 0 .8 6.4 4.1 8 4.1.4 0 2.2-1.4 3.8-3 3-2.9 4.6-3.4 10.7-3 4.2.2 11.3 3.8 13.2 6.6 1.5 2.3 1.5 10.6 0 12.1-.4.3-6.4-.4-13.4-1.6-16.1-2.7-19-2.6-24.4.2-7.6 4.1-11.2 14.3-7.5 21.5 5.3 10.1 21.7 14.7 34.7 9.7 1.2-.4 1.4.2 1.1 3-.4 3-.1 3.6 2.2 4.5 7.1 2.6 7.3 2.6 7.9-2.8.3-2.8 3.1-12.6 6.1-21.9 5.9-17.8 6.6-22.5 4.1-27.4-5-9.6-26.3-15.9-37-11zm11.6 32.6c5.7.9 10.8 1.7 11.2 1.8 1.6.5-4.9 11.3-8.2 13.4-6.1 4.1-20.1 1.9-23-3.5-3-5.7.8-13.2 6.7-13.2 1.6 0 7.5.7 13.3 1.5zM642.1 74.7l-6.4 2.6.7 24.6c.7 24.3.7 24.6-1.2 22.6-1-1.1-7.7-9-14.7-17.5-7-8.5-13.3-16.1-14-16.8-.9-1-2.5-.7-8.1 1.7-4.4 1.8-6.8 3.3-6.6 4.2.2.8 4.8 13 10.4 27.1 6.4 16.3 10.6 25.8 11.5 25.8.7 0 2.9-.7 4.8-1.4 3.1-1.3 3.4-1.8 2.6-3.8-.5-1.3-4.3-11-8.5-21.6-4.2-10.7-7.6-19.6-7.6-19.9 0-.3 26.8 31.5 31.6 37.6.2.2 2.3-.3 4.6-1.2l4.3-1.7-.3-12.7c-.1-7.1-.3-18.1-.5-24.5-.1-6.4.1-11.1.4-10.5.4.7 4.1 10.1 8.4 21 7.3 18.8 7.9 19.8 10.1 19.3 4.5-1.2 7.6-2.6 7.2-3.5-11.7-30-21.4-54.1-21.8-54-.3 0-3.4 1.2-6.9 2.6zM973.8 89c-9 5.7-13.2 14.6-14.3 30.6-.3 4.9-.8 10.8-1.1 13l-.5 4.2-6.6-12.7c-6.9-13.2-10.3-22-12.3-31.8l-1.2-5.8-4.8 5.2c-8.3 9-8.9 16.8-2.6 37.4 1.9 6.2 3.3 11.5 3.2 11.7-.2.1-5.7-5.1-12.4-11.5-9.2-9.1-13.1-13.7-16.7-20.1-2.6-4.5-5-8.2-5.4-8.2-.3 0-1.6 2.5-2.8 5.5-4.7 11.3-2.4 20.4 9.4 37.8 4 6 6.8 10.7 6.1 10.4-.7-.3-6-2.4-11.8-4.7-13.3-5.3-18.8-8.4-27.8-15.9-7.1-6.1-7.2-6.1-7.8-3.5-1 4 .3 12.2 2.7 16.8 3 5.9 8 10.7 20.1 19.3 6 4.2 10.7 7.7 10.5 7.8-.1.1-6.5-.2-14.3-.6-13.9-.7-20.4-1.9-31.8-5.9-3.3-1.1-6.1-2-6.2-2-.7 0 .9 6.7 2.6 10.5 3.7 8.7 11 13.3 27.6 17.5 6.5 1.7 12.6 3.3 13.4 3.6 1.4.5-4.3 2.5-21.9 7.5-4.1 1.2-12.5 2.6-18.7 3.3l-11.3 1.1 3.4 4.6c2.3 3.3 5.1 5.6 9.2 7.5 5.1 2.5 6.9 2.9 15.3 2.9 5.2 0 13.3-.4 18-.9l8.4-.8-11.6 9.1c-11.8 9.2-20.5 14.5-29.1 17.6-2.6 1-4.6 2.2-4.4 2.8.1.5 2.7 2.3 5.6 3.8 9.9 5.3 19.2 3.9 38.8-5.9l10.2-5.2-5.7 9.1c-8.3 13.2-16.1 22.8-23 28.4-3.3 2.8-6.1 5.3-6.1 5.6-.1.4 2.6 1.2 6 1.9 12.1 2.6 20.2-1.2 36.3-16.9 5.4-5.3 9.6-8.7 9.2-7.6-.4 1.1-1.9 6.9-3.3 13-2.6 11.5-7.9 24.1-13.2 31.9-1.7 2.4-3.1 4.6-3.1 4.9 0 1 13.4-1.5 16.7-3.2 6.1-3 12.1-10.4 16.5-19.9 2.1-4.8 5-11 6.3-13.7l2.4-5v5.7c.1 3.2.8 10.6 1.7 16.5 1.6 10.4 1.5 24.8-.3 32.7l-.6 2.9 5.3-2.9c11.3-6.1 15.6-15.4 16.8-36l.7-11.9 5.2 9c7.8 13.5 10.9 20.6 13.3 30.6l2.3 9.1 4.3-4.3c8.6-8.4 9.3-17.5 2.9-37.8-1.9-6.3-3.4-11.5-3.2-11.7.2-.2 5.7 4.9 12.3 11.4 7.5 7.4 13.2 13.9 15.3 17.7 1.9 3.3 4.2 7.3 5.2 8.9l1.7 2.9 2.2-4.3c3.1-6.2 3.7-14.4 1.4-21.6-1-3.2-4.9-10.4-8.9-16.3-9.7-14.5-9.2-13.5-5.8-11.8 1.5.8 7.1 3.2 12.3 5.2 10.9 4.3 18 8.6 26.3 15.7 3.2 2.8 6 4.8 6.3 4.5.3-.3.6-3.4.6-6.9.1-12.8-5.8-20.6-24.5-32.7-5.4-3.5-9.6-6.5-9.5-6.6.2-.1 6.8.2 14.6.7 14.4.8 22 2.2 32 5.9 2.9 1 5.5 1.9 5.9 1.9 1.1 0-.7-8.2-2.7-12-4-7.9-11.4-12-29.5-16.5-7.1-1.8-12.3-3.5-11.5-3.8 2.4-.9 15.9-4.8 23.5-6.9 3.9-1 12-2.1 18.2-2.5 10.7-.6 11.2-.7 10.2-2.5-2.6-4.9-8.3-9.8-13.7-11.9-5.2-2-6.9-2.1-20.2-1.5-8 .4-15.8.9-17.5 1.3-2.5.5-2-.1 3.5-4.3 3.6-2.7 9.3-7.3 12.8-10.1 3.4-2.7 11-7.2 16.7-9.9 5.8-2.7 10.5-5.2 10.5-5.6 0-.3-2.8-2-6.2-3.7-10.3-5.2-18-4-37 5.5-5.9 3-11 5.4-11.2 5.4-.3 0 2.7-5.1 6.6-11.3 5.2-8.1 10-14 17.5-21.4l10.2-10.2-3.7-1.1c-2-.5-6.2-1-9.3-1-8.9 0-16.2 4.3-28.6 16.7-9.3 9.3-12.5 12-10.8 9.3.3-.5 2.1-7.8 4-16.2 2.7-11.6 4.6-17.5 8-24.3 2.5-5 4.5-9.4 4.5-9.9 0-1.3-11.1.4-15.1 2.4-5.5 2.8-10.8 9.5-15.1 18.9-2.1 4.7-4.7 10.4-5.8 12.6l-1.9 4v-3.6c-.1-1.9-.8-8.2-1.7-14-1.6-10.1-1.5-30 .2-34.2.9-2.5-1.4-2.1-6.8 1.3zm.8 36.8c1.5 10.9 1.6 23.3.3 24.6-.3.3-3.1.2-6.3-.1l-5.8-.6.6-3c.3-1.7 1.1-9.6 1.7-17.6 1.1-15.7 2.8-24.5 5.6-28.8l1.8-2.7.2 7.9c.1 4.4 1 13.5 1.9 20.3zm-30-1c3.2 5.9 6.8 13.8 8 17.7l2.2 7-2.1.6c-1.2.3-3.8.9-5.7 1.2l-3.5.7-1.7-6.8c-1-3.7-3.4-11.9-5.4-18.2-3.6-11.5-4.8-22-3-24.9.7-1.1 1.6.3 3.2 5.3 1.3 3.7 4.9 11.5 8 17.4zm62-9.2c-1.3 3.2-3.8 12-5.4 19.4-1.7 7.5-4 16.1-5.2 19.3l-2.1 5.7-5.2-3c-2.9-1.7-5.1-3.6-5-4.3.2-1.5 9.2-22 13.4-30.4 2.7-5.5 10.4-14.2 11.5-13 .2.2-.7 3-2 6.3zm-101.4 5.9c2.5 3.3 8.6 9.9 13.7 14.5 8.5 7.8 17.2 17.4 17 18.9 0 .3-2.3 2.1-5.2 3.9-4.9 3.2-5.3 3.3-6.5 1.5-18.2-25.7-22.6-33.3-23.8-41.3-.8-5.2-.9-5.3 4.8 2.5zm131.6 16.3c-3 3.2-7.1 8.5-9.2 11.8-13.2 20.1-18.1 26.4-19.5 24.8-.5-.5-2.5-2.7-4.4-5l-3.7-4.1 11.8-11.6c13.6-13.5 19.7-18.4 24.9-20.3 5.9-2.1 5.9-1.8.1 4.4zM879.1 147c3.3 2.1 10.9 5.8 16.8 8 9.9 3.9 22.5 10.1 23.5 11.8.2.4-1.5 2.9-3.8 5.6l-4.3 4.9-5.5-4.5c-3.1-2.5-10-7.7-15.4-11.6-5.5-3.8-11.3-8.5-13-10.4-3.1-3.2-6-7.8-5-7.8.3 0 3.3 1.8 6.7 4zm95.4 5.5c19.6 5 35.8 21.3 41 41.1 1.9 7.4 1.9 20.3 0 27.9-2.3 9.1-8.1 19.8-14.6 26.9-4.7 5.1-7.8 7.3-15.2 11-13.4 6.6-22.9 7.9-36.2 5.1-19.4-4.1-35.7-19.1-42.2-39-10.1-31.2 7.7-64 39.7-73.1 6.3-1.7 20.4-1.7 27.5.1zm86.5 10.9c0 .2-3.3 2.5-7.2 5-4 2.5-10.9 7.5-15.3 11-6.9 5.7-21.2 14.5-21.9 13.4-.1-.1-1.1-2.7-2.3-5.7l-2.2-5.3 2.2-.6c1.2-.3 8.9-3.9 17.1-7.9 8.2-4.1 17.2-8 20-8.8 5-1.3 9.6-1.9 9.6-1.1zm-198 14.8c1.9.4 10.3 1.3 18.5 1.8 17.8 1.1 22.9 1.8 24.9 3.4 1.6 1.1 1.6 1.2-1.9 11.3-.3 1-1.2.9-3.8-.2-1.9-.8-9.9-3-17.8-5-15.6-3.9-24.3-7.6-26.8-11.4-1.5-2.3-1.5-2.3.9-1.6 1.4.5 4.1 1.2 6 1.7zm204.1 21.4l5.4 1.7-10 1.7c-5.5 1-13.8 3-18.5 4.5-7.3 2.4-20.9 5.4-24.7 5.5-.9 0-1.3-1.9-1.3-6.3v-6.2l8.8-.3c4.8-.2 11.4-.7 14.7-1.1 10.2-1.4 19.8-1.2 25.6.5zm-163.8 10.1l.5 6.3h-5.6c-3.2 0-9.7.5-14.7 1-12.5 1.5-24.6 1.5-29.1 0-4.4-1.5-3.3-2.4 4.2-3.4 2.7-.3 10.8-2.4 17.9-4.6 9.7-3.1 24.7-6.2 26.1-5.6.1.1.4 2.9.7 6.3zm136.7 17.4c15.2 3.9 21.6 6.6 25.4 10.8 2.3 2.5 2.3 2.5-5.1.6-3.2-.9-12.8-2-21.5-2.5-19.2-1.2-26.2-2.5-25.3-4.8.3-.9 1.3-3.7 2.1-6.3l1.6-4.7 3.6 1.5c2 .8 10.6 3.3 19.2 5.4zm-132.7 1.2c2.1 6.5 2.1 6.7.3 6.7-.8 0-7.9 3.3-15.8 7.4-15.2 7.8-22.8 10.6-28.7 10.6h-3.6l5.1-2.9c6.6-3.6 10.3-6.2 18.9-13.2 6-4.9 19.9-13.9 21.5-13.9.3 0 1.3 2.4 2.3 5.3zm120.6 24.2c5.7 3.7 12.4 8.6 14.8 10.8 4.1 3.8 8 9.4 7.1 10.3-.2.2-3.1-1.5-6.3-3.6-3.3-2.2-11.2-6-17.6-8.5-9.3-3.6-21.6-9.9-23.7-12-.2-.2 1.3-2.6 3.4-5.3l3.7-5.1 4.1 3.4c2.3 1.8 8.8 6.3 14.5 10zm-106.4-1.6c0 1.2-28.1 27.8-31.5 29.8-1.9 1.2-4.8 2.5-6.5 2.9-2.9.7-2.9.6 2.1-5.2 2.8-3.2 8.6-11.3 12.9-17.9 4.2-6.6 9.3-13.7 11.3-15.7l3.5-3.7 4.1 4.6c2.3 2.6 4.1 4.9 4.1 5.2zm84.8 17.7c11.1 16.5 14.2 22.2 15.2 28.4.8 4.9.8 4.9-5-2.5-2.2-2.8-9.9-10.9-17.2-18.1-7.3-7.1-13.3-13.5-13.3-14.2 0-1 10.1-8.4 10.6-7.8.1 0 4.4 6.5 9.7 14.2zm-72.7-9c4.9 2.9 5 3.1 2.9 6.2-.9 1.2-3.9 7.5-6.6 13.9-6.4 15-8.8 19.1-13.9 23.7-3.9 3.5-6.6 4.3-4.3 1.4 2.2-2.9 6.4-15.1 9.2-26.4 2.8-11.6 6.3-21.4 7.6-21.4.4 0 2.6 1.2 5.1 2.6zm45.8 8.2c.3 2.1 2.4 9.6 4.7 16.6 5.1 16 6.2 22.7 4.8 28.1l-1.1 4-1.7-5.5c-1.9-6-6.5-15.4-11.6-24-3.8-6.3-9-18.8-8.2-19.6.4-.5 8.6-2.7 11.8-3.3.4-.1.9 1.6 1.3 3.7zm-20.9 1c-.3.8-1 8.5-1.6 17.1-1.1 16.5-2.9 25.9-5.7 30.1-1.7 2.4-1.7 2.2-2.3-9-.4-6.3-1.2-14.4-1.8-18-1.1-6.8-1.5-19.8-.6-22.2.5-1.2 1.7-1.3 6.6-.5 4.7.8 5.9 1.3 5.4 2.5zM1323.6 90.3c-4.7 2.9-7.5 7.8-7.6 13.2 0 5.2 2.4 9.1 9.6 15.1 12.3 10.4 14.4 12.6 14.4 15.1 0 3.7-1.6 6-5.1 7.2-8.9 3.1-22-6.8-20.4-15.5.5-3 .3-3.2-4-4.4-2.5-.7-4.8-1-5.1-.8-1.2 1.3-1.5 7.7-.4 11.6 1.6 6.2 6.8 11.3 15 15.1 6.3 2.9 7.9 3.3 13.9 2.9 5.6-.3 7.5-.9 10.5-3.1 4.5-3.5 6.6-7.5 6.6-12.7 0-6.2-2-9.1-13.1-18.6-11-9.5-12.8-11.9-10.9-15.3 2.3-4.4 7.6-4.8 15.2-1 4.7 2.4 6.8 5.4 6.8 10 0 3.3.3 3.7 3.9 4.7 5.4 1.7 5.8 1.6 6.5-1.9 2.1-10.9-10.6-22.7-25.4-23.6-5.6-.4-7.1-.1-10.4 2zM1390.2 89.3c-1.3 1.7-4.2 7.4-4.2 8.4 0 .8 8 5.7 8.4 5.1.2-.2 1.4-2.4 2.8-5 2.8-5.1 2.8-5.3-2.8-8.1-2.5-1.3-3.4-1.4-4.2-.4zM1367.1 134.1c-10.7 20.8-13.1 26.3-12 27 2.1 1.4 6.7 3.9 7.3 3.9.6 0 26.6-50.8 26.6-52 0-.8-7-5-8.2-5-.2 0-6.4 11.7-13.7 26.1zM549.9 114.3c-14.4 7.4-18.7 21.9-11.1 38.1 9.5 20.2 28 25.4 44.9 12.7 6.1-4.7 9.6-11.3 9.7-18.6 0-2.9-.2-5.6-.5-5.9-.3-.3-2.6.1-5.1 1-4.5 1.5-4.6 1.6-5 6.5-.9 9-6.8 14.4-15.7 14.4-6.4 0-11-2.4-14.9-7.8l-2.1-3.1 19.4-9.9 19.4-10-2-3.9c-5.3-10.3-14.9-16.8-25.1-16.8-4.4 0-7 .7-11.9 3.3zm17.4 6.8c3 1.6 7.7 6 7.7 7.4 0 1.4-27.7 15.1-28.6 14.2-.4-.4-.9-3.1-1.2-6-.4-6 1.9-10.5 7.7-14.4 3.7-2.5 10.7-3.1 14.4-1.2zM1403.5 127.6c-1.6.8-4 2.5-5.3 3.7l-2.4 2.2 3.8 3.1 3.7 3.1 3.5-2.3c4.8-3.3 9.5-3.1 16 .6 7.1 4.1 9.2 8.3 7.1 14.3-1.8 5.3-3 5.3-17.5-.4-13.4-5.3-20-5.8-25.7-1.9-8.6 5.9-10.2 17.5-3.4 24.9 5.8 6.2 17.6 10.7 25.5 9.5 2.3-.3 4.2-.5 4.2-.3s-.4 1.9-.9 3.6c-.9 3.1-.7 3.3 3.4 5.8 2.4 1.4 4.6 2.5 4.8 2.5.2 0 .7-1.7 1.1-3.8.3-2 3.1-8.2 6.2-13.7 13.3-23.7 14.6-26.7 14.1-31.1-.6-5.3-3.5-9.5-9.5-13.6-10.4-7.1-22.1-9.7-28.7-6.2zm8.6 33.1c6 2.1 10.9 4.1 10.9 4.5 0 1.5-6.8 9.4-9 10.5-3.4 1.7-11.3 1.6-15.5-.1-8-3.4-11-11.3-6.3-16.3 3-3.3 7.2-3 19.9 1.4z"/><path d="M494.1 145.4c-9 5.2-16.8 9.9-17.2 10.3-.5.5 1.4 5.3 4.5 11.4 9.7 18.7 13.4 35.8 8.5 39.3-2.1 1.4-2.1 1.5 2.9 10.3 7.7 13.3 7.2 12.8 11 10.6 1.7-1 3.2-2.1 3.2-2.5 0-.4-1.6-3.4-3.5-6.7-1.9-3.2-3.5-6.4-3.5-6.9 0-1 38.9-23.7 39.4-23.1.2.2 2 3.3 4.1 6.9 2 3.6 3.8 6.6 4 6.8.1.2 1.9-.7 3.9-1.9l3.7-2.2-.6 2.9c-2 9.2-5.6 17.9-12.2 29.2-18.4 31.7-22.9 44-24.8 68.2-.8 10.5.6 17.2 4.5 22.2 3.5 4.3 3.7 7.1 1.4 20.3-3.9 22.7-16.1 46-32.5 62l-6.1 6 3.5-6.5c3.9-7.2 12.7-27.8 16.4-38.5 3.5-10 4.5-17.2 3.3-23.1-.6-2.7-1.5-8.1-2-11.9-2-16-7.6-25.2-27.3-45.3-8.3-8.3-15.3-15.2-15.7-15.2-.3 0-1.2 3.9-1.9 8.7-1.6 11.3-5.1 20-16.2 40.8-17.2 32.3-21.7 45.9-22.6 68.6-.6 15.5.2 19.7 5.1 24.1 3 2.8 3.1 3.1 3 11.2-.3 17.5-5.2 35.2-14.9 54.7-6.1 12-16.8 29.1-20.4 32.3l-2.1 1.9 1.9-4.4c1.1-2.4 6.6-16.6 12.2-31.4 8.8-23.5 10.2-28 10.7-34.7.3-5.4 0-9.1-1.1-12.5-.9-2.6-2-8.1-2.6-12.1-1.4-11.1-4.7-16.7-17.8-30.5-11.2-11.8-22-21.9-25.6-23.8-2.1-1.2-2.1-1.1-3.5 9.1-1.5 10.5-4 17.4-14.8 41.7-16.1 36.2-18.6 46.3-18.8 74.3 0 10.2.2 19.7.7 21.3.4 1.5 2.4 4.6 4.5 6.9l3.7 4.1-.1 15.6c-.1 23.5-5 44.9-16.1 71-4.1 9.7-12 25.1-12.8 25.1-.2 0 .8-3.9 2.1-8.8 4.2-15.2 11.6-53.4 12.1-62.7.4-7.5.2-10-1.6-15-1.2-3.3-2.8-9.4-3.6-13.5-1.7-9-7.6-21.3-13.8-28.8-4.9-5.9-15.5-14.2-28.2-22l-8.2-5-.6 10.4c-.8 12.7-3.1 23.3-9.2 42.9-7.3 23-9.4 31-11.5 43.3-3.2 18.5-2.5 46.8 1.6 61.2 1.2 4.1 2.7 6.5 6 9.6 3.6 3.4 4.6 5.1 5.8 10.5 2.4 10.4 3.9 32.2 3.2 46.9-.9 19.7-6 52.4-9.5 61-1.5 3.8-1.3-12.4.4-42.5.9-14.3 1.3-28.9.9-32.5-.8-7.9-3.5-16.1-6.7-20.4-1.5-2-2.7-5.2-3.1-8.9-1.1-8.9-6.6-18.7-15.2-27.2-7.2-7.1-12.7-10.8-29.7-20l-8.8-4.7.7 8.3c.7 9.6-.5 22.3-4.6 48.9-6.7 42.4-6.1 63.5 3 97.8 3.7 13.8 7.1 20.7 12 24 4 2.6 6.1 6.3 10.2 17.6 8.7 23.7 13.7 57.5 13.8 92.1.1 24.5-.9 26.4-4.3 8.4-1.5-7.9-4.3-25-6.2-37.9-4.9-32.7-6.9-39.4-14.6-49.6-2.1-2.7-4.6-6.8-5.5-8.9-4.8-11.6-17.1-25.6-28.9-33-8-5-32.4-16.9-33.2-16.2-.2.3.7 5.6 2.1 11.9 2.7 12.3 4 25.7 5.6 58.8.6 11.8 1.7 26.1 2.5 31.7 3.2 20.9 11.5 45.6 21.8 64.3 4.4 7.9 11.1 16 13.3 16 7.5 0 28.2 38.8 41.5 77.8 4.9 14.5 11.9 40.6 11.9 44.6 0 2.5-9.6-19.4-22.2-50.4-11.5-28.7-15.8-37-22.2-43.9-2.9-3.1-6.5-7.8-8-10.5-6.8-11.8-26.9-28.6-40.3-33.6-10.9-4.1-30.3-8.6-30.3-7.1 0 .5 1.3 3.8 2.8 7.3 4.7 10.3 8.8 23.9 14.6 47.8 6.3 25.7 8.9 34.8 13.9 47.5 6.7 17.4 14.9 32.3 26.4 47.7 11.5 15.5 17.6 21.4 25.9 25.4 5.8 2.7 8.5 4.9 14.1 11.1 16.6 18.5 32.6 41.3 46.5 66.3 9.8 17.6 16.6 31.2 14.5 29-.8-.8-16.6-22.6-30.9-42.6-15.3-21.3-21.5-28.5-29.1-34.1-2.9-2-8.6-7.1-12.8-11.3-8.2-8.3-18.9-15.5-29-19.6-7.6-3.2-30.6-10.2-35.8-11-3.4-.5-3.7-.3-5.8 3.5l-2.3 3.9 5.6 8.9c3 4.8 12 21.8 19.9 37.8 20.3 41.2 30 55.2 55.5 79.9 20.7 20 27.5 25 37.7 27.6 4.6 1.2 14.8 8.2 29.9 20.6 20.6 16.9 40.3 36.5 56.7 56.4 8.1 9.9 5.3 7.4-26.3-22.7-27.5-26.1-32.9-30.5-45-36.4-4.6-2.3-11.2-6.5-14.6-9.3-17.4-14.3-38.6-21.6-64.2-21.9l-10.4-.2-1.5 3.7-1.5 3.8 7.7 8.2c4.2 4.6 13.6 15.9 20.8 25.2 33.9 43.4 49.5 59 78.6 78.3 16.8 11.2 28.9 17.3 36.3 18.3 12.9 1.9 52.9 24.4 81 45.7 11.8 8.9 28.7 23.4 33.8 28.8l3.5 3.8-6.5-4.5c-30.4-21.2-63.1-42.7-70.5-46.4-4.9-2.4-12.4-5.3-16.6-6.3-4.2-1.1-11.3-3.8-15.8-6.1-19.3-9.6-38.5-14-62-14-15.8 0-16.2 0-17 2.2-2.5 6.9-2.5 6.9 7.3 14 5 3.7 14.4 11.6 21 17.5 41.2 37.4 53 46.1 81.6 60.3 30.6 15.2 43.5 20 54.2 20 10 0 39.5 10.8 65.9 24.1 14.2 7.2 37.3 21 40.9 24.5.8.7-12.9-5.9-30.5-14.8-34.8-17.6-43.2-21-56.2-23.3-4.7-.8-11.6-2.6-15.3-3.9-3.8-1.4-10.6-3.2-15.2-4.1-11.3-2.2-42.1-3.1-57.3-1.6-6.5.7-12 1.3-12.1 1.4-.1.1-.4 2.3-.8 4.8l-.7 4.7 11.8 6.2c6.4 3.3 23 13.6 36.7 22.8 13.8 9.2 30.3 19.5 36.6 22.9 29.6 15.9 69.4 28.2 87 26.8 8.6-.7 14.9.4 36.4 6.6 16.6 4.8 36.6 12.1 50.3 18.5 10.7 4.9 31.5 16.5 30.9 17.1-.2.3-2.3-.5-4.6-1.7-7.5-3.8-60.3-24.2-68-26.2-4.2-1.1-12.4-2.2-18.5-2.5-6-.2-14.6-1.3-19-2.4-12-3-28.9-3.6-41.6-1.4-5.7 1-16.7 2.8-24.4 3.9l-14 2.1-.3 5.1-.3 5.1 6.3 2.2c3.5 1.2 20.5 9.1 37.8 17.6 42.2 20.6 51.3 23.9 87.6 31.6 19 4 20.8 4.2 38.9 4.4 16.2.2 21.6.7 36.5 3.3 35.2 6.3 61.7 15.5 79.6 27.7 8.3 5.7 10.8 6.4 14.2 3.7 5-3.7 3.2-6.3-11.6-16.3-18.8-12.9-26.5-27.1-27.8-51.4l-.6-11 4-5.2c4.4-5.8 6.2-12.8 6.2-24.5 0-15.6-4.5-28.8-16.7-49.4-9.3-15.6-12.2-22.6-13-31-.7-7.8-1.1-7.9-12.2-2.3-21.8 10.9-39.1 29.4-39.1 41.9 0 2.7-.9 5.4-2.7 8.1-3.2 4.8-4.2 13.4-2.4 20.6 1.5 5.9 14.7 33 19.5 40.1l3.6 5.3-5.3-3.7c-11.9-8.5-21.4-19.8-27.7-32.9-5.2-10.7-7.1-18.6-7.3-30.7l-.1-10 3.2-2.6c5.2-4.4 6.5-8.9 6.4-23.2-.2-21-2.8-30-15.4-54.9-10.8-21-13.8-29.5-13.8-38.5 0-3.6-.1-6.6-.3-6.6-1.1 0-14.4 5.8-21.9 9.6-15.7 7.9-27.3 21.2-31 35.5-.9 3.8-2.2 7.7-2.7 8.8-2.6 4.8-3.2 11.6-1.7 18.8 1.6 7.9 13.4 36 19.6 46.7l4.1 7.1-7.6-7.5c-13-12.8-23.3-30.4-27.6-46.8-1.3-5.1-2.1-11.5-2.2-18.9l-.2-11.3 4.2-4c6.1-6 6.8-8.9 6.8-28.5-.1-15.4-.3-17.9-2.8-26.8-1.5-5.4-5.5-16.5-8.8-24.5-10.8-25.8-14-36.1-14.6-46.8-.3-5.2-.7-9.4-.9-9.4-1.2 0-19.1 8.2-24.4 11.2-16.8 9.4-29 24.9-29 36.9 0 1.5-1.2 5-2.6 7.8-5.3 10.2-4.5 17.5 4.8 46.1 5.3 16.4 8.9 24.7 14.5 33.8l1.6 2.7-2.1-2c-4.5-4.3-17.5-21.4-21.8-28.7-11.1-18.9-15.4-35-15.4-58.1v-14.8l3.6-3.7c2-2 4.2-4.8 4.9-6.2 2.5-4.8 4.7-18.5 5.2-32.5.6-17-.7-26.7-7.7-55.5-6.9-29-7.7-36.3-5.4-52.3l.6-3.8-6.6 2.5c-12.8 4.8-32.7 15.8-38.6 21.3-5.3 4.8-10.8 13.4-12.5 19.3-.4 1.4-2.6 6.3-4.8 11l-4.2 8.4.1 12.6c.1 10 .8 16.2 3.7 31 2 10.2 4.3 20.5 5.2 22.9 2.5 7.2 1 5.8-3.3-3.1-11.2-23.2-15.1-46.7-12.2-73.3 1.6-14.6 2.6-17.7 6.5-20.2 4.4-2.9 8.7-11.9 11.9-24.8 4.6-18.3 5.6-30.7 5.6-67.9 0-35.9.7-44 4.9-57.4 1.3-4.2 1.5-6.2.7-6.2-3.7 0-18.7 4.5-27.2 8.1-18.7 7.9-28.1 15.8-35 29.4-1.9 3.8-5.2 9.2-7.4 12-4.5 5.9-7.3 11.9-9.1 20.1-2.1 9-1.7 54.4.5 64.3.9 4.1 1.5 7.6 1.3 7.8-.2.1-2-5-4-11.5-10.2-32.6-11.2-59.4-3.2-87.2 5.6-19.5 7.1-22.8 11.4-24.9 5.5-2.9 10.5-8.9 15.4-18.8 10.2-20.3 15.4-36.8 23.3-74.2 7-33.2 11.2-45.9 19.4-59.3 1.7-2.6 3-5 3-5.3 0-.3-3.5-.5-7.7-.5-12.2 0-24.6 3.1-35.3 8.6-15.2 7.8-22.6 14.2-29 24.9-1.3 2.2-5.1 6.6-8.5 9.7-10.6 9.8-14.7 20.1-21.1 53.8-2.4 12.3-3.8 23-4.3 32l-.6 13.5-1.4-14.8c-2.9-31.5 2.5-60.9 16.4-88.2 9.5-18.8 12-22.2 18-24.2 8.8-2.9 21.3-16.7 32.9-36.6 3.2-5.4 10.5-19.6 16.3-31.5 25.9-53.7 30.5-61.7 44.2-77.3 2.8-3.2 5.1-6.1 5.1-6.5 0-1.2-22 .4-30.5 2.2-17.1 3.6-38.2 13.5-47.9 22.4-3.4 3.1-8.1 6.9-10.6 8.4-15.6 10-22.9 20.8-34.5 50.6-6.3 16.3-13.5 37.3-13.5 39.6 0 1-.2 1.5-.5 1.3-.9-1 3.5-33.3 5.6-40.1 6.1-20.5 17.7-42.4 31.7-59.5 11.4-13.8 17.3-19.3 20.9-19.3 7 0 21-9.5 34.7-23.5 8.9-9.1 24.4-27.4 38.1-45 6-7.7 14.5-18.5 19.1-24 8-9.8 24.6-26.6 31.3-31.7l3.4-2.5-1.5-4.4c-1.3-4-1.8-4.4-5.2-4.7-6.5-.6-29.6 2.6-41.8 5.7-11.5 2.9-18.6 6-39.3 16.9-12.1 6.3-16.7 9.7-25.1 18.4-15.5 15.9-40.8 54.1-48.5 73-1.2 3.2-2.4 5.6-2.6 5.4-.2-.1 2.4-7.4 5.7-16.2 13.5-35.4 32.9-61.6 64.5-86.9 10.6-8.5 16.2-11.5 21.7-11.5 15.2 0 47.8-22.1 91.8-62 21.1-19.1 32.7-28.1 46-35.8l8.5-4.8-.3-4c-.5-5-1.1-5.5-6.9-6.5-18.4-3-51.1 1.3-72.2 9.5-4.8 1.8-11.3 4.1-14.6 5-9.2 2.8-20.2 8.9-30.2 16.9-11.1 8.8-38.8 34.2-44.3 40.6l-4.1 4.6 2.9-5c5.5-9.6 8-13.1 15.9-22 17.1-19.2 37.3-34 67.3-49.1 10.8-5.5 12-5.8 21-6.5 20.9-1.6 48.1-14.5 101.1-47.9 20.3-12.8 48.3-28 51.6-28 1.4 0 1.9-7.6.5-9.6-1.1-1.8-23.2-5.2-37.7-5.9-14.2-.7-30.9.6-39.5 3-3 .8-8.6 2-12.5 2.5-11.7 1.7-18.5 3.8-29.2 9-10.6 5.2-34.3 20.6-51.8 33.6l-10 7.5 7.4-7.1c10.2-9.8 26-21.5 39-28.9 11.8-6.7 36.6-17.6 50.1-22.1 7.6-2.5 9.4-2.8 17.6-2.3 20.6 1.3 51.2-8.4 98.4-31.2 25.4-12.3 39.8-18.2 49.8-20.5l5.2-1.2v-10.3l-15.8-3.8c-25.7-6.2-30.5-6.4-72.2-3.9-13 .8-17 1.5-24.5 4-13.9 4.7-50.8 22-63.5 29.9l-5.5 3.4 4.5-4.1c10.6-9.6 32.4-22.3 49.9-29.1 4.2-1.6 16.8-5.5 28.1-8.6 21.9-6.1 19.7-5.8 46-5.3 15.5.3 42.2-4.4 66-11.7 4.7-1.4 17-5.7 27.4-9.4 10.5-3.8 24.4-8.3 31-9.9 6.6-1.7 12.1-3.2 12.3-3.3.2-.2.6-2.4.9-4.9l.6-4.6-6.5-2.1c-3.7-1.3-11.7-3.5-17.9-5.1-6.2-1.6-15.5-4.1-20.6-5.4-12.6-3.5-22.7-4.4-42.7-4.1-19.7.3-23.3 1.1-53.7 12.1-21.9 7.9-34.5 13.8-51 24.2-6.8 4.3-12.9 8.2-13.7 8.6-.7.5 1.7-2.7 5.3-7 3.7-4.4 9.3-11.7 12.5-16.4 6.5-9.4 20.9-35.8 24.7-45 3.1-7.6 3.2-16.6.4-22.9-1.1-2.4-2-6.3-2-8.7 0-6.1-3.1-14.4-9.2-24.4-6.1-10.1-11.2-16.5-22.7-28.3l-8.6-8.8-1.1 3.7-1 3.7-5.8-10.2c-5.9-10.4-6.1-10.6-10.6-8.7-1.1.5-4.6-4.7-13.9-20.9-6.8-11.8-12.6-21.5-13-21.5-.3 0-8 4.2-17 9.4zm23.5 21.4c5.7 9.7 10.2 17.7 10.1 17.8-.1.1-6.1 3.5-13.4 7.7l-13.1 7.5-1.2-6.4c-1.3-7.8-5.1-18.5-9.6-27.5l-3.3-6.6 9.7-5.5c5.3-3.1 9.9-5.4 10.2-5.2.2.3 5 8.4 10.6 18.2zm50.8 50.6c6.1 7.2 14.5 20.8 16.8 27.5 1.1 3 1.8 7.3 1.7 9.5-.2 2.6.6 5.8 1.9 8.6 4 8.3 3 12.1-9.4 35.2-9.3 17.3-14.3 25-24.1 37.1-8.9 11-27.4 31.9-27.8 31.5-.2-.2.7-3.5 2-7.3 4.7-14 7-35.7 4.4-40.8-.7-1.2-2.3-3.5-3.5-5-2.1-2.5-2.4-3.9-2.4-11.1 0-21.4 5.3-37.1 21.9-65 3.9-6.5 8.3-15 9.8-18.7 1.6-3.8 3.1-6.9 3.4-6.9.4 0 2.7 2.4 5.3 5.4zm-91.7 77.8c11.7 12.3 18.3 24.3 18.3 33.3 0 2.9.7 6.9 1.5 8.8 3.2 7.8 1.5 15.8-8.7 40.7-8.5 20.8-15.7 32.5-39.2 64-7.2 9.6-13.6 18.2-14.3 19-.7.8-.3-1.4.8-5 3.3-10.8 5-19.9 5.6-31.1.7-12.2-.4-16.9-5.1-21.2-2.5-2.4-3-3.8-3.4-8.8-.6-8 1.5-23.5 4.4-33.7 2.8-9.6 9.1-23.4 19.2-41.9 3.8-7 8.5-16.7 10.3-21.5 1.9-4.8 3.7-8.8 4-8.8.3 0 3.3 2.8 6.6 6.2zm229 23.2c3.4.7 12.3 3.1 19.8 5.2 12 3.4 13.3 4 10.8 4.7-1.5.5-13.4 4.6-26.3 9.2-43.1 15.2-80.7 22.4-96.6 18.4-3.4-.9-6.3-.9-12.2.1-7.6 1.2-38.6 9.4-47.1 12.4-2.4.9-4.6 1.4-4.8 1.2-.9-.9 33.1-22.7 44.3-28.3 12.9-6.6 43.4-18.1 57.9-21.9 7.9-2 11.3-2.3 28.5-2.3 12.5 0 21.7.4 25.7 1.3zm-304.5 88.5c1.3 2.7 2.4 7.5 2.8 12.1.4 4.1 1.5 9.3 2.4 11.5 1.4 2.9 1.7 5.3 1.2 9.2-1.1 9.4-20.7 59.6-32.7 83.8-11.1 22.4-27.4 52.6-26.5 49 4.2-16.7 6-47.2 3.3-56.6-1-3.3-2.8-6.6-4.7-8.4l-3-2.9v-16.2c0-28.3 2.7-38.8 19.4-75.6 4.1-9.2 8.8-20.6 10.3-25.3l2.7-8.5 11.3 11.7c6.3 6.5 12.3 13.7 13.5 16.2zM631.5 386c12.7 1.2 22.5 2.9 22.5 4 0 .4-2.1 1.5-4.7 2.5-2.7.9-15.9 7.1-29.4 13.6-48 23.1-78.5 32.9-98.1 31.4-6.7-.5-9.9-.3-14.5 1-5.8 1.7-35.6 13.7-43.6 17.6l-4.2 2 6.2-5.9c8.7-8.5 27.2-23.4 37.3-30.2 13.1-8.8 47.7-25.6 64.1-31.1 7.2-2.4 10.7-2.9 22-3.4 7.4-.2 15.7-.9 18.4-1.4 7.1-1.2 11.5-1.2 24-.1zm-149.9 35.6c1.3 1.8.7 2.5-6.3 8.4-11.5 9.7-12.3 10.1-8.2 4.5 1.9-2.8 5.2-7.4 7.3-10.3 4-5.5 5.1-5.9 7.2-2.6zm85.4 42.2l4.5.7-9.5 5.1c-5.2 2.7-15.8 9-23.5 13.9C483.4 518.4 451 534 433.6 534c-4.8 0-8.4.7-12.8 2.5-7.2 2.9-29 14.7-39.2 21.2-3.9 2.5-6.4 3.7-5.5 2.7 17.5-21.3 37.8-42.5 48.4-50.6 10.2-7.7 36.5-25.3 45.9-30.7 10.9-6.2 18.1-8.6 30.9-10.5 5.3-.8 10.2-1.8 10.8-2.2 4.4-2.7 42.3-4.5 54.9-2.6zm-276.6 34.7c12.3 9.2 19.4 20.5 22.1 34.8.8 4 2.4 9.9 3.6 13.2 2.7 7.6 2.3 11.5-3.7 41-6 29.8-11.7 49.9-28.2 101l-5.9 18-.5-21.5c-.9-31.6-3.6-44.3-10.8-50-4.3-3.4-5.4-6.6-7-21.5-2.8-25.4-.3-42 12-81.5 3.3-10.7 6.8-23.3 7.6-28 1.9-10 2.1-11 2.9-11 .4 0 3.9 2.5 7.9 5.5zm97.6 29c1 1.2.3 2.5-4 7.5-2.9 3.3-5.4 6-5.6 6-.2 0 1.3-3.4 3.3-7.5 2.1-4.1 4-7.5 4.4-7.5.4 0 1.2.7 1.9 1.5zm93 33.3c-9.7 6.6-23 17.5-43 35.2-33.2 29.4-51.2 43-68.9 52.2-6.1 3.2-9.4 4.2-15.3 4.8-5.2.5-8.7 1.5-11.9 3.3-5.5 3.2-20.9 15.5-31.2 24.9l-7.9 7.1 3.3-5.9c13.1-23.7 26.8-43.8 37.7-55.5 7.9-8.5 30.4-29.2 40.8-37.5 8.8-7.1 18.8-12.6 26.7-14.9 3.4-.9 10.1-3.3 14.8-5.1 14.1-5.5 37.2-10.2 50.9-10.2 6.4-.1 6.5-.1 4 1.6zm-266.8 64.9c8.4 5 18.8 15.4 22.1 22.3 1.5 3 3 8.2 3.3 11.5.5 3.8 1.5 7.1 2.9 9 5.7 7.6 6 8.9 6 26 0 19.7-2.1 69.1-4 96-2 27.1-4.8 58.5-5.2 58.1-.2-.2-1.5-7-2.9-15.2-4.9-28.1-13.5-51.1-21.4-57.5-5.6-4.5-6.4-6.4-11-24.2-7.4-29.5-7.8-50.8-1.6-90.6 1.9-12.3 3.8-26.1 4.2-30.7.4-4.6.8-8.4 1-8.4.1 0 3.1 1.7 6.6 3.7zm98.8 23.7c-.1 1.2-11 19.6-11 18.5 0-.6 5.5-19 6.5-21.8.4-1.1.9-1 2.5.4 1.1 1 2 2.3 2 2.9zm86.8 29.5c-5.2 5.4-13.5 14.9-18.4 21.1-37.8 48-48.9 61.1-60.6 71.1-10 8.6-15.3 11.8-21.1 12.5-3.5.5-6.2 1.7-9.6 4.4-5 4-23 24.8-27 31.2-2.3 3.8-3.4 4.9-2.6 2.5.2-.6 2.3-7.1 4.6-14.2 9-28.3 16.4-44.1 30.4-65 17-25.4 26.7-37.5 35.3-43.9 4.5-3.3 15.7-9.4 32.4-17.8 7.9-4 26.3-9.2 37.8-10.7 3.6-.5 6.9-.9 7.4-1 .5 0-3.4 4.3-8.6 9.8zm-236.3 99.9c11.5 6.7 20.4 16 26.1 27.5 2.5 5.1 6.3 11.4 8.4 14.1 5.6 7.1 7.6 14.7 12.6 46.6 2.4 15.7 5.3 33 6.4 38.5 4.1 20.8 14 86.7 14 92.7 0 1.2-2.2-2.9-4.9-9.2-2.6-6.3-8.1-18-12.1-26-11.6-23.2-16.7-30.2-24-33.5-4.5-2-6.9-5.4-13.5-18.6-8.7-17.1-13.8-32.5-17.1-51.3-1.4-8.2-2.6-23.6-4.4-58.1-.6-11-1.5-21.9-1.9-24.3-1-5.2-1.2-5.2 10.4 1.6zm95.6 8c1.4.6 1.2 1.9-1.8 10.2l-3.3 9.5.5-7c.3-3.9.5-8.5.5-10.3 0-3.2.9-3.7 4.1-2.4zm98.3 14.4c-.5.7-3 4.7-5.7 8.8-4.6 7.1-9.8 17.3-30.1 59.4-10.4 21.6-20.5 38.9-28.6 49-7 8.7-9.9 10.9-15.7 12.5-4.9 1.3-9.4 6-15.1 15.8-4.1 7-12.6 24.1-14.9 29.8-2.7 6.9 1.3-35.5 5.2-55.1 3.3-16.6 16.2-52.4 24.8-68.9 4.6-8.8 13.4-18.5 20.7-22.7 2.5-1.5 6.8-4.9 9.6-7.6 8.1-7.8 24.5-16.1 39.9-20.2 8.5-2.3 10.9-2.5 9.9-.8zM138.1 930.9c14.6 5 30.6 18.3 38.6 31.9 1.4 2.4 4.7 6.5 7.2 9.1 6.3 6.4 9.1 12 22.4 44.6 6.3 15.4 15.7 38.1 21 50.5 10.4 24.9 30.1 76 29.4 76.6-.2.2-3.4-4.2-7.2-9.8-11-16.6-21.3-29.5-32.5-40.9-8.5-8.6-11.4-11-15-12-5.5-1.6-10-6-20.1-19.4-12.2-16.1-20.1-30.1-26.6-47-5-12.7-7.6-21.6-14.3-49-3.2-13.2-6.8-26.7-7.9-29.9-1.2-3.3-2.1-6.1-2.1-6.3 0-.6 1.8-.3 7.1 1.6zm100.1 15l-1.7 14.3-2-13.6-2.1-13.7 2.2.5c1.3.4 2.7 0 3.4-.9.7-.9 1.4-1.4 1.6-1.2.2.1-.5 6.7-1.4 14.6zm99.3-8.2c-5.9 14.5-8.6 24-14.5 52.3-9.5 45.8-22.4 78.6-33.1 84-7.1 3.7-9.9 8.7-16 29.4-1.6 5.6-3.5 13.5-4.2 17.6l-1.3 7.5-2.2-12.6c-4.4-24.8-5.5-36.1-5.5-54.4 0-16.7.2-19.3 3.6-36.6 6.8-34.3 10.3-43.2 20.1-50.8 3.7-2.9 6.7-6.3 8.2-9.3 1.3-2.6 3.8-6.4 5.6-8.3 6.2-7.1 22.3-16.4 32.6-18.9 7.5-1.9 7.5-1.9 6.7.1zm16.1 143.9c-1.8 6.9-2.5 26.1-2 47.4.9 32.2-1.2 53.2-7.3 72.4-2.2 6.9-3.2 8.7-7.4 12.5-3.8 3.4-5.3 5.7-6.4 9.5-2.1 7.4-3.8 22.4-3.9 35.3l-.1 11.2-1.7-3.4c-4.1-7.8-14.9-35-19.1-48-6.7-20.7-7.8-27.9-7.9-53.3-.2-28.9 1.5-36.6 10.3-46.6 2.1-2.4 3.9-4.9 3.9-5.5 0-2.6 5.5-11.7 9.8-16.3 2.5-2.7 6.6-6.1 9-7.5 4.6-2.7 21-10.2 22.6-10.2.4-.1.5 1.1.2 2.5zM252.4 1096l.6 6.5-3.8-9.5-3.8-9.5 2.6-.5c2.8-.6 3.2.5 4.4 13zm-99.1-1.9c18.5 5.7 31.1 13 40.4 23.5 3.1 3.5 7.5 7.5 9.7 8.8 8.9 5.2 22.6 22.5 61 77.4 7.4 10.4 50.1 75 53.1 80.2.5.8-4.1-3.2-10.1-9-13.6-13.1-34.2-30.3-44.9-37.6-4.5-3.1-10.9-6.3-14.4-7.5-7.7-2.3-11-4.7-26.9-19.2-19.5-17.7-31.8-32.4-43.3-51.7-8-13.6-34.9-68.2-33.2-67.6.7.3 4.6 1.5 8.6 2.7zm246.8 126.3c.6 4.3 2.8 15.1 5 24 8.1 32.8 9.7 45.1 7.9 62.9-1.6 16.3-3 21-7.9 25.7-2.6 2.5-4.3 5.2-4.8 7.7-1 4.7-1 24.1-.1 34.8.9 9.5 1.4 10-10.5-9-9.5-15.3-19.3-33.8-23.8-45-3.3-8.4-8.9-33.9-10.9-50.6-1.4-11.4-.4-18.3 3.8-25 1.5-2.4 3.4-6.4 4.1-8.9 3.5-11.9 8.8-17.6 24.2-25.8l11.4-6.1.2 3.7c.2 2 .8 7.2 1.4 11.6zm-98.5 19.4c-.2.1-2.4-2.9-5-6.8-4.6-6.9-4.6-7.1-2.9-9.6l1.7-2.6 3.2 9.3c1.8 5.2 3.1 9.5 3 9.7zm-102.9-1.3c16.5 2.7 31.1 9.3 42.3 19.2 3 2.7 9.3 6.7 14 9 4.7 2.2 11.3 6.1 14.6 8.6 7.3 5.3 64.9 60.2 84.9 80.8 16.8 17.3 34.9 36.9 34.2 36.9-.3 0-6.4-3.8-13.4-8.3-15.6-10.2-39.5-23.7-48.3-27.3-3.5-1.4-9.1-3-12.3-3.5-13.5-2.2-44.4-22.4-66.8-43.7-11.7-11.2-21-21.8-38.4-44.2-7-9.1-15.2-19.3-18.2-22.8-6.2-7.1-6.4-6.9 7.4-4.7zM479.9 1341c2.1 6.3 6.6 18.2 10.1 26.4 3.4 8.2 7.3 19.2 8.7 24.5 2.9 11.4 4 28.1 2.4 36.5-.9 5-1.7 6.5-5.5 10-3.7 3.4-4.5 4.9-5.1 9-1.2 7.5.2 26.3 2.3 33.8 1.1 3.8 1.8 6.8 1.7 6.8-.7 0-18.7-22.3-25.2-31-14.9-20.2-19.1-28.4-26.6-51.5-8.5-25.8-8.9-31.1-3.2-39.6 1.8-2.9 2.5-5.2 2.5-8.9 0-2.8.7-6.7 1.5-8.7 2.2-5.3 13-15.2 22.6-20.6l8.4-4.7.8 3.2c.4 1.8 2.5 8.5 4.6 14.8zm-107.2 17.5c1.5 3 1.5 3-2.2-.6-2.4-2.4-3.5-4.1-3-4.9.9-1.5 2.5.3 5.2 5.5zm-82.7 20.4c11.9 3.1 23.5 7.5 30.5 11.5 2.2 1.3 7.8 3.3 12.5 4.5 15 3.8 17.6 5.3 66.9 39 22.2 15.2 37.7 26.6 57.6 42.7 23.1 18.6 22.7 18.2 11.1 12.9-27.8-12.7-50.1-20.2-63.8-21.4-10.9-.9-17.3-3.4-45.3-17.1-19.3-9.5-33.9-18.5-47.6-29.6-7.2-5.8-35.6-31-48.8-43.2l-3.6-3.4 9.5.6c5.7.3 14.2 1.7 21 3.5zm274 49.3c1.2 4 6.4 15.6 11.6 25.8 13.4 26.5 15.9 35.7 15.2 55l-.3 9.8-3.7 3.6c-2.2 2.2-4.2 5.3-4.9 7.9-1.6 5.7-.5 23.3 2 32.2 1.1 3.8 1.8 7.1 1.7 7.3-.7.6-23.4-23.8-30.5-32.8-10.6-13.3-13.4-17.9-20.7-34.5-11.3-25.8-12.3-30.8-7.9-40.3 1.4-3 2.5-6.6 2.5-8.1 0-8 12.3-22.3 25-29.1 4.1-2.2 7.6-4 7.7-4 0 0 1.1 3.2 2.3 7.2zm-109.4 26.1c1.2 1.7 4.1 5.9 6.5 9.2l4.4 6-6.3-5c-3.5-2.8-7.2-5.7-8.3-6.6-1.8-1.3-1.9-1.8-.8-4.2.7-1.5 1.5-2.7 1.8-2.7.3 0 1.6 1.5 2.7 3.3zm-61.9 37.3c4.5.8 11.7 2.7 16 4.2 4.3 1.6 10.4 3.2 13.5 3.5 3.2.4 9.4 1.9 13.9 3.3 8.8 2.8 64.4 30.6 82.4 41.2 12.8 7.6 48.9 31.2 48.3 31.7-.1.2-6.4-1.7-13.8-4.2s-20.5-6.3-29-8.5c-13.9-3.6-16.7-4-27.2-3.9-10.3.1-13.4-.3-25-3.3-33.2-8.6-54.4-18.8-93.8-45.1-12.4-8.3-24.5-16.2-26.8-17.5-4.2-2.3-4.3-2.5-2-3.2 3.5-1.1 34.1.2 43.5 1.8zm276.1 39.1c12.9 21.7 15.5 29.5 15.5 46.4-.1 11.3-.6 12.9-5.6 19.2-2 2.5-3.1 5.3-3.6 9.2-1 6.9.2 22.2 2.3 30.1.8 3.2 1.4 6 1.2 6.2-.9.8-31.3-29.9-36.8-37.2-7.6-10.1-22.8-40.3-23.5-46.8-.5-4.6 1.8-11 5-13.6 1-.9 1.3-2.5 1-5.6-.4-3.3 0-5.5 1.7-8.9 2.9-5.7 12.3-15.1 21.9-21.6l7.4-5.1 3.1 7.8c1.7 4.2 6.4 13.2 10.4 19.9zm-120.1 15c1.3 1.6 3.8 4.5 5.5 6.7l3.2 3.9-7.2-4.8c-4-2.6-7.2-5.1-7.2-5.4 0-.8 2.2-3.1 2.9-3.1.3 0 1.6 1.2 2.8 2.7zm-46.7 43.6c4.9 1.3 11.3 2.1 18.5 2.3 6.8.2 13.9 1.1 18.7 2.3 9.2 2.4 58.7 21.7 74.3 29 12.1 5.7 46.7 24.3 46.1 24.8-.2.2-4.1-.5-8.7-1.6s-16-3.2-25.4-4.6c-14.4-2.3-18.9-2.6-29.5-2.1-12 .5-13.4.4-34.8-4-24.4-4.9-33.8-7.4-49.4-13.1-11.6-4.3-65.1-30.7-64.1-31.7.3-.3 2-.6 3.7-.6 1.7 0 4.8-.5 6.9-1.1 12-3.3 30.9-3.1 43.7.4zm143.6 35.6l4.9 5.5-7-3.9c-3.8-2.1-7.1-3.9-7.2-4-.2-.1.3-1.3 1-2.8.9-2 1.5-2.3 2.3-1.4.6.7 3.3 3.6 6 6.6zM1481.5 187.7l-21.6 33.7 2.3 1.8c3.2 2.4 6.7 4.2 7.2 3.7.2-.2 9.3-14.4 20.3-31.4 11-17.1 20.7-32.2 21.7-33.7l1.7-2.6-3.8-2.6c-2.1-1.4-4.3-2.6-4.9-2.6-.7 0-10.9 15.2-22.9 33.7z"/><path d="M439.2 180.5c-2.9 1.3-7.8 4.8-10.9 7.7-8.4 7.9-10.9 14.9-8.2 22.7 1.3 3.6 1.6 3.7 6.4 1.4 3.5-1.7 3.5-1.8 2.9-6.4-.8-5.7 1.2-9.7 6.6-13.4 7.4-5.1 12.9-5.5 16.7-1.2 3.8 4.2 3.8 4.4-7.6 16.1-8.5 8.9-11.2 12.3-12.1 15.6-2.9 10.6 4.9 21 15.7 21 8.8 0 20.5-9.3 24-19.1l1.7-4.7 2.4 1.9c3.2 2.5 4 2.4 8.5-1l3.8-2.9-3-1.8c-2.8-1.7-7.4-7.4-21.5-26.7-3.1-4.3-7.1-8.7-8.9-9.7-4.3-2.7-10.1-2.5-16.5.5zm25.1 26.9c2.9 4.7 3.7 11.8 1.6 15.9-1.7 3.2-6 7.7-9.1 9.3-6.7 3.5-13.8-.1-13.8-7.1 0-3.1 1.1-4.8 8.8-13 4.8-5.1 8.9-9.4 9.2-9.4.3-.1 1.7 1.9 3.3 4.3zM1367.8 198.8c-12.1 12.6-25.3 29.5-29.4 37.7-2.6 5.2-3.7 9.2-4.4 15-.5 4.4-1.4 9.8-2 12-1.5 4.8-.7 12.7 1.9 19.4 4.4 11 17.1 36.1 21.8 43.2 2.8 4.2 8.4 11.5 12.3 16.4 4 4.8 6.6 8.4 5.9 7.9-.8-.4-6.1-3.9-11.9-7.7-16.1-10.5-33.9-18.8-57.5-26.6-27.3-9.1-34.3-10.3-56.8-9.7-10.6.3-20.2 1.1-24.3 2.1-8.5 1.9-33 8.6-44.3 12.1l-8.3 2.6.5 4.5c.2 2.4.7 4.6 1 4.9.2.3 4 1.3 8.3 2.4 7.9 1.9 17.7 5.2 45.4 15 18.3 6.5 36.2 11.1 56 14.4 17 2.8 28.2 3.4 40.5 2.2 7.5-.7 9-.5 24 3.4 22.5 5.8 37.5 11 50.2 17.3 12.8 6.4 29.4 17.4 37.3 24.6l5.5 5.1-7-4.6c-8.3-5.4-42.5-22.7-54.7-27.8-15.7-6.5-16.7-6.7-60.2-9.3-14.7-.8-31.7 1.2-47.6 5.7l-13.5 3.8-.3 4.9-.3 4.9 6.3 1.8c10.8 2.9 19.6 6.5 43.3 17.9 33.4 15.9 53.7 23.9 77.5 30.4 7.8 2.2 11.9 2.7 23 2.8 15 .2 16.3.5 37 8.7 14.9 5.9 29.9 13.3 39.5 19.5 16.7 10.8 35.4 27.3 45.3 39.8 3 3.8 7.1 8.7 9 10.7l3.6 3.8 2.7-2.6 2.7-2.6 4.2 7.9c19.1 35 18 32.8 14.4 28.3-18.6-22.8-38.4-43.6-50.3-53-10.5-8.2-33.2-23.7-45.6-31.1-12.9-7.7-22.5-11.3-36.6-13.8-6.3-1.2-14.3-2.8-17.9-3.6-4.1-1-13.4-1.8-25-2.1-16.8-.5-19.9-.3-33.4 2-8.2 1.4-15 2.7-15.1 2.8-.1.2-.5 2.5-.8 5.1l-.5 4.8 4.2 1.6c9.4 3.7 29.3 14.6 47.1 25.9 40.4 25.6 64.6 38.5 84.6 45.2 10 3.3 14.1 4.2 19.6 4.2 6.5 0 7.9.4 18.9 5.9 25.3 12.4 41.4 23.3 57.8 39.1 12 11.6 20.6 21.8 27.8 33 6.9 10.8 7.7 12.4 4.2 8-9.1-11-18.5-20.4-38.4-38.1-18.6-16.6-30-23.8-44-28-4.1-1.2-10.7-3.5-14.7-5-9-3.6-20.3-6.3-37.2-8.9-11.8-1.8-14.7-1.9-25.9-1-7 .6-13 1.4-13.4 1.8-.4.5-1 2.8-1.3 5.2l-.6 4.5 7.9 4.3c11 6 25.7 17.4 45.2 34.7 48.5 43.4 75.5 61.8 92.9 63.5 8.2.8 9.9 1.7 23.6 12.6 29 23.2 49.7 51.1 62.1 83.5 3 7.7 5.4 14.3 5.4 14.7-.1.4-2.5-4.3-5.5-10.4-5.1-10.6-23-38.4-33.1-51.6-11.7-15.2-24-25.7-36-30.8-2.7-1.2-7-3.5-9.6-5.1-14.9-9.6-47.4-17.9-69.8-17.9h-5.8l-1.5 4.5-1.5 4.4 6.9 5.7c11.1 9.1 23 22.3 43.9 48.9 30.7 39.1 46.5 56.2 61.3 66.3 5.1 3.6 11.6 6.2 15.2 6.2 3.2 0 7.1 3.5 16.7 14.9 15.4 18.3 25.7 36.3 33.3 58.1 2.7 7.9 4.1 14.3 5.6 26 1 8.5 1.9 16.2 1.9 17 0 .8-2-4.4-4.4-11.5-16.2-48.2-25.4-64.5-43.1-76.5-3.8-2.6-8.1-6-9.5-7.5-6.1-6.6-22.3-15.5-38-20.8-10.1-3.4-25.8-5.9-35.1-5.5l-7.6.3 7.9 9.5c9.9 11.8 17.3 23.6 25.6 41 28 58.3 34.9 71.2 46.6 85.7 7.3 9 13.1 13.8 19 15.5 4.8 1.5 8.2 6 16.4 21.8 11.8 22.6 17.1 43 17.9 69 .2 8.5 0 18.9-.4 23l-.9 7.5-.8-9c-.9-10.9-6.7-43.5-10.1-56.4-4-15.1-10.1-24.8-20-32.1-1.1-.8-2.9-3.3-4-5.4-3.1-6.2-12-15.1-19.8-20-15.8-9.8-28.1-13.6-44.2-13.6h-8.5l2.4 3.8c8.5 13.5 13.8 28.9 19.5 56.8 8 38.6 13.2 55.7 23.1 75.9 6.2 12.8 10.3 18.3 16 21.3 4.4 2.3 6.8 7 11.3 22.8 5 17 6.1 25.8 5.4 44.2-.6 18-2.8 29.7-8.8 47.2-2.1 6.3-3.6 10.1-3.3 8.5 2.9-14.5 3.3-19.8 3.4-40 0-30.6-1.8-39.8-10-50-2.2-2.8-4.4-6.1-5-7.5-3.8-8.6-6.3-12.3-13-19.1-7.8-7.9-14.2-11.8-29.2-17.8-7.6-3-22.5-6.7-23.4-5.8-.3.3.4 3.4 1.5 7 4.1 13.4 4.5 18 4.6 57.2.1 39.8.9 48.9 5.4 66.8 3.6 13.6 6 18.9 11.1 23.7 5.5 5.2 6.3 7.7 8.1 27.5 1.6 17.9-.4 34-6.7 52.1-2.5 7.6-9.9 23.4-10.9 23.4-.2 0 .3-1.9 1.1-4.3 2.1-5.8 8-36.1 9.3-47.7 1-9.1.4-18.6-1.5-23.5-.4-1.1-2-4.1-3.6-6.6-1.5-2.5-2.8-5.3-2.8-6 0-.8-1.6-4.8-3.5-8.8-5.2-10.9-12.1-17-28.2-25.4-10.5-5.4-24.9-11.7-26.7-11.7-.2 0 .1 2.6.6 5.7 1.5 8.6.2 25.3-2.7 37.3-10.4 42.5-12.4 56.6-10.5 75.4 1.9 19.2 4.2 26.8 9.8 31.8 3.9 3.5 4.7 8.3 3.8 24.4-.9 17.3-4 28.9-12 44.9-6.2 12.3-10.3 18.1-25.9 36.8-2.7 3.2-3.7 5.2-3.3 6.5.5 1.5-.6 3-4.6 6.3-2.9 2.3-6.1 5-7.2 5.8-1 .9 1.3-2.8 5.2-8.1 9.8-13.7 15.3-23.6 21.2-38.2 9.3-23.5 13.1-35.6 13.7-43.8.5-7.2.4-8.2-2.5-14-1.7-3.5-3.6-8.5-4.2-11.1-3.7-16.7-20.9-32.2-47.9-43.1-3.6-1.4-6.6-2.6-6.8-2.6-.2 0-.3 2.9-.3 6.5 0 10.4-2.6 20.5-11 42.5-4.3 11.3-9.1 25.4-10.6 31.5-2.6 9.8-2.9 12.7-2.9 27 0 18.3.7 21.3 6.6 28.1 2.5 2.9 3.9 5.5 3.9 7.2 0 6.6-3.2 27.6-5.1 33.8-4.6 14.8-15.1 31.8-25 40.4l-6 5.3 3.5-5.6c4.2-6.5 14.5-30.3 17.6-40.6 2.9-9.3 2.4-16.9-1.3-24.1-1.5-2.8-2.7-6.6-2.7-8.3 0-5.1-5.2-14.6-12.7-23.2-6.3-7.2-8-8.5-17.4-13.2-5.7-2.8-12.7-6.1-15.5-7.2l-5.2-2-.6 5.9c-1.1 9.7-3.3 15.5-14.1 37-13.9 27.6-17.5 39.3-17.5 56.5 0 10.6 2.2 17.9 6.7 22.4l3.6 3.6-.6 11c-.4 6-1.3 13.9-2.2 17.5-3.6 14.8-13.9 30.4-28 42.3-12.6 10.6-13.3 10.9-7.9 3.1 5.7-8.4 17.7-32.6 20.4-41.3 2.6-8.4 2.5-13.5-.5-19.9-1.4-3-2.5-6.4-2.5-7.5 0-3.1-4.4-12.1-8.6-17.9-4.2-5.6-19.9-19.8-25.9-23.3-2.2-1.3-6.6-3.5-9.7-4.9l-5.7-2.5-.6 4.7c-1.4 10.1-4.5 18-12.6 31.3-15.4 25.1-19.2 35.8-19.3 52.9 0 13.1 1.3 17.7 6.9 24l4.5 5.1v8.2c0 10.7-2.1 19.2-7 28.6-5.9 11.2-12.2 18.3-23.7 26.7l-10.2 7.4 1.6 4.5c.9 2.9 2.1 4.5 3.1 4.5s4.4-1.8 7.7-4.1c16-10.7 42.7-21.1 68.5-26.4 21.9-4.6 32.7-5.8 51.5-6 18.3-.1 19.7-.3 38.4-4.4 36-7.9 46.3-11.6 82.1-29.5 14.6-7.4 30.8-15 36-17 5.2-2 10.4-4.1 11.6-4.5 1.8-.8 1.9-1.5 1.5-5.7l-.6-4.9-14-2.1c-7.7-1.1-18.7-2.9-24.4-3.9-12.9-2.2-30.5-1.6-42.9 1.4-4.6 1.2-11.3 2.1-15 2.1-15.2 0-23.7 2.6-66.9 19.8-15 6-27.3 10.8-27.3 10.6 0-.1 4-2.6 8.9-5.4 19.1-10.9 42.3-20.6 66.6-27.9 25.6-7.7 29-8.4 43.5-8.7 11.9-.1 15.2-.6 27.1-3.7 16.3-4.3 29.5-9.1 44.6-16.2 15-7.1 26.7-14.1 52.9-31.6 12.2-8.2 27.2-17.6 33.3-21l11.3-6.3-.7-4.5c-.4-2.5-.8-4.7-.9-4.9-1.2-1.2-25.5-2.3-40.6-1.9-21.4.6-27.2 1.5-43 6.1-6.3 1.9-14.4 3.9-17.9 4.6-3.5.6-9.8 2.5-13.8 4.1-6.8 2.7-64.6 31.6-75.2 37.7-8.4 4.8-2.9.3 11.2-9.1 21.5-14.4 42.6-25.2 68-34.8 16.9-6.4 25.9-8.9 32.2-8.9 9.7 0 22.1-4.5 51-18.6 28.9-14.1 45.2-25.7 83.6-59.7 10.2-9 27.1-22.6 32.7-26.2.1-.1-.3-2.3-1-4.9l-1.2-4.6h-16.1c-10.2 0-19.6.6-25.6 1.6-12 2-28.6 7.4-38.7 12.4-4.4 2.2-11.8 5.1-16.6 6.5-12.5 3.6-21.1 8.3-48.3 26.4-13.4 8.8-24.3 15.9-24.3 15.7 0-.2 3.9-3.6 8.8-7.4 29-23.1 73.4-48.9 88.1-51.3 12.1-1.9 39.4-18.1 60.1-35.7 17.2-14.6 29-27.6 51.7-56.7 7.7-9.9 18-22.4 22.8-27.9l8.8-9.8-1.5-4.2-1.5-4.1-6.9.3c-12.3.5-28.7 3.3-37.9 6.3-11 3.7-19.3 8.2-28.8 15.8-3.9 3.2-11 7.7-15.7 10-11.5 5.5-19.9 12.5-50 41.4-14 13.5-25.7 24.4-25.9 24.2-.7-.7 15.5-19.2 28.4-32.4 25.3-25.9 53.9-48.8 64.5-51.6 7.2-1.9 12.1-5.1 23.7-15.4 34.4-30.6 47.2-48.1 71.6-98.1 6.9-14 14.6-28.8 17.3-32.9l4.7-7.3-1.9-3.5c-2.3-4.4-3.3-4.8-9.2-3.4-30.3 7.4-47.7 15.8-61.4 29.8-3.6 3.7-9.6 9-13.3 11.7-9.5 6.9-10.2 7.8-52.7 66.9-4.3 6-7.8 10.6-7.8 10.3 0-.4 2.3-5.2 5.1-10.9 17-33.9 38.3-65.7 57.4-85.6 6.1-6.4 9.5-9 14.2-11.2 7.1-3.2 12.3-8.1 22.5-21.2 22-28.5 31.4-50.8 44.8-106.7 4.4-18.1 9-32.5 13.4-42 1.4-3 2.3-5.6 2.1-5.8-.6-.7-15.3 2.8-25 5.9-16.8 5.3-35.9 19.9-45 34.4-2.1 3.3-6 8.4-8.6 11.3-6.9 7.6-9.6 12.8-21.7 42.7-10.5 25.8-21.9 52.5-22.8 53.4-1.7 1.8 7.1-32 12.3-47.4 6-17.6 10.9-28.9 21.5-49.6 10.1-19.9 13.1-24.1 19.4-27.1 5.5-2.5 9.5-7.9 16.7-22.3 14.9-30 19.7-51.7 21.7-99.1 1.3-30.5 3.2-45.3 7.6-59.7.3-.9 0-1.7-.7-1.7-1.9 0-26.9 12.3-33.3 16.4-11.8 7.6-22.9 20.2-28.2 32.2-1.4 3.2-3.9 7.3-5.5 9.1-7.6 8.7-9.7 15.8-15.4 53.1-4.4 27.9-8 48.1-8.9 49-1.1 1-1.8-17.1-1.3-31.3 1.2-29.8 5.6-57.8 12.1-77.6 4.8-14.9 7.1-19.3 12.3-23.5 5.8-4.8 8.3-10.3 12.8-28 7.9-31.1 8.3-53.6 2-93.4-2.7-16.8-3.8-26.8-4.2-39.8l-.6-17.2-8.1 4.4c-16.6 9-21.3 12.1-28.8 19.4-8.9 8.6-14 17.3-15.9 27.2-.7 3.6-2.3 8.1-3.6 10-6.3 9.3-7.3 20.2-5.3 54.8.5 9.2 1.1 22.8 1.4 30.2.4 12.8.4 13.3-1 9.5-1.7-4.6-4.8-18.9-7-32.5-2.1-13-3-47-1.5-60.7 1.7-16.4 3.1-20.7 7.9-24.8 6.9-6 9.6-18.6 9.6-45.5 0-22.4-1.9-32.1-14.7-73-5.7-18.1-7.7-28.7-7.7-40.1 0-4.9-.2-8.9-.5-8.9-.8 0-16.5 10-22.5 14.3-16.4 11.8-25.9 26.6-28.4 44-.4 2.6-1.7 6.9-2.9 9.5-3.6 7.9-2.9 19 3.2 48.6 2.8 13.7 5.4 25.4 5.8 26 .4.7.2.8-.5.1-1.5-1.5-8.7-18-12.6-29.4-7-20-11.6-50.4-10.4-68.8.4-5.7.7-6.8 3.1-8.5 5.6-4.1 6.2-6.6 6.2-25.8-.1-25.9-3.5-39.3-18.5-73-10.4-23.6-13.8-33.5-14.9-45-.6-5.1-1.2-9.5-1.5-9.8-1.4-1.4-13.4 7.5-23.7 17.8-16.4 16.1-21.9 25.6-21.9 37.4 0 3.4-.8 7.2-2.2 10.2-2.8 6.2-2.9 17.3-.3 25.9 2.1 7.3 13.5 38.1 16.4 44.7 1.2 2.7 3 6.9 4.1 9.5l2.1 4.6-4-4.4c-2.2-2.4-6.7-8.9-10-14.4-13.3-22.3-19.7-41.2-22.1-65.5-1.2-12.3-.9-14.1 3.2-19.3 4.8-6 3-34.4-3.3-54.6-1.7-5.3-8.2-20.2-14.4-33.1-12.5-25.9-14.9-32.2-16.7-44.7l-1.2-8.4-13.4 13.3c-14.1 14.1-20.1 21.5-25 31.3-3.1 6.2-5.8 16.7-4.7 18.5.3.5-.4 2.8-1.5 5.1-3 5.8-3.6 13.1-1.6 20.7 1.6 6.4 11 27.7 19.8 45l4.7 9.3-7.3-6.6c-12.1-10.8-25-30.7-30.5-47.1-2.6-7.8-4.1-17.1-4.1-25.7 0-6 .3-7.3 2.9-10.5 4.2-5.4 5.1-9.3 5.1-21.6-.1-20.1-5.1-35.9-18.9-59.6-13-22.1-18-34.7-18.1-45.2 0-1.5-.4-2.9-.9-3.2-.5-.3-4.7 3.4-9.3 8.2zm15.9 39.5c16.4 28.1 20.5 40 20.7 59.2.1 12.8.2 12.6-5.5 19.6-4.3 5.3-3 27 2.5 43.2l2.5 7.2-6.5-7c-11.3-12.1-27.4-31.7-32.9-40-2.9-4.4-9.1-15.9-13.6-25.5-9-19-10.4-25-7.8-32.6.7-2.2 1.3-6.4 1.4-9.5.1-7.8 3.8-14.8 15.8-29.7l10-12.4 2.8 7.2c1.6 3.9 6.4 13.1 10.6 20.3zm82.7 58.2c1.5 4.1 7.1 16.5 12.5 27.5 14.4 29 18.4 42.4 19.7 65.4.7 11 .6 11.2-1.9 14.2-3.6 4.3-4.7 7.6-4.7 14.4 0 9 2.7 27.8 5.3 36.9 1.3 4.4 2.3 8.1 2.2 8.1-.6 0-23.5-30.9-29.7-40-3.6-5.2-8.5-12.9-11-17-4.7-7.8-21.7-43.8-23.7-50.2-1.9-5.8-1.6-13 .8-17.6 1.4-2.7 2.1-6 2.1-9.6 0-8.8 7.5-21.9 19.9-34.9 2.5-2.6 4.8-4.7 5.2-4.7.3 0 1.8 3.4 3.3 7.5zm-186.3 22.9c16.3 4.3 41.9 13.5 54.6 19.7 11 5.4 41.6 24.7 45.3 28.6 1.3 1.4 1.3 1.5-.5.9-5.9-2.2-34.4-9.9-43.2-11.8-9.3-1.9-10.9-2-17.2-.8-16.5 3.1-55.1-3.7-89-15.7-8.6-3-20.3-7.1-26-9l-10.4-3.6 5.9-1.9c7.1-2.2 26.9-7.5 30.4-8.1 1.4-.2 11.1-.5 21.6-.6 17.4-.1 20.1.1 28.5 2.3zm276.9 61.7c0 3.8 5.6 19 13.8 37.5 14.9 33.6 18.4 46.7 18.6 70.6l.1 14.7-3.6 3.3c-5.7 5.2-6.3 8.5-5.5 29.8.3 10.2 1.2 22.1 2 26.5.7 4.4 1.3 8.1 1.2 8.2-.4.5-23.6-42.4-31.4-58.2-8.8-17.6-22.4-51.8-25.6-64.1-2.1-8.2-2-14.5.3-20.2 1.1-2.6 2.1-7.9 2.4-11.7.5-8.6 3.3-14.5 11.2-23.5 6.6-7.6 14.3-15 15.6-15 .5 0 .9.9.9 2.1zm-233.5 5c3.3.5 12.8 1.3 21 1.8 13.1.7 16.1 1.2 23.5 4 12.2 4.5 47.6 22.1 57.8 28.7 12 7.8 33.7 25 44.2 35 .8.8-3.7-.9-10-3.7-6.3-2.7-17.1-7.1-24-9.7-12.5-4.6-12.5-4.6-26-4.7-11.1-.1-15.3-.6-23.5-2.8-22.6-5.9-39.3-12.3-70-26.9-12.6-6-26.5-12.4-30.7-14.1-4.3-1.8-7.8-3.5-7.8-3.8 0-1.5 22.3-4.6 34.5-4.7 2.8 0 7.7.4 11 .9zm139.7 45.4c3.2 4.7 5.6 8.5 5.3 8.5-.3 0-4.1-3-8.5-6.7l-8.1-6.7 2.3-1.8c1.3-1 2.5-1.7 2.8-1.7.3 0 3.1 3.8 6.2 8.4zm-46.2 39.2c3.6 1.1 10.1 2.5 14.5 3.1 15.6 2.1 29.2 9 59.5 30.2 16.7 11.8 28.1 21.5 40.6 35 9.7 10.5 23.8 27 22.9 27-.4 0-2.5-1.3-4.9-2.9-5.8-4-28.7-16.8-36.6-20.4-4.9-2.2-8.7-3.1-15.6-3.7-11.6-1-23.7-4.9-42-13.9-17.7-8.6-25.3-13-54.8-31.4-13.1-8.2-27.8-17-32.5-19.6-8.3-4.4-8.5-4.6-5.6-5.3 1.7-.3 13.1-.5 25.5-.4 19.3.2 23.4.5 29 2.3zm240.8 63.9c10.9 34.8 13.2 46.3 13.2 66.8-.1 23-2.4 35.5-7.2 38.4-7.3 4.3-11.1 22.5-11.2 53.4l-.1 18.7-1.8-5.2c-14.6-42.3-26.9-85.5-32.8-114.7-5.8-28.8-6.1-35.8-2.4-43.8 1.4-3 2.5-6.9 2.5-8.8 0-1.9.9-6.2 2-9.5 3.8-11.2 10.2-19.5 21.2-27.5l7.2-5.2 2.2 10.6c1.1 5.9 4.4 18 7.2 26.8zm-188.5 30.9c13.7 2.1 25.3 4.9 32.9 8 3.5 1.5 10.1 3.8 14.8 5.1 11 3.3 17.9 7 28.8 15.8 14.4 11.4 39.8 35.3 46.4 43.5 9.4 11.8 22 31.1 32.8 50.6l3.4 6-8.5-8c-9.8-9.3-22.1-19.4-29.8-24.3-4.3-2.7-6.9-3.6-12.8-4.3-8.4-.9-14.1-3.3-26.3-10.8-16.5-10.3-32.7-23.3-69.6-56-7.1-6.3-17.4-14.8-22.9-18.9-5.5-4.1-10.2-7.6-10.4-7.8-1-1 11.8-.3 21.2 1.1zm256.1 82.5c.9 6.3 2.7 19.1 4.1 28.5 2 12.7 2.7 21.2 2.7 33.5.2 18.1-.8 26.3-5.3 44.8-4.1 16.9-6.6 23-10 24.8-5.8 3-11.1 13.2-17 32.9-3 10.1-7.8 33.9-8 39.8-.4 11.3-5.1-39-6.9-73.8-4.5-87.6-4.5-87.7-1.8-96.5.6-1.9 2.5-5.5 4.3-8 2.4-3.5 3.3-6 3.7-10.6.4-3.7 1.6-8.1 3.3-11.5 3.4-6.7 13.6-16.7 21.8-21.4l6.2-3.5.7 4.8c.4 2.6 1.4 9.9 2.2 16.2zm-100.2 13.6c2 6.3 3.3 11.3 3 11-.2-.3-2.8-4.5-5.7-9.3-5-8.2-5.2-8.8-3.8-11 .9-1.3 1.8-2.3 2.2-2.3.4 0 2.3 5.2 4.3 11.6zm-92.7 13.9c19.1 2.9 27.2 5.8 52 19 19.8 10.5 26.7 17.6 48.4 50 13.1 19.5 15.6 23.9 21.6 38 4.7 11.1 15.8 43.5 15.1 44.2-.2.2-1.1-.9-2.1-2.4-3.8-5.9-16.7-21.2-23.2-27.5-6.6-6.3-8.8-7.5-17.3-9.2-6.5-1.3-22.5-15.3-38-33.1-4.8-5.5-16.5-19.9-26-32-19.6-24.9-32.4-40-38.3-45-2.2-1.9-3.6-3.5-3.1-3.5s5.4.7 10.9 1.5zm245.1 105.2c-1.1 5.2-2.5 24.8-3.1 42.3-1.4 41.1-6.9 65.9-20.5 92.9-6.6 13.3-8.4 15.7-14.2 18.8-3.2 1.7-6.7 4.7-9 7.8-4.6 6.1-21.5 39-27.5 53.5-2.3 5.8-4.3 9.9-4.3 9.1 0-3.7 10.4-73.4 13.5-89.4 1.9-10.1 5.3-30.3 7.5-44.8 4.9-32.3 6.4-37.7 13.1-46.6 2.8-3.7 5.7-8.4 6.5-10.5 3.7-10.4 15-22.8 28.3-30.8 4.6-2.7 8.8-5 9.3-5s.7 1.2.4 2.7zm-101.4 24.1c.3 4 .4 7.1.3 7-.2-.2-1.9-4.9-3.8-10.4-3-8.9-3.3-10.1-1.7-9.7 1 .3 2.1-.1 2.6-.9 1-1.6 1.9 3.3 2.6 14zm-87.2 3.8c13 4.3 25.4 10.9 32.2 17.2 3.5 3.2 9.5 7.9 13.4 10.5 8.5 5.6 13 10.8 18.9 21.9 7.9 15 21.2 51.7 24.5 67.7 2.5 12.6 4.7 30.8 5.5 45.6l.7 12-3.5-7.6c-4.8-10.9-13.4-26.6-17.3-32-3.9-5.4-6.2-7-12.1-8.7-9.7-2.8-25.3-25.3-42.6-61.2-19-39.5-25.8-53-30.6-60.3-2.8-4.3-5.1-8-5.1-8.3 0-1 8.2.7 16 3.2zm208.5 131.3c-1.3 3.8-4.2 14.7-6.5 24.3-12.8 53.2-21.3 73.9-41.1 100.4-11.3 15-15.3 19-21.2 21-4.3 1.4-6.9 3.4-14.7 11.3-10.8 11-22.2 25.4-33.4 42-4.2 6.3-7.6 11.2-7.6 10.7 0-2.7 28.8-75.6 39.5-100.1 3.1-7.2 9.3-21.9 13.6-32.8 10.7-26.7 13.4-32.1 20-39.2 3-3.3 6.8-8.3 8.4-11 6.7-11.7 24.5-26.2 38.2-31 3.7-1.3 6.9-2.4 7-2.4.1-.1-.9 3-2.2 6.8zm-105.1-2.4c.4 1.1 1.3 1.4 3.2.9 2.4-.6 2.6-.5 2.1 1.7-.3 1.3-1.1 6.4-1.8 11.4-1.5 10.9-2.8 14-2.9 7-.1-2.8-.7-8.9-1.4-13.8-1.1-7.9-.8-11.2.8-7.2zm-92 5.1c8.1 2 23.4 10.6 29.5 16.4 2.7 2.6 6.3 7.5 8 10.9 1.7 3.3 3.5 6.1 4 6.1 2.1 0 11.4 9.7 13.7 14.2 3 6 6.3 18.2 10.6 39.8 3.1 15.5 3.3 17.8 3.3 37 0 11.3-.6 24.5-1.3 29.5-2.3 16.3-5.5 33.5-6.2 33.5-.4 0-1-2.1-1.4-4.8-1.1-7.8-7.6-29.4-10.9-36.3-2.2-4.3-4.3-7.1-6.7-8.6-7.6-4.8-9.2-6.7-14.6-17.9-7.3-15.1-14.4-37.1-18.9-58.4-6.1-29.2-10.4-46.1-13.9-54.8-1.8-4.5-2.9-8.2-2.4-8.2.6 0 3.8.7 7.2 1.6zm-13.2 145.4c16.2 7 24.1 13.8 29.4 25.4 1.5 3.2 4.8 8.6 7.3 12 7.8 10.3 8.6 14.5 8.6 44.6l-.1 25.5-3.3 12.9c-3.8 14.9-9.4 30.6-18.3 51.5l-6.3 14.6-.7-14.3c-1.3-27-3.2-35-9.9-41.2-5.7-5.3-8.4-11.8-12-29.7-2-9.7-2.3-15.4-3-54.3-.4-23.9-1.1-45.2-1.5-47.3-.3-2-.4-3.7 0-3.7.3 0 4.7 1.8 9.8 4zm97.5.4c.1.1-1.6 4.7-3.8 10.2-2.2 5.4-3.8 8.5-3.5 6.9.2-1.7.7-5.9 1.1-9.5.9-8.9 1.1-9.3 3.7-8.4 1.3.3 2.4.7 2.5.8zm102.1 8.3c-.2.5-6.7 13.6-14.5 29.3-22.5 45.3-30.9 57.8-53.9 80.6-19.9 19.7-27.5 25.6-36.1 28.3-10.7 3.2-31.2 18.6-57.8 43.4-6.6 6.2-11.3 10.1-10.4 8.7 31.8-50.3 89.3-132.8 102-146.5 3.1-3.3 8.1-7.5 11-9.4 3-1.9 7.1-5.5 9.1-8.2 7-9 20-16.9 38.3-23 11.8-4 12.9-4.3 12.3-3.2zm-229.9 128c5.1 4.5 9.3 11.3 11.1 18.1.6 2.3 2.2 5.8 3.5 7.8 1.3 1.9 2.9 5.1 3.6 7.1 1.8 5.4.5 20.9-3.5 41.3-3.9 20.4-8.2 32.4-18.2 50.5-7.1 12.9-23.6 39.6-24.1 39.1-.2-.2.1-3.2.7-6.7 1.3-8.4 1.3-31.3-.1-36.4-.6-2.2-2.8-5.8-4.9-8-5.2-5.3-6.9-12.6-7.7-32-.6-17.7.5-25.6 7.3-53.5 4.1-16.8 5.3-23 7-37.3l.5-4.8 10.1 5.3c5.5 2.9 12.1 7.2 14.7 9.5zm81.1 5.3c.4.3-1.7 4.1-4.7 8.5-3.1 4.4-5.2 7.1-4.8 6 .4-1.1 1.8-5.2 3.1-9 3.8-10.9 3.4-10.3 4.6-8 .6 1.1 1.4 2.2 1.8 2.5zm93.7 27.3c-6.7 8.5-16.2 20.5-21.2 26.8-11.5 14.7-31.2 34.9-44.3 45.2-18.2 14.5-41.2 28-49.7 29.2-9.8 1.4-21 6.6-46 21.4-6 3.5-15 9.1-19.9 12.4-5 3.4-8.3 5-7.4 3.9 3.8-5.4 41.8-44.9 59.9-62.3 11.2-10.7 27.5-26.3 36.3-34.7 18-17.3 24.8-22.5 36.2-27.9 4.3-2 9.8-5.4 12.1-7.5 6.2-5.6 16.8-12.1 24.7-15.2 7.9-3.2 21-6.2 28.3-6.5 3.2-.1 3.2 0-9 15.2zm-255 78.6c9.7 8.2 14.3 15.4 14.3 22.3 0 1.7 1.3 5.2 2.9 7.7 1.6 2.5 3.2 6.2 3.6 8.1.8 4.6-1.9 15-8.5 32.6-7.2 19.2-11.9 28.9-19.3 40.2-10.4 15.8-33.8 44.7-32.3 39.8 1.5-4.6 3.7-20 4.3-29.2.7-11.7-.5-16.4-4.8-19.6-1.6-1.2-3.3-3.5-3.8-5.2-3-9.3-2.1-27.8 2-44.1 1.1-4.4 5.4-16.7 9.5-27.3 4-10.6 8.4-23.5 9.6-28.7l2.2-9.4 6.7 3.5c3.7 2 9.8 6.1 13.6 9.3zm86.7 21.9c.3.5-1.3 2.6-3.5 4.8l-4 3.9 2.6-4.8c2.6-4.6 3.8-5.6 4.9-3.9zm110.1 18c-.6.4-3.7 3-7 5.7-3.3 2.8-13.2 11.3-22 19-31.4 27.6-44.1 36.3-74 51-28.3 13.9-33 15.6-44.2 16.6-5.1.4-12.4 1.7-16.3 2.9-9.5 2.8-30.2 10.7-42.7 16.3-5.7 2.5-10.3 4.4-10.3 4.3 0-.7 32-26.6 47.5-38.6 19.4-14.9 66.8-46.6 77.9-52 4.5-2.2 11.5-4.9 15.6-5.9 4.2-1.1 10.5-3.5 14-5.4 11.1-6 27.6-11.1 46-14 4.8-.8 16.4-.7 15.5.1zm-281.7 58.7c7.3 8 10.6 13.9 10.8 19.7.2 2.8 1.1 5.9 2.2 7.5 5.7 8.1 5.2 13.8-3 33.6-6.5 16-10.6 23.6-17.6 32.9-6 8.1-24.3 28.6-33.6 37.7l-5.4 5.4 1.8-6.9c2.5-9.6 4.4-27.2 3.6-32.8-.6-3.5-1.8-5.9-5.1-9.6-3.9-4.4-4.3-5.4-5-11.8-1.5-15.6 2.3-28.9 16.9-58 5.7-11.4 10.9-22.5 11.5-24.7.7-2.2 1.4-4.6 1.7-5.3.7-2.5 15.6 6.1 21.2 12.3zm189.4 55.1l3.8.7-8.3 5.2c-4.5 2.8-16.5 10.8-26.7 17.6-35.1 23.7-58 34.6-88.8 42.4-11.9 3-15.2 3.5-25.2 3.4-9.2 0-13.6.5-21.8 2.5-13.4 3.4-34.6 9.8-44.7 13.6-4.4 1.6-8.2 3-8.5 3-.9 0 28.2-19.2 41.5-27.4 13.9-8.6 75.7-40.6 89.2-46.2 4.5-1.8 11.4-3.9 15.5-4.5 4-.7 10.4-2.3 14.3-3.6 10.3-3.6 19.6-5.4 32.5-6.2 15.7-1.1 22.8-1.2 27.2-.5zm-286.5 27.7c8.4 8.1 14.3 17.3 14.3 22.4 0 1.3.7 3.8 1.6 5.5 3 5.7 3.3 8.6 1.9 14.1-2 7.7-12.9 30-19.3 39.6-5.2 8-30.1 34.8-36.3 39.2l-2.7 1.9 1.4-4.8c.8-2.6 1.9-9 2.5-14.2 1.6-13.6.2-19.7-5.9-26.2l-4.6-4.9-.4-9c-.8-16.2 2.4-26.1 15.7-48.2 9.3-15.5 11.4-19.7 13.1-25.4l1.3-4.2 4.6 3.2c2.5 1.7 8.3 6.7 12.8 11zm90.6 30.8c.5.3-1.4 2-4.2 3.8-2.8 1.7-5.1 2.9-5.1 2.6 0-1.2 7.3-8.5 7.9-7.8.3.4 1 1.1 1.4 1.4zm88.2 40.5c4.4.8 9 1.7 10.3 2 1.7.4-5.3 4.2-27.5 15.2-37.7 18.7-48.5 22.4-86.3 30.3-14 2.8-17.4 3.2-35 3.4-20 .2-37.4 2.5-56.7 7.4-4 1.1-7.3 1.7-7.3 1.6 0-.8 26.4-14.8 42-22.4 17.4-8.4 68.1-28.7 80.3-32.1 4.8-1.4 10.4-2.1 16.7-2.1 6.1 0 12-.8 16.6-2 14.7-4 30-4.4 46.9-1.3zm-176.2 33.1c-.9.7-5.2 3.1-9.7 5.4l-8.1 4.2 8-8.7 7.9-8.7 1.7 3.3c1.6 3 1.6 3.4.2 4.5zM1502.1 214.3l-18.2 23.2 3.3 2.7c1.8 1.5 3.8 2.8 4.3 2.8.6 0 6.3-6.7 12.7-14.9 13-16.5 17.5-20 24-18.6 8.6 1.8 14 8.7 11.9 15.4-.6 2-6.7 10.7-13.6 19.5-13.5 17-13.3 16.5-7.5 20.6l2.7 1.9 12-15.2c19.5-24.8 20.4-26.8 15.9-36.1-4.3-8.7-13.2-14.2-21.8-13.4l-4.7.5 2-2.8c2.3-3.2 2.1-3.9-2-6.8l-2.8-2-18.2 23.2zM710 197.4c-20.8 5.8-44.1 26.6-80.9 72.4-11.2 13.9-23.3 28.2-26.8 31.8l-6.5 6.5 2.6 4 2.6 3.9 4.8-2.4c2.6-1.3 20-8.5 38.7-15.9 53.6-21.2 71.1-29.4 90.5-42.2 27.9-18.4 31.7-36.9 10.7-51.6-10.3-7.3-23.9-9.7-35.7-6.5zm24.3 11.9c10.3 4.7 15.4 11 14.2 17.5-.9 5.1-12.6 16.4-23.7 23.1-14.8 8.8-40.1 20.6-71.4 33-16.4 6.6-30 11.8-30.2 11.6-.5-.5 32.1-40.6 42.1-51.6 17-18.9 35.1-32.2 48.2-35.6 6.7-1.7 14.4-1 20.8 2z"/><path d="M1197.5 197.8c-7.6 2.6-13.8 6.6-18.8 12.1-17.9 20 2.4 42.5 62.4 69 7.5 3.3 27.1 11.4 43.5 18 24.4 9.7 39.7 16.2 44.5 18.8.3.2 1.8-1.4 3.3-3.5l2.7-3.9-6.8-6.9c-3.8-3.8-15.6-18-26.4-31.4-39.5-49.2-59.1-66.7-81.4-72.6-6.9-1.9-17-1.7-23 .4zm20 9.6c14.3 3.8 30 15.4 48.3 35.6 8.2 9 39.4 47.1 41.6 50.8.8 1.4 1.4 1.6-31.7-11.7-41-16.6-63.4-27.7-78.7-39.2-8.6-6.5-14-13.5-14-18.3 0-6.5 7-13.2 17.3-16.7 6.2-2.2 10.5-2.3 17.2-.5zM397.6 211.3c-4.7 4.5-5.1 6.9-2.7 17.1 1.2 4.8 2.1 9.9 2.1 11.2 0 3.2-1.7 6.4-3.3 6.3-.7 0-4.5-4.3-8.5-9.5-7.9-10.1-7.7-10-13.1-5.4-1.6 1.4-2 2.4-1.4 3.3.8 1 34 43.4 34.9 44.6.4.5 8.4-4.9 8.4-5.6 0-.3-3.2-4.6-7.2-9.6-3.9-5.1-7.6-9.8-8.1-10.5-.8-1-.7-1.6.4-2.3 2.8-1.8 7.9-.8 19.3 3.6 6.4 2.5 12.2 4.5 12.9 4.5.7 0 3-1.5 5.1-3.4l3.9-3.3-12.9-4.7c-8.4-3.2-14.7-4.9-18-5l-5-.1V237c.1-3-.6-8.4-1.4-11.9l-1.4-6.3 2.8-2.3 2.8-2.3-2.3-3.1c-1.2-1.7-2.6-3.1-3-3.1-.4 0-2.3 1.5-4.3 3.3zM1556 251.1c-9.1 10.5-17.6 20.4-18.9 22.1l-2.4 3 3.5 3.5 3.5 3.5 12.8-14.7c12.7-14.4 17.7-18.5 22.7-18.5 4.1.1 10.7 3.8 12.8 7.2 4.1 6.8 2.7 9.6-15.3 30.2l-11.8 13.5 3.3 3c1.8 1.7 3.8 3 4.3 3 1.7 0 27.8-30.9 30.2-35.7 2.8-5.4 2.8-8.4.4-13.7-3.9-8.6-13.9-15.1-21.9-14.3l-3.9.3 2.3-3 2.3-3.1-3.4-2.7c-1.9-1.5-3.5-2.7-3.7-2.7-.2.1-7.7 8.6-16.8 19.1zM315.4 252.2l-4.1 4.3 15.8 37.4c8.6 20.6 16.2 38.6 16.9 39.9l1.1 2.6 4.1-4.2 4.2-4.1-5.2-11.7-5.3-11.8 5.8-5.9c3.2-3.2 8.8-8.5 12.4-11.8l6.7-5.9 11.7 5.6 11.7 5.7 4.4-4.5 4.4-4.4-38.7-17.3c-21.4-9.6-39.5-17.6-40.3-17.8-.8-.2-3.3 1.5-5.6 3.9zm42.6 24.9c0 .9-19 18.3-19.4 17.8-.1-.2-2.6-6-5.5-12.9s-6.6-14.8-8.1-17.6l-2.9-5.2 18 8.7c9.8 4.7 17.9 8.9 17.9 9.2zM1613.9 285.3c-8.7 3.3-19.3 13-22.9 20.9-2.7 5.9-2.7 15.8 0 21.4 2.5 5.1 10.7 12.9 15.8 15.1 5.8 2.5 14.8 2.2 20.7-.7 6.3-3 16.9-13.5 19.5-19.2 4.4-9.7 1.9-21.9-6.1-29.9-7.5-7.5-18.8-10.6-27-7.6zm16.7 10.8c8.2 3.9 11.1 13.8 6.7 22.4-4.2 8-15.8 16.4-22.7 16.5-4.4 0-10.8-3.5-13.3-7.2-5.1-7.8-3.8-14.9 4.3-23.7 9-9.8 16.5-12.2 25-8zM1651.3 347.7l-15.2 27.8 3.1 3.2c1.8 1.8 3.7 3.3 4.4 3.3 1.5 0 56.6-20 57.6-20.9.4-.3-.8-2.3-2.7-4.3l-3.4-3.7-22 8.4c-12.1 4.6-22.6 8.7-23.3 9.1-.7.5-.4-.5.6-2.1 1.1-1.7 6.8-11.4 12.7-21.6l10.6-18.7-3.6-4.2-3.6-4.1-15.2 27.8zM273.7 324.8c-1.5 1.5-2.7 3.3-2.7 3.9 0 1.1 18.9 35.3 22.5 40.7l1.9 2.9-3.2-1.7c-4-2.1-41.8-16.6-43.1-16.6-1.2 0-6.7 6.7-6.4 7.7.1.3 13.3 5.5 29.4 11.3l29.2 10.7 2.3 4.4c3.2 6.2 3.1 10.1-.6 14.2-1.6 1.9-3 3.7-3 4 0 .3 1.6 1.5 3.6 2.8 3.5 2.1 3.6 2.1 6.1.3 7.1-5.3 7.8-13.5 2.2-24.6-6.3-12.6-34.1-62.8-34.8-62.8-.4 0-1.9 1.3-3.4 2.8zM929.5 357c-130.1 8.5-246.4 54.9-346.5 138.3-17.6 14.7-55.7 52.6-70.2 69.7-33.3 39.5-60.3 81-82.4 126.5-56.8 117-73.1 248.5-46.9 376.5 27.9 135.6 101.8 256.3 211.2 344.8 5.6 4.5 10.4 9.1 10.8 10.2.4 1.2 1.5 2 2.8 2 1.3 0 5.4 2.3 9.2 5.1 11.8 8.7 37.3 25.3 51.5 33.4 78.2 45 162.6 70.8 253.5 77.5 21.4 1.6 65.6 1.4 88-.5 170.1-13.9 324.9-99.1 427.2-235.2 91.6-121.8 132.6-271.9 115.7-423.8-8.9-79.8-35.6-160.1-76.8-230.6-4.8-8.1-8.6-15.6-8.6-16.8 0-1.2-.8-2.5-1.9-2.9-1-.4-5.3-5.9-9.6-12.2-57.2-84.5-135.2-153.3-225.5-198.9-68-34.4-137.9-54.4-215-61.6-19.7-1.9-68.3-2.7-86.5-1.5zm9.8 23.7c-48.3 54.6-96.5 114.8-126 157.6-5.5 7.9-7.9 10.6-9.1 10.3-1-.3-8.2-2.4-16.2-4.6-18.4-5.2-50.8-16-72-24-27.3-10.3-78.1-32.2-94.4-40.7l-3.9-2 7.4-5.3c55.5-39.1 113.5-67.2 176.9-85.5 46.5-13.4 99.6-21.8 140.8-22.4l11.3-.1-14.8 16.7zm69.9-15.2c104.9 8.6 202.1 43.1 287.7 102.4l12.4 8.6-12.4 5.8c-41.1 19.5-84.9 37.4-121.7 49.7-25.4 8.5-51.8 16.3-53.2 15.8-.4-.2-6.3-8-13.1-17.3-32.7-45.5-79.4-103.1-121.3-149.4-17-19-16.4-17.1-5.4-17.1 5.1 0 17.3.7 27 1.5zm-15.6 34c30.7 34.8 59.1 69.3 84.9 103 13.6 17.8 33.4 45 34.1 46.9.3.9-3.1 2.1-11.2 3.9-10.5 2.5-11.9 2.6-13.4 1.2-2.6-2.3-5.6-1.8-8.2 1.4-1.6 2-3.6 3.1-6.4 3.6-5.1.8-5.1.7-6-15.6l-.7-11.7-5.1-3c-14.2-8.6-23.7-8.8-50.4-.9-6.8 2.1-13.1 3.7-14.1 3.7-.9 0-3.4-.9-5.6-2-5.8-2.9-13.3-2.4-22.7 1.5-1.7.7-1.8-3.5-1.8-80.5v-81.1l5.4 5.8c2.9 3.2 12.5 13.9 21.2 23.8zM959 453.9v82.9l-7 5c-3.8 2.8-12.5 10-19.2 16l-12.3 10.9-13.5-1.3c-13.6-1.4-43.5-5.7-52.2-7.5l-4.7-1 6.7-5.6c15.5-12.9 22.1-20.8 22.2-26.6 0-2.2-3-2.2-18.7-.2-12.9 1.7-26 4.8-30.5 7.1-1.6.8-3.3 1.4-3.8 1.2-.8-.3 26.9-37.7 45.5-61.3 21.8-27.7 85.4-102.5 87-102.5.3 0 .5 37.3.5 82.9zm368.5 36.8c18.9 14.9 31.4 26.1 50.5 45.3 28.6 28.5 50.5 55 73.9 89.3 3.5 5.2 3.6 5-3.9 6.6-6.7 1.6-7 1.5-7-2.4 0-3.1-.6-3.8-5.7-7.1-22.9-14.8-36.7-18.1-50.6-12.2-4 1.8-5.9 2-13 1.4-18.7-1.6-33.9-6.1-65.7-19.3-31.7-13.3-42.2-16.4-60.8-18.3-8.2-.9-11-.8-15.8.5-12.4 3.3-45.4 3.7-80.9.9l-9-.7-6.3-9.4c-6-9-6.8-11.3-3.7-11.3 2.9 0 44.6-13.1 64-20.1 35.3-12.7 77.8-30.5 108-45.3 7.2-3.6 13.5-6.5 14-6.5.6-.1 6 3.8 12 8.6zm-699.4.4c53.9 25.1 115 48.5 158.4 60.4 7.7 2.2 14.1 4 14.3 4.1.2.1-5.5 8.9-12.5 19.6-7 10.7-17.7 27.8-23.8 38l-11 18.6-6 1.5c-17.1 4.4-38.9 4.7-53.5.8-4.6-1.3-10.7-2.1-15.6-2.1-4.4 0-12.9-.3-18.7-.6l-10.6-.7 3.5-4.2c4.1-5 4.3-7.7 1.5-21.2-6.4-31-22.1-37.6-46.5-19.3-2.8 2.1-10.9 8.8-18.1 15-15.8 13.7-24.1 19.6-30.3 22-4.1 1.6-4.8 2.2-5.4 5.5-.5 2.3-1.9 4.5-4 6.2-1.8 1.4-7 6.4-11.5 11-20.7 21-21.6 40.1-3.3 68.9 1.6 2.6 2.8 4.9 2.7 5.1-.3.2-37.8-14.1-45.2-17.3-.5-.2-2-1.9-3.3-3.8-2.2-3.2-2.5-3.3-5.7-2.3-3.2.9-5 .4-21.2-6.3-9.8-4-18-7.5-18.2-7.7-1.4-1.2 18.3-35.5 33.1-57.6 33.9-50.7 75.5-96 122.8-133.7 5.6-4.4 10.2-8 10.4-8 .2 0 8.2 3.6 17.7 8.1zm495.8 74.1l5.3 8.1-6.8-.7c-3.8-.4-12.8-1.6-20-2.7-11.9-1.9-13.1-2.3-12.7-4 .3-1.1 1.7-2.2 3.2-2.6 5.7-1.4 24.6-6.1 25.1-6.2.3 0 2.9 3.6 5.9 8.1zm-65.5 2c-2.6 5.1-9.6 15.9-10 15.5-.6-.6 3.6-10.8 7.4-18.2 3.5-6.7 3.7-6.9 4-3.8.2 1.7-.5 4.7-1.4 6.5zM862.3 569c9.9 1.7 24.8 3.9 33.3 4.8 8.5 1 15.5 2.2 15.6 2.7 0 .6-2.6 3.1-5.9 5.6-5.9 4.5-6.2 4.6-15.2 5.2-21.2 1.5-41.6 7.6-81.8 24.3-14.2 5.8-30 12.2-35.1 14l-9.4 3.4 2-3.2c11.2-18.5 19.2-31.4 26.3-42.3l8.4-13 .3 5.8.3 5.7h7.6c9 0 12-1.3 24.3-10.5 4.7-3.5 9.2-6.1 10-5.9.8.2 9.5 1.7 19.3 3.4zm171.4 9.2c-1.9 4-3.8 8.4-4.2 9.8-.8 2.7-10.9 17.2-13.3 19.3-1.9 1.5-1.6 1 7.5-14.4 3.8-6.4 8.3-15.1 9.9-19.4 2.2-5.9 3-7.1 3.2-5.1.2 1.4-1.2 5.8-3.1 9.8zm44.7-7c-2 3.4-8.6 11.8-12.4 15.8-4.8 5.1-3.4 2.6 2-3.5 1.9-2.3 5-6.2 6.7-8.8 1.8-2.6 3.5-4.7 3.8-4.7.4 0 .3.6-.1 1.2zm2.1 23.6c-6.1 5.9-12.7 12-14.8 13.5-5.6 4.2-4.6 8.7 1.9 8.7 2.2 0 5-1.4 9.2-4.4 3.3-2.4 6.3-4.9 6.6-5.5.8-1.3 6.6-1.5 6.6-.3 0 1.5-4.4 4.8-8.8 6.7-5.9 2.5-9.2 6.7-9.2 11.5 0 2.1.3 4.6.6 5.5.9 2.2 5.6 4.5 9.3 4.5 1.6 0 3.3.4 3.6 1 .4.6-.5 1-2 1-4.2 0-8.2 2.7-11 7.3-1.4 2.4-2.5 4.9-2.5 5.5 0 .6 2.1 1.2 4.8 1.4 6.3.4 6.1 2.3-.5 6.2-3.6 2.1-6.9 5.3-10.3 10-2.8 3.8-4.9 7.4-4.7 8 .2.5 1.8 1.7 3.5 2.5 1.7.9 3.2 1.9 3.2 2.2 0 .3-2.9 3.4-6.5 6.8-3.6 3.5-6.5 6.7-6.5 7.3 0 .5-2 3.4-4.5 6.5-4.5 5.4-6 10.6-3.3 11.5.8.3.5 1.1-.8 2.4-1.1 1-6.6 6.3-12.2 11.7l-10.2 9.8 1.5 3c1 1.8 2.4 2.9 3.8 2.9 1.8.1 1.2 1-3.9 5.8-3.3 3.1-7.9 7.8-10.3 10.4l-4.3 4.7 2.1 3 2.1 2.9-6.8 1.2c-3.7.7-7.3 1.6-8 1.9-.7.4-4.6 6.1-8.7 12.6-7.4 11.9-7.4 12-4.8 12.3 2.4.3 8.7-.9 12.7-2.4 1.4-.5 1.6-.2 1.1 1.9-.6 2-.1 2.9 2.1 4.4 2.6 1.6 5.7 1.8 36.7 1.9 35.4.2 37.8.5 34.3 4.3-.9 1-1.9 3.5-2.3 5.5-.5 3.2-.3 3.7 2.3 4.6l2.8 1.1-3.7 3.4c-4.9 4.5-5.6 7.7-2.7 13.2 1.8 3.5 2 4.6 1 5.8-1.5 1.8-7.8 3.6-11.1 3.3-2.2-.3-2.4.2-2.9 4.7-1.2 10.6-4.4 12.9-17.3 12.4l-9.2-.4-1.5 3.2c-1.3 2.9-2 3.3-5.6 3.3-9.3 0-21.8-5.5-32.7-14.6-2.8-2.4-5.1-3.3-9-3.7-3.5-.3-5.5-1-6.2-2.2-4.3-7.6-13.5-13.4-16.9-10.6-1.1.9-1.5.7-2-1.3-.3-1.4-1.5-3-2.7-3.6-3-1.7-5.9.7-9.7 7.9-2.8 5.4-3.2 7.1-3.2 13.9 0 9.3-1 11.1-6.8 11.9-4 .5-4.2.7-4.2 4 0 5.3-2.5 10.1-5.5 10.9-2.6.6-10.8 0-15.2-1.2-2-.6-2.3-.2-2.3 2.2-.1 1.6-1.1 4.9-2.4 7.3-3.1 5.9-21.3 24.1-24.8 24.8-2.1.4-2.8 1.1-2.8 2.8 0 1.3-.3 3.1-.6 4-.7 1.8-14.6 11.5-16.5 11.5-.6 0-2.7.7-4.6 1.6-2.5 1.2-4.2 3.3-6.4 7.6-1.6 3.2-3.6 6.1-4.3 6.4-.8.3-2.8-.2-4.5-1-1.6-.9-3.4-1.6-3.8-1.6-.4 0-2.1 2.6-3.8 5.8-1.6 3.1-5.1 7.8-7.7 10.4-4.5 4.6-5 4.8-10.2 4.8-6.3 0-9.6 2-19.3 11.8-5.6 5.6-8.3 6.4-11.6 3.4-1.1-.9-2.2-1.3-2.3-.7-2.7 7.4-7 11.4-13.2 12.2-4 .5-4.3.4-5.3-2.5-1.3-3.8-4-4.5-9.3-2.5-8.3 3.2-13.5 8.7-15.6 16.4-.5 2-1.9 4.4-3 5.4-2 1.8-2.9.8-1-1.1.5-.5 1.8-3.4 2.9-6.4 1-3 2.2-6.3 2.6-7.3.6-1.5 0-1.7-4.9-1.7-5.6 0-5.7 0-8.9 4.7-6.4 9.3-12.3 16.1-19 21.7-3.8 3.2-7.1 5.5-7.4 5.2-.3-.3 2.5-3.4 6.3-6.8 11.6-10.7 15.5-14.8 19.5-21.1 5.8-9 4.9-14.4-2.4-13.5-3 .3-3.3.1-2.9-1.9.3-1.6 0-2.3-1.2-2.3-.9 0-1.6-.7-1.6-1.6 0-1.4.3-1.4 1.5-.4 1.2 1 1.5.9 1.5-.5 0-1.5-.7-1.7-4.5-1.2-4.5.5-4.5.4-3.2-1.7 4.2-6.4 4.2-6.2 2.3-9.1-1.7-2.6-1.7-2.7.6-4.3 5.2-3.5 9.8-9 9.8-11.6 0-1.4-.5-2.6-1.2-2.6-2.6 0 9.2-10.4 18-15.8 19.1-11.7 31-21.7 34.1-28.7 3.2-7.1 10.7-15.8 26.1-30.5 8.3-7.9 17.8-17.6 21-21.5 10.5-12.9 25-36.1 25-40 0-3-3-5.5-6.7-5.5-2.8 0-4.2-.9-8.4-5.4-8.6-9.2-21.4-14.5-35.4-14.7-11.3-.1-11.9-1.1-2.3-4.1 4.5-1.5 12-3.7 16.6-4.9 5.8-1.5 9.5-3.1 12.2-5.4 6.7-5.6 16.7-6.7 36-3.9 20.8 3 18.8 3.1 26-1.8 7.7-5.2 13.8-12.5 21.6-25.7 4-6.7 9.5-13.7 18.2-23.1 22.2-24 30.4-35.9 36.2-52.5 4-11.2 9.2-21.2 13.9-26.7 2-2.4 5.6-6.8 7.9-9.9 4.8-6.3 13.5-14.9 17.1-16.8 2.3-1.3 2.3-1.3.8 1.6-.9 1.5-3 5.6-4.7 9l-3 6.3h4.4c5.3 0 9-2.7 14.2-10.4 1.9-2.8 3.4-4.5 3.4-3.8 0 2.3 4 5.2 7.1 5.2 2.1 0 4.4-1.1 7-3.4l4-3.4 2.4 2.4c2 2 2.7 2.2 5.4 1.3 1.6-.6 3.5-1.7 4.1-2.4.9-1.1 1.5-1 3.1.6 2.3 2.3 3.4 2.3 8.8.4 6.5-2.3 12.8-7.1 23.9-18.3 5.7-5.7 10.6-10.1 11-9.7.4.3-4.3 5.4-10.3 11.3zm-468 47.3c-5 4.4-8.3 10.5-10 18.5-.8 3.8-1.3 6.9-1.2 7 .1.1 5.9 1.1 12.8 2.3 7 1.1 16.6 3.2 21.4 4.6 8.4 2.5 26.4 8.9 29.4 10.5 2.7 1.4-14.5 11.1-35.3 20-21.5 9.1-65.7 24.5-67.9 23.7-.6-.3-.2-.6 1.1-.6 1.8-.1 2.2-.7 2.2-3.6 0-3.3.3-3.6 7.8-7.4 4.4-2.2 9.3-5.1 11-6.6 7.1-6 10.5-20.4 7-30.5-2-6-2.5-16-1-20 1.4-3.7 5.3-7.4 11.9-11.6 3.2-2 7.3-5 9.1-6.6 1.8-1.5 3.7-2.8 4.3-2.8.5 0-.6 1.4-2.6 3.1zm861 18.4c8.2 14.2 22.3 42.7 29.3 59.1 28.7 67 43.1 132.1 46.7 210.1l.7 14.3H1268v-10.3c0-13.6-1.7-35.8-4-53.9-1.9-14.8-1.9-14.8.2-20.5 3-8.4 3.5-19.8 1-24.3-1.6-2.9-2.5-3.6-5.8-3.8l-3.9-.3-3.8-15.4c-2.1-8.4-5.7-21.6-8.1-29.2-2.4-7.6-4.2-13.9-4.1-14.1.2-.2 6.7-1.9 14.4-3.8 7.8-1.8 21.3-5.4 30.1-7.9s16.4-4.5 16.9-4.5c.4 0 2.3 3.6 4.2 8.1 3.4 8 3.4 8 6.6 7.5 10.3-1.6 24.6-12.7 31.3-24.2 3.4-6 3.6-6.2 11.5-8.9 37.2-12.9 123.3-47.9 126.9-51.5.8-.8-1-7-2-7-.2 0-6.5 2.8-14.1 6.1-31.6 14-74.3 31.2-103.9 41.7l-11 4 2.5-8.3 2.5-8.3 5.3-1.2c8.9-1.9 20.6-8.4 25.7-14.1 2.5-2.8 4.6-5.6 4.6-6.3 0-.6 8.1-3.7 18-6.9l18-5.7v-13h5.8c6.9 0 7.9.6 8.4 4.5.3 3 .3 3 6.7 3h6.4l4.4-7c2.4-3.9 5.3-9.6 6.5-12.8 1.1-3.1 2.2-5.6 2.3-5.5.1.2 2.8 4.8 6 10.3zM456.5 696c15.1 6.2 15.6 6.5 13.4 8-1.3.8-8.5 6.1-16.1 11.8L440 726.1v27.2l5.8-.6c6.2-.5 10.6-2.4 15.9-6.6 2.8-2.2 3.3-3.3 3.3-6.9V735h3.9c2.1 0 6.6.3 10 .6l6.1.7-2.7 3.6c-1.5 2-5.5 6.8-9 10.8l-6.4 7.1.7 6.9c1.2 12 3.8 14.4 13.4 12.4 23.9-5.1 32.2-28.1 20.6-56.7-1.3-3.2-2.3-6.1-2.1-6.2.2-.2 10.8 3.6 23.7 8.5 12.8 5 24.1 9.3 25.2 9.7 1.6.5 1.3 1-2 3.4-5.4 4-12.9 12.4-24.2 27.1-33.1 43.5-42.8 51.9-51.5 45.1-2-1.6-4-2-9.9-2h-7.3l-2.2 5.7c-3.4 8.9-4.6 15.8-4.1 25.2.5 11.2 4.5 20.4 11.9 27.3 12.9 12.1 30.5 11.4 37.9-1.6 1.7-2.8 3.3-7.2 3.6-9.8.6-4.1 1.4-5.5 6.3-10.1 7.3-7 17.1-14.1 24.6-18 5-2.6 7.2-3.1 13.1-3.2 6.3 0 7.5.3 10.8 2.9 5.7 4.3 10.9 13.1 14.9 25.3 3.4 10.3 8.7 33.5 8.7 38.3 0 2.1.3 2.2 5 1.7 2.8-.3 5-.3 5 .1s2.2.5 5 .4l5-.4v-7.6c-.1-4.3-1.3-13.7-2.9-21.5l-2.8-13.7h2.1c1.6 0 3.1 1.7 6 6.6 4 7 4.6 7.3 11 4.8 1.4-.6 1.7-.4 1.1.6-.5.8-.3 1.1.6.8.8-.2 6.4-8.1 12.4-17.5 6.1-9.4 12.1-18.5 13.5-20.3l2.5-3.2 8.3 1.2c7.1.9 20.9 4.4 22 5.5.9.9-3.3 17.1-4.6 18.2-.9.7-3.4 1.3-5.6 1.3-6.1 0-16.3 2.7-21.8 5.7-8.4 4.6-14.4 13.2-15.5 22.2-.5 4.4-.3 4.9 2.6 7.3 1.7 1.5 8.2 5.2 14.5 8.4l11.4 5.8.6 9.4c.4 5.2 1.6 12.8 2.7 17 1 4.1 1.9 7.9 1.9 8.3 0 .4-2.6-.8-5.7-2.7-3.2-1.9-8-4.1-10.8-5-6-1.8-24.7-3.3-40.1-3.4-6.1 0-15.9-.5-21.9-1.1l-10.8-1.1-7.4-6.5c-19.8-17.2-39.1-25.3-60.4-25.3-29.7 0-58.9 18.5-81.6 51.7l-5.7 8.3h-35.9l.6-18.3c2.7-76.5 21.2-152.6 54.3-223.9 3.2-7 6.2-12.7 6.5-12.5.4.1 7.7 3.1 16.4 6.7zm868.5-2.8c-.1 4.1-4.2 9.8-10.1 14.1-8.3 5.9-13.4 11.2-15.5 16.2-1.6 3.7-1.9 10.2-1.1 21.9.2 2.9 0 3.1-7.8 5.4-4.4 1.3-18.3 4.9-31 8.2l-22.9 5.8-3.8-10.2c-2-5.5-4-11.5-4.4-13.1-.3-1.7-1-3.5-1.5-4-1.7-2.2-7.9-17.7-7.3-18.6 1.2-2.1 8.6-4.9 15.1-5.8 3.7-.6 13.1-1.3 20.8-1.6 24.5-1.1 35.4-3.2 48-9.4 4.4-2.2 9.6-5.3 11.5-7 3.6-3.1 10-4.3 10-1.9zm-107.8 42c.6 1.3.5 1.8-.7 1.8-1 0-1.5-1-1.4-3.3 0-1.7.3-2.5.6-1.7s1 2.3 1.5 3.2zm10.7 31.2c-1.4 1.5-2.2 0-1.3-2.6.7-2.2.7-2.2 1.4-.3.4 1.1.4 2.4-.1 2.9zm5 11.3c3.8 11.9 10.4 35.5 13.1 46.5l3.1 12.6-8.8 12.4c-19.7 27.9-29.2 37.2-42.4 41.4-3 .9-5.8 2.1-6.4 2.6-1.5 1.4 7.8 9.3 15.3 13 8.8 4.4 14.7 4.8 21.6 1.4 6.3-3.1 17-13.9 23.3-23.5l4.2-6.4.5 3.4c1.6 9.6 2.7 24.5 3.3 42.6l.6 20.3h-70.8c-67 0-70.7-.1-70-1.8 2.6-5.9 3.7-10.5 4.5-17.6.5-4.5 1.4-12.2 2-17.3 1.1-10.2 3.7-19.5 8-29.1 2.7-5.9 3.1-6.2 6.3-6.2h3.4l.5 10.7c.3 6 1.3 13.6 2.3 17 1.6 5.7 2 6.3 4.4 6.3 1.4-.1 3.6-.6 4.9-1.3 9.6-5.4 47.4-75.5 62.9-116.7 4.2-11.3 5.1-12.9 7.3-13.3 5.4-.9 5.7-.7 6.9 3zM691 834.6c4.2 2.5 9.4 6.1 11.5 8l4 3.5-8.5-.5c-4.7-.3-10.7-.6-13.5-.6-7.3 0-7.5-.3-5.7-8.8 1.8-8.4 1.1-8.3 12.2-1.6zM404.5 963.2c-12.5 26.6-17.5 53.6-12.8 70.2 1.3 4.6 2.8 7.2 6.4 10.9 2.7 2.8 6 7.4 7.4 10.3 5.7 11.7 16.9 20.5 30.6 24 7.9 2.1 24 2.2 43.7.4 36.8-3.3 46.8 2.7 48.9 29.5l.6 8 6.3 7.3c7.2 8.5 10.1 13.9 11 20.2.6 4.7-1.9 23.8-3.3 25-.4.4-6.4 2.9-13.3 5.5-15.5 6-54.6 22.2-74.1 30.8l-14.7 6.5-6.6-13.7c-32.9-68.8-52.5-149.5-55.3-227.9l-.6-18.2h31.2l-5.4 11.2zm855.1 2.5c-2 42.4-10.1 85.8-24.8 132.9l-4.1 13.1-4.5-1.3c-8.9-2.7-17.6-1.2-23.2 4l-2.5 2.4-16.5-2.9c-9.1-1.6-24.4-4-34-5.4-9.6-1.4-18.8-2.7-20.5-3l-3-.5-.3-18.7c-.2-13.1-.7-19-1.5-19.6-2.7-1.8-11.5-.1-17.2 3.4-8.1 4.8-18.5 14.7-24.1 23l-4.9 7-5.5-.5c-7.9-.8-30.4-2.4-45.5-3.2-10.9-.6-13.7-1-17.5-3-3.3-1.8-6.1-2.4-10.8-2.4-6 0-6.2.1-5.2 2 1 2 .8 2-13 2h-14v-60c0-43.5.3-60 1.1-60s.9 1.9.5 6.2c-.9 8.7.9 21.9 3.7 28.2 1.3 2.8 4 6.7 6 8.6 2.1 1.9 3.7 4 3.7 4.6 0 .7 2.1 7.6 4.6 15.4 5.4 16.8 7.4 26.7 7.4 36.2v7.1l11-.7 11-.7 2 3.4c2 3.3 2.3 3.5 6.3 3 3.1-.3 3.8-.2 2.7.6-1.2.8-.8 1.1 1.8 1.1h3.2v-6.1c0-4.4-.8-8.1-3-13.6-1.6-4.1-3-9-3-10.9 0-2.9.4-3.5 2.8-4 20.3-4.5 33.2-16.1 33.2-30 0-4.3-.3-5.3-2-5.7-1.1-.3-2-1.3-2-2.4-.1-3-3.7-10-6.4-12.4-6.7-5.8-.3-12.7 21.8-23.7 16.2-8.1 27.3-15.1 34.8-22.2l5.3-4.9 73.4-.1h73.4l-.7 13.7zm289.9.5c-3.8 86.4-21.8 161-56.2 233l-5.6 11.7-5.6-2.6c-69.9-31.3-141.8-57.3-205-74.3-18.2-4.9-19.9-5.5-25.5-9.9-3.4-2.5-7.8-5.7-9.9-7-2.1-1.3-3.6-2.8-3.4-3.5 1.2-3.2 9.9-32.3 12.1-40.6 9-33.8 15.1-72.4 17.2-108.8l.7-12.2h281.9l-.7 14.2zm-870.9-2c2.4 6 2.7 9.8.7 9.8-.5 0-1.8-3.7-3-8.3-1.2-4.5-2.4-9.1-2.8-10.2-1.7-4.8 2.5 2.4 5.1 8.7zm157 14c11.7 12.2 21.6 27.1 36 54.8 18.4 35.5 22.8 41 32.5 41h4.7l.7-5.8c3.9-32.8 21.4-70.8 38.7-83.9 5.1-3.9 9-6.3 10.2-6.3.3 0 .6 26.3.6 58.5v58.5h-11.2c-38.6.1-110.6 5.3-159.3 11.6-32.6 4.2-79 11.5-89 14l-2.9.7 3.6-4.4c4.7-5.9 13.6-19.4 24.3-36.9 4.8-8 11.5-18.7 14.8-23.8 4.9-7.6 5.7-9.6 4.6-10.3-7.8-5.2-15.2-9.1-25.2-13.5-6.5-2.8-11.9-5.4-12-5.7-.1-.4 1.3-1.8 3.2-3.1l3.4-2.6 5.1 4.4c12.1 10.3 21 11.3 29.5 3.3 1.8-1.8 6-7.3 9.3-12.2 9.1-13.4 12.5-17.3 17.7-20 2.6-1.3 5.5-3.5 6.5-4.9 1.3-2.1 2.5-2.6 5.6-2.6 3 0 4.8-.8 7.7-3.2 2.1-1.8 4.2-3.9 4.6-4.6.5-.7 3.1-3 5.9-5.2 4.3-3.5 5.7-4 10.1-4 3 0 6-.7 7.1-1.5 1.1-.8 2.5-1.5 3.1-1.5.7 0 5.2 4.2 10.1 9.2zm-132.1 19.9c-5.6 5.7-28.8 23.9-27.2 21.2.4-.6 5.8-4.9 11.9-9.6 6.2-4.7 12.9-10.1 14.7-12.1 1.9-2 3.7-3.6 4-3.6.3 0-1.3 1.8-3.4 4.1zm-22.5-.6c-2.5 2.4-18.2 11.5-19.9 11.5-1.7 0 .9-1.8 12.9-8.7 8.1-4.6 9.2-5.1 7-2.8zM959 1213v110h-11.2c-32.4 0-79.5 5.8-120.1 14.6-9.2 2-16.9 3.5-17.1 3.3-.2-.2-6.4-9.6-13.8-20.9-15-22.8-29.8-47-40.6-66.2l-7.1-12.8 1.6-7.2c1-4.7 1.7-12.4 1.7-21.3.1-16.1-1.2-21.6-6.9-28.3-3.9-4.5-7.5-6-15-6.4l-5-.3-.6 5.8c-.4 3.2-.8 6-1.1 6.2-.6.6-14.3-31.6-20.3-47.8-2.6-7-4.6-13-4.3-13.2.9-.9 53.5-9.3 80.3-12.9 57.9-7.7 114.9-12.1 159.8-12.5l19.7-.1v110zm43.7-104.8c5.3 8.8 22.6 32.7 31 42.9 9 10.8 12.4 12.9 20.6 12.9 4.4 0 6.2-.5 8.2-2.3 2.5-2.1 2.6-2.4 1.5-7.2-2.1-9.5-11.8-23.3-28-39.9l-10.7-10.8 7.1.6c3.9.3 15.2 1.1 25.1 1.7l18 1.2v6.7c0 5.6.4 7.3 2.8 10.9l2.8 4.2 11.1-.3 11.2-.3 2.3-3.4c1.3-1.9 4.2-4.3 6.5-5.3 2.3-1.1 5.7-3 7.5-4.4 1.7-1.3 4.3-2.4 5.6-2.4 4.8 0 63.9 9.1 68.9 10.6 1.3.4 1.6 1.2 1.2 3.4-.8 4 5.6 15.9 12.7 23.4l5.6 6-3.5 8.2-3.5 8.2-4.8.4c-6.8.7-16.9 6-24 12.6-5.1 4.7-7.3 6-13.4 7.7-13.1 3.8-18.3 7.8-40.3 30.6-8.7 9.1-14.6 13-22.6 15l-4.9 1.2.7 8.6c.3 4.7 1.6 15.8 2.7 24.6 1.2 8.8 2.4 23.9 2.8 33.5l.6 17.5 3.5.3c1.9.1 5.4.5 7.8.8l4.2.5-5.1 7.5c-2.9 4.1-5.5 7.7-5.9 7.9-.3.2-6.2-.9-13.1-2.5-37.2-8.6-76.2-14-112.1-15.6l-15.8-.7V1103h32.5l3.2 5.2zM697 1146.5c3.1 8.3 8.9 22.4 12.9 31.5 4 9.1 7.8 17.7 8.4 19.1.9 2.4.4 3.7-5.6 13-10.2 16.1-11.2 18.7-11.2 29.9 0 8.7.3 10 3.1 15.7 1.8 3.4 5.1 8.7 7.5 11.8l4.4 5.6 10-.3 10-.3 4.1-8c2.2-4.4 4.3-9.1 4.7-10.5.6-2.2 2-.2 10.5 14.5 11.2 19.4 26 43.3 38.5 62l8.6 12.9-13.7 3.7c-48.4 13.1-104.4 34.2-162.8 61.2l-16.1 7.4-13.3-10.8c-48.1-39.3-86.6-81.7-120.7-132.9-12.5-18.8-32.2-52.6-31.2-53.4 2.3-1.8 95.3-40.6 97.3-40.6.1 0-.4 4.6-1.2 10.2-2.3 17.4-.9 27 7.6 51.9 5.8 16.7 11.5 30.6 19.3 46.9 13 26.8 20.1 36 28.2 36 6.8 0 17.7-2.7 24.7-6.1 8.5-4.2 19.9-15.6 26.2-26.5 2.6-4.4 7.9-14.9 11.7-23.3 9.4-20.6 14.8-30.3 21.1-38.6 10.9-14.4 15.7-29 14.6-45-.3-5-1.8-14.4-3.2-21-3.3-15.3-5.5-29.5-4.8-30.7.3-.5 1.5-.8 2.7-.6 1.7.2 3.1 3.1 7.7 15.3zm599.3.9c51.6 14.9 108 35.6 169.7 62.3 9.6 4.2 17.7 7.8 17.9 7.9.6.5-15.1 28.3-24.5 43.3-35.6 56.5-83.3 109.1-137.5 151.4-4.8 3.7-9.2 6.7-9.8 6.7-.6 0-5.5-2.2-10.9-4.9-49.6-24.8-125.7-54.1-172.7-66.6-5.5-1.4-10.6-2.8-11.2-3-.8-.3 1.2-3.9 5.2-9.8l6.5-9.3 10.9-1.7c6-1 18.1-3.8 26.8-6.3 18.7-5.4 28.3-6.4 36.5-4 10.5 3 22.6 12.9 37.7 30.8l7.3 8.8h25.6l6.5-10.8c25.5-41.8 29.7-66.3 16.1-93.5-2-4-7.3-13.5-11.7-21.2-9.6-16.6-18.6-35-22.6-46l-2.9-8-6.2-.3-6.3-.3.8 13c.8 15.5.8 15.6-9.4 12.3-8.2-2.7-13.1-5.6-13.1-7.9 0-2.8-5.6-11.8-8.4-13.6l-2.5-1.7 3.1-7.4 3.1-7.4 3.3 1.4c5.3 2.2 11 3.2 28 4.9 8.9.9 19.6 2.4 23.8 3.4 7.4 1.8 7.6 1.8 7.6 0 0-1.4.7-1.9 3-1.9h3l-2.4-4.8c-2.2-4.3-7.4-11.7-14.3-20.1-2.4-2.9-2.5-3.3-.8-2.8 1.1.3 12.2 3.6 24.8 7.1zM959 1428.5v97.5l-5.3-5.8c-38.6-42.1-94.1-110.6-128.1-158.2-8.9-12.4-9.5-13.5-7.5-14.2 1.1-.4 10.9-2.6 21.7-4.8 22.4-4.5 48.8-8.4 67.2-10 6.9-.5 14.1-1.2 16-1.4 1.9-.1 10.8-.4 19.8-.4l16.2-.2v97.5zm56.4-95c17.9 1.9 31.8 4 48.6 7.1 13.2 2.5 35.3 7.1 37.8 7.9 2.6.9-36.6 52.2-75.4 98.5-17.6 21-53.5 62-57.3 65.4l-2.1 1.9v-183.6l17.3.6c9.4.4 23.5 1.4 31.1 2.2zm-196.8 32c32 44.9 71.7 94.5 114.7 143.4 8.9 10 17.8 20.1 19.7 22.3l3.4 4.1-14.9-.7c-53-2.5-96.9-9.8-146.6-24.6-57.3-17.1-115.9-45.7-165.8-80.8l-11.3-8.1 4.8-2.4c17.8-9 62.8-28.2 90.9-38.7 28.8-10.8 90.5-30.3 93.7-29.6.3 0 5.5 6.8 11.4 15.1zm312.8-9.1c36.8 10.5 75.8 24.5 115.1 41.4 30.5 13.1 58.5 26.3 57.9 27.4-1 1.5-34.2 23.2-47.4 30.8-17.7 10.3-48.7 25.7-67.5 33.5-66.5 27.6-132.5 42.1-205.2 45.1l-17.3.7v-4.4c0-4.1.6-5 9.2-14.4 42.1-46.2 85.3-98.4 119.7-144.8 8.5-11.4 15.6-20.7 15.9-20.7.2 0 9 2.4 19.6 5.4zM1698.3 377.1c-1.8.5-3.4 1.3-3.7 1.7-.3.5.6 2.7 2 5 2.2 3.7 2.7 4 5 3.2 4.6-1.8 8.2-1.1 11.8 2.1 5.8 5.1 8.1 9.9 7.7 16-.1 2-4.9 6.9-6.6 6.9-.7 0-5.7-4-11.1-9-5.3-4.9-11.3-9.7-13.3-10.6-11.5-5.5-24.1 2.1-24.1 14.6 0 9.6 10 21.1 21.2 24.1l3.8 1-2.1 2.9-2.2 2.9 3.3 4.1 3.2 4.1 2.4-3.4c1.2-1.9 7.6-7.6 14.1-12.7 19.4-15.4 22.3-18.6 22.3-25.2 0-8.1-10-21.6-19.2-26.2-5.4-2.7-9-3.1-14.5-1.5zm-3 30.2c3.9 3.4 8.5 7.2 10 8.4l2.8 2.1-3.3 2.6c-6.8 5.1-11.8 5.8-18.6 2.5-5.4-2.6-10.2-9-10.2-13.4 0-5 3.3-8.5 8.1-8.5 3.4 0 4.9.9 11.2 6.3zM230.5 379.7c-8.4 4.4-13.9 12.8-13.3 20.3.3 4.9 0 5.1-3.3 2.3-1.4-1.2-2-1-4.3 1.7-1.4 1.7-2.6 3.5-2.6 4 0 .4 14.3 11.9 31.7 25.5l31.7 24.8 3.4-3.9 3.4-3.9-3.3-2.5c-1.8-1.4-6.7-5.3-11.1-8.6l-7.8-6.1 4.7-1.4c9.4-2.6 16.4-14.1 14.9-24.6-1.3-9.9-9.7-20.2-20.9-25.8-5.9-3-8-3.5-13.6-3.5-4 .1-7.8.7-9.6 1.7zm17.8 10.5c4.9 2.5 13.4 10.3 15.4 14.1 2 4 1.9 11.1-.4 15-5.6 9.7-19.2 8.3-31.2-3.3-5-4.9-7.1-9.3-7.1-15 0-11.9 11.2-17 23.3-10.8zM1756.5 422.1c-6.2 3.9-7.7 3.9-9-.2-.8-2.4-1.4-2.4-4.9.4-2.8 2.3-2.9 2.5-1.3 4.8.9 1.3 1.7 2.6 1.7 3 0 .4-7.9 5.7-17.5 11.8-9.6 6.2-18.3 12.4-19.5 13.8-3.5 4.5-2.1 11.3 3.8 17.6l2.6 2.7 3.2-3.1 3.3-3.2-2.1-2.7c-1.1-1.5-1.8-3.6-1.6-4.6.2-1.1 7-6.2 16.8-12.5 18.2-11.9 16.1-11.4 21.1-4.7 1.6 2.2 1.5 2.2 7.7-1.8.2-.1-.9-2.1-2.4-4.4-1.7-2.5-2.4-4.4-1.7-4.8.5-.4 4.4-2.9 8.7-5.6 4.2-2.6 7.6-4.9 7.4-5.1-.2-.1-2.5-1.4-5.3-2.8l-5-2.5-6 3.9zM191.8 433c-6.8 3.7-14.9 16.5-16.4 25.8-.8 5 1.4 11.8 5 15.1l2.3 2.2 3.1-3.8c3-3.9 3-3.9 1.2-6.3-3.3-4.3-3.4-7.6-.5-13.6 3-6.1 7.9-10.4 11.9-10.4 3.5 0 8.6 2.7 8.6 4.5 0 .8-2.3 6.7-5.1 13.2-5.7 12.9-6.8 18.2-5 23.6 1.5 4.5 6.8 9.3 11.8 10.6 11.5 3.2 23.8-9.3 25.1-25.6l.5-6.1 3.2.5c3 .5 3.6.2 5.9-3.6 3.1-4.9 3.2-5.1.6-5.1-2.9 0-8.3-2.9-24.8-13.3-16.3-10.2-20.5-11.4-27.4-7.7zm31.2 23.7c5.5 6.1 4.8 15.7-1.5 23-2.8 3.2-3.8 3.8-7.5 3.8-3.2 0-4.7-.6-6.1-2.4-2.8-3.5-2.3-7.8 2.1-18.9 2.2-5.4 4-10.5 4-11.1 0-1.8 5.6 1.7 9 5.6zM1781.3 441.8c-2.4 1.5-4.3 3.1-4.3 3.6 0 1.5 4.1 7.6 5.1 7.6s8.9-5 8.9-5.7c0-.8-4.5-8.3-5-8.3-.3 0-2.4 1.3-4.7 2.8zM1743 466.1c-12.9 8.3-23.9 15.4-24.3 15.9-.8.7.6 4 3.2 7.9.7 1.1 5.9-1.8 25.5-14.3 13.5-8.7 24.6-16.2 24.6-16.7 0-1.1-4.3-7.9-5-7.9-.3 0-11.1 6.8-24 15.1zM160 480.4c-2.7 5.7-2.1 8.2 4.2 17 2.7 3.8 5.4 7.9 6 9.2 1.1 2.4.4 7.4-1.1 7.4-.5 0-5.6-2.7-11.3-6l-10.3-5.9-2.2 3.7c-1.3 2-2.3 4.1-2.3 4.7 0 .8 46.6 28.1 49.9 29.3 1.1.4 5.3-6.8 4.8-8.2-.3-.6-5.5-3.9-11.6-7.4-6.1-3.5-11.1-6.5-11.1-6.8 0-.2 1.5-1.3 3.3-2.4 2.7-1.7 5.1-2 15.7-2.1 6.9 0 13.4-.4 14.5-.8 1.3-.5 3.8.3 8.7 3.1 3.7 2.2 7.2 3.7 7.8 3.3.6-.3 1.7-1.9 2.5-3.5l1.5-2.9-10.7-6.1c-8.9-5.1-10.9-5.9-11.8-4.7-.7 1-4 1.6-11.5 1.9-7.1.3-11.5 1-13.7 2.1-4.2 2.2-4.3 2.2-4.3-1.2 0-1.7-1.4-4.9-3.5-7.7-6.4-9-6.8-10.1-5-13.6.8-1.7 1.4-3.2 1.3-3.3-.2-.1-1.4-.9-2.8-1.8-3.6-2.5-4.6-2.1-7 2.7zM1759.9 483.4c-10.1 4.1-16.8 9.7-20.6 17-7.4 14.6 2.4 34.7 18.8 38.6 6.4 1.6 11.6.7 19.8-3.2 17.7-8.4 24.4-23.3 17.2-38.3-6.9-14.5-20.8-20.1-35.2-14.1zm20.2 9.6c6.7 3.5 10.2 11.6 8 18.9-1.5 5.3-7.3 10.8-14.8 14.4-11.3 5.2-20.3 3.5-25-4.9-5.1-8.9-1.7-18.2 9.1-25.1 8.6-5.5 16.1-6.6 22.7-3.3zM136.1 531.2c-4.4 2.2-9.1 7.6-11.8 13.8-2.4 5.4-2.2 15.6.4 20.6 5.3 10 21.5 19.4 33.4 19.4 9.2 0 18.9-6.8 22.9-16.3 3.3-7.5 2.6-17-1.6-22.8-1.7-2.4-4.1-4.9-5.2-5.7-1.9-1.3-2.3-1-4.8 2.7l-2.7 4.1 2.6 2c3.9 3.1 6 9.3 4.7 14-2.2 8.1-9.1 12.8-17.1 11.7-5.7-.8-16-5.9-20.2-10.1-6.7-6.7-6.9-16.1-.5-22.3 2.3-2.2 4.2-2.9 8.5-3.3 5.5-.5 5.6-.6 6.9-4.4.8-2.1 1.1-4.2.8-4.7-1.1-1.8-11.8-1-16.3 1.3zM1789 546.6c-14 6.3-25.8 11.8-26.3 12.3-.6.6 1.3 6.4 3 9 .1.2 8-3.1 17.4-7.3 19.3-8.7 24.5-9.9 29.7-6.7 6.8 4.3 9.4 14 5.2 19.4-1.3 1.6-8.9 5.6-21.4 11.2l-19.3 8.8 1.5 3.9c.9 2.2 2.1 4.2 2.7 4.5.7.2 9.9-3.5 20.6-8.3 15.1-6.8 20.3-9.7 23.7-13 4-4 4.2-4.4 4.2-10.2 0-10.2-4.2-17.6-12.2-21.6l-4.9-2.5 3-1.6c1.7-.8 3.1-1.7 3.1-2 0-1-3.4-7.5-3.9-7.5-.3 0-12.1 5.2-26.1 11.6zM107.5 590.1c-4.1 3.2-5.1 4.5-8.4 10.9-6.9 13.3-6 26 2.4 32.4l3.3 2.5 2.3-4.3 2.3-4.4-3.2-3.6c-3.6-4.2-4-7-1.6-13.9 2.3-6.8 6.3-10.7 10.9-10.7 4.8 0 7.5 1.5 7.5 4.3 0 1.2-1.2 6.9-2.6 12.7-3.3 13.4-3 20.2 1 25.5 4.7 6.1 14 8.4 20.5 5 7.4-3.8 12.6-15.1 11.8-25.5-.3-3.6-.8-7.2-1.1-8-.5-1.3.1-1.5 3.1-1.2 3.6.3 3.9.2 5.2-3.5.8-2.1 1.6-4.4 1.8-5.1.4-.8-.7-1.2-3.7-1.2-2.7 0-10-2.3-21.3-6.6-20-7.8-25.7-8.8-30.2-5.3zm32.3 18.1c5.6 3.5 8 10.6 6.1 18.2-2.4 9.7-10.8 13.8-16.4 8.1-3.1-3-3.1-4.2-.3-18.6l2.2-11.7 2.5 1c1.4.5 4.1 1.8 5.9 3zM1795 632.7c0 .5.7 3 1.6 5.5 1.8 5.5 2.8 5.8 17.8 5.8h10.1l5.4 15.4c2.9 8.5 5.1 15.9 5 16.4-.2.5-4.8 4.6-10.1 9.1l-9.7 8.1 1.6 4.7c.9 2.7 1.9 5.2 2.3 5.6.7.8 11.5-8.3 52.7-44l14.2-12.3-1.8-5.3c-1.8-5.2-1.8-5.2-6.7-5.8-2.7-.4-20-1.2-38.4-1.8-18.4-.6-35.9-1.4-38.7-1.7-2.9-.3-5.3-.1-5.3.3zm72.5 17.2c-3.8 3-10.7 8.5-15.2 12.3-4.5 3.7-8.6 6.8-9 6.8-.5 0-2.7-5.6-5-12.4l-4.1-12.4 20.2.2 20.1.1-7 5.4zM60.1 643.8c-1.4 2.7-16.3 48.3-16 48.6 1.5 1.2 76.5 25.4 77 24.8.4-.4 3.4-9.1 6.8-19.3 6.6-20.1 7.4-25.9 4.5-32.7-5.6-13.5-24.6-18.6-35.4-9.5-4.4 3.7-7.6 9.6-11.9 22.4-2.1 6.3-4.2 12.1-4.6 13.1-.6 1.4-1.8 1.2-11.3-1.9-5.9-2-11.1-3.9-11.6-4.3-.4-.5 2.1-9.6 5.7-20.4l6.5-19.5-4.4-1.5c-4-1.4-4.5-1.3-5.3.2zm56.4 20.6c4.1 1.8 7.5 6.9 7.5 11.4s-7.8 28.2-9.3 28.2c-.7 0-6.7-1.8-13.4-4.1l-12.2-4 4-11.7c4.4-12.7 7.8-18.8 11.2-20.2 3.3-1.3 8.4-1.2 12.2.4zM1851.1 699.5c-14 3.1-22.7 10-25.7 20.3-3.5 11.9 3.1 26.2 14.2 30.8 1.9.8 5.7 1.4 8.5 1.4h5.2l-.7-3.8c-.3-2-.6-4.3-.6-5 0-.8-1.6-1.2-4.6-1.2-6 0-10-2.4-12.5-7.8-2.5-5.1-2.2-11 .8-15.1 1-1.4 4.9-4.1 8.7-6 5.5-2.8 8.1-3.5 14.4-3.8 6.5-.4 8.2-.1 11 1.6 4.7 3 7.2 7.7 7.2 13.5 0 4.3-.4 5.3-3.8 8.6l-3.8 3.8 1.8 4.1c.9 2.3 2.2 4.1 2.7 4.1 2 0 8.2-6.3 10.3-10.4 4.1-7.9.7-22.6-6.9-29.8-6-5.7-15.7-7.7-26.2-5.3zM1875.3 760.1c.4 1.3.7 3.6.7 5.1 0 2.2.5 2.8 2 2.8 3.5 0 7.9 2.9 9.7 6.3 1.1 2.1 1.7 5.5 1.8 9.8 0 7.7-1.5 10.1-7.3 12-4.5 1.5-5.1.8-9.3-12-5.2-15.8-7.7-19.4-15.3-22.6-6.8-2.9-15.6.2-19.6 6.7-1.5 2.5-2 5.1-2 10.3 0 8.1 2.6 14.7 8.1 21 1.9 2.1 2.9 4 2.3 4.2-3.8 1.3-4.6 2.9-3.9 8.1l.7 5.1 3.6-1.9c3.7-2 8.5-3.2 30.4-7.3 8.2-1.6 13.7-3.2 15.6-4.6 5.9-4.1 7.7-14 4.6-25.6-3.1-12-8.9-18.2-18.1-19.3-4.5-.5-4.6-.4-4 1.9zm-18.4 12.3c2.8 1.5 3.6 2.9 9.4 17.7l3.3 8.7-5.5.6c-4.5.5-6.2.3-10-1.6-10.2-5.1-13.4-21.3-5.1-25.5 3.2-1.6 4.5-1.6 7.9.1zM72.7 763.7c-1.5 3.9-1.6 5-.5 5.6.7.4 3 1.8 5.1 3.1l3.8 2.2-9.6 5.2c-5.3 2.9-10 5.2-10.4 5.2-.4 0-1.8-2.2-3.1-4.9-3.9-8.5-10.1-13.1-17.5-13.1-10 0-17.5 8.3-17.5 19.4 0 6.6 1.2 10.2 4.8 13.9 6 6.3 13.1 7.4 22 3.2 3-1.4 5.7-2.5 6.1-2.5.3 0 1.9 2.9 3.5 6.5 5.6 12.8 16.1 18.6 27.7 15.2 11.3-3.4 18.1-12.9 18.1-25.7.1-5.9-.4-8-3-13.3l-3.2-6.2 2.3-1.8c7.5-5.9 9.7-7.9 9.7-9 0-.7-1.4-2.7-3.1-4.6l-3.1-3.3-2.6 2.5c-1.5 1.3-4.6 3.7-6.9 5.1l-4.1 2.7-4.9-3.4c-4.2-3-10.6-6.7-11.5-6.7-.2 0-1.2 2.1-2.1 4.7zm-28.4 14.7c3.3 1.3 5.9 4.5 7.7 9 .8 2.2.5 2.7-2.4 4.4-6 3.5-10.2 4.5-13.3 3-6.4-3.1-7-12.2-1-15.8 3.8-2.4 4.8-2.4 9-.6zm49.8 11.1c2.3 4.9 2.4 11.6.4 15.5-1.9 3.6-8.4 7.1-13.4 7.2-6.9.1-11.9-3.9-15.4-12.4l-1.6-3.8 8.7-4.6c4.8-2.6 10.5-5.8 12.7-7 4.6-2.7 5.1-2.4 8.6 5.1zM1870.1 821c-21.3 4.5-31.3 26.8-18 40.1l3.9 3.9h-3c-2.8 0-3 .2-3 3.7 0 2.1.4 4.4.9 5.1.6 1 8.6.3 40.7-3.8 21.9-2.8 39.9-5.2 39.9-5.3.1-.1 0-2.3-.3-5-.5-5.5.6-5.3-15.6-3.1-6.5.8-12 1.3-12.3 1.1-.2-.3.5-2 1.6-3.8 4.2-7.3 3.5-16.3-1.9-23.8-5.6-7.7-20.2-11.8-32.9-9.1zm20.2 11.4c5 2.1 7.9 5.9 8.4 11 1.3 11.6-8.4 18.7-25.6 18.8-10.9.1-17-4.4-17.9-13.1-.7-8 3.8-13.7 13.3-16.7 5.4-1.7 17.8-1.7 21.8 0zM42.5 868.9c-5.8 2.6-9.5 10.3-10.2 21.1-.9 12.6 2.6 20.6 10.9 25 2.6 1.3 4.9 2.2 5.2 1.9.3-.3.9-2.6 1.2-5.2.6-4.3.5-4.7-1.8-5.6-1.4-.5-3.5-2.2-4.8-3.8-1.9-2.5-2.1-3.7-1.8-10.6.3-7.4.5-8.1 3.6-10.8 2.4-2.1 4.2-2.9 7.1-2.9 4.7 0 4.8.3 5.7 14.5.8 14.1 2.5 19.5 7.3 23.8 9.6 8.6 23.7 4.3 27.1-8.3 1.9-6.8.8-16.9-2.4-22.6-1.4-2.6-2.5-4.8-2.4-4.9.2-.1 1.7-.7 3.3-1.2 2.8-.9 3-1.4 3.3-6.2l.3-5.2-2.8.8c-3.4 1-8.6 1-30.3 0-9.4-.4-17.4-.3-18.5.2zM77 881.8c6.7 3.3 10.3 15.9 6.5 23.2-2.7 5.3-8.3 6.5-12.8 3-2.9-2.3-3.3-3.7-4.7-16.7-.5-5-1.3-9.9-1.7-10.9-.5-1.5-.1-1.6 4.3-1 2.7.4 6.5 1.5 8.4 2.4zM1856.7 893.7l-4.7.4.6 5.7c.4 3.1.7 5.8.8 5.9.1.1 2.8-.1 6-.4 5.2-.5 5.7-.8 5.2-2.7-.3-1.2-.6-3.8-.6-5.9 0-2.4-.4-3.6-1.2-3.5-.7.1-3.4.3-6.1.5zM32.2 933.4c.6 7.1 2.1 8.7 12.9 14.1 9.2 4.7 10.4 5.7 11.4 9.6l.7 2.7-13.1-.6-13.1-.5v10.1l8.3.6c4.5.3 17.8.8 29.5 1.1l21.2.5v-4.9c0-3.5-.4-5.1-1.6-5.5-.9-.3-7-.6-13.5-.6-12 0-12 0-11.3-2.3 1.1-3.8 3.5-5.6 15.6-12.5l11.8-6.6v-5.3c0-2.9-.2-5.3-.5-5.3-2.2 0-24 13.8-26.9 17l-3.5 3.9-1.8-2.5c-1-1.4-5.2-4.2-9.3-6.2-7.2-3.6-7.5-3.9-8-7.7-.5-3.9-.6-4-4.9-4.3l-4.4-.3.5 5.5zM1870 952.5c-6.1 1.9-11.5 6.7-14.7 12.9-2.2 4.2-2.7 6.4-2.7 12.6 0 8.8 2.2 14.6 7.5 19.9 5.9 6 10.9 7.6 23.4 7.6 10.1 0 11.4-.2 16.1-2.7 12-6.3 17-19.5 12.8-33.7-2.1-7.2-8.9-14-16.3-16.4-6.5-2.1-19.7-2.2-26.1-.2zm26.4 11.8c5.8 3.2 8.6 7.8 8.6 14.2 0 10.4-7.7 16.7-20.5 16.7-15.4 0-23.5-5.9-23.5-17.2 0-7.5 4.8-13.4 12.7-15.6 6.6-1.9 17.5-1 22.7 1.9zM56.4 988.2c.3 2.9.6 9.9.6 15.5v10.3h10v-31H55.7l.7 5.2zM81.7 1022.6c-10.5 7.5-16.7 13.5-16.7 16.3 0 .9-1.1.3-3.1-1.7-1.6-1.7-5.1-3.9-7.7-4.8-11.5-4.2-11.2-4-11.2-7.8 0-3.6 0-3.6-4.5-3.6-4 0-4.5.2-4.5 2.2 0 3.9 1.9 9.4 3.9 11.2 1.1 1 6.1 3.3 11.2 5.2 10.5 3.9 11.5 4.5 12.2 7.9.5 3 .4 3.1-14.3 4.2l-10.5.8.4 4.5c.1 2.5.5 4.7.7 4.9.5.5 47-2.6 54.2-3.5l4.2-.6v-10l-9.7.6c-5.4.4-11.8 1-14.2 1.3l-4.4.6.7-2.9c1-4.1 2.7-5.6 14.9-14.2l10.7-7.5-.6-5.1c-.4-2.8-.8-5.2-.9-5.3-.1-.2-5 3.1-10.8 7.3zM1903.4 1019c-.8 4.7 1.3 4.5-23.9 2.5-9.9-.8-20.1-1.5-22.6-1.5h-4.6l-.6 4.2c-.3 2.4-.3 4.6.1 5 .4.3 11.8 1.5 25.5 2.4l24.7 1.8v11.6h8v-11.3l5.3.7c6.9.9 9 3.2 8.5 10l-.3 5 3.9.9c5 1.2 5.6.3 5.6-9.5 0-7.2-.2-8-3-11.2-3.1-3.5-9.1-5.6-16.2-5.6h-3l.6-4.5.7-4.5h-4c-4 0-4.1.1-4.7 4zM52.1 1079c-16.1 4.3-25.9 13.4-29.6 27.5-2.7 10.2 0 23.3 6.5 32.3 3.3 4.7 10.3 9.1 16.9 10.8 5.5 1.4 6.1.8 6.1-5.9 0-4.2-.2-4.7-2.2-4.7-3.7-.1-10.2-3.5-13.1-6.9-1.4-1.8-3.3-5.5-4.2-8.3-3.1-10.5-1.4-18.2 5.4-24.9 4.1-4.1 13.4-9 14.6-7.7.3.3 1.7 6.7 3.1 14.4 1.4 7.6 2.6 13.9 2.7 14 .3.3 8.7-1.3 9.1-1.7.2-.2-.7-6.3-2-13.4-3.2-17.4-3.3-16.5 2.1-16.5 16.5 0 27.1 8.8 28.3 23.6.6 8.5-2.7 15.8-9.4 20.3-2.5 1.6-5.1 3.2-5.7 3.4-1.6.5 2.8 9.7 4.6 9.7 2.4 0 12.2-7.7 15.2-11.9 3.1-4.5 5.5-12.5 5.5-18.1 0-5.6-2.8-15.9-5.7-21.2-3.3-6.1-8.1-10.3-15.2-13.6-7.7-3.6-22.4-4.1-33-1.2zM1846 1081.4c0 .2-2.2 12.8-5 28-2.7 15.2-5 28.4-5 29.5 0 1.4 1 2 4.1 2.5 2.3.4 4.4.4 4.7.1.3-.3 2.5-11.2 4.8-24.2 2.4-13.1 4.4-23.8 4.4-23.9 0-.1 26.4 4.7 26.6 4.9.1.1-1.5 9.9-3.7 21.6-4 22.1-4 23 .1 23.1.8 0 2.4.3 3.6.6 2 .5 2.2-.5 5.9-21.3 2.1-12 4-21.9 4.1-22.1.1-.2 23.7 3.8 24.1 4.1.1.1-1.6 9.9-3.8 21.7-2.1 11.8-3.9 22.4-3.9 23.6 0 1.8.8 2.2 4.2 2.7 2.4.3 4.5.2 4.8-.3.9-1.5 10.3-56 9.8-56.6-.6-.5-75.9-14.4-78.5-14.4-.7 0-1.3.2-1.3.4zM107.8 1156.2c-5.3 1.1-5.4 1.5-3.7 8.4.9 3.3 1.6 4.4 2.6 4 .8-.4 3.2-.9 5.4-1.2 2.4-.4 3.9-1.2 3.9-2.1 0-2.5-2.2-10.3-2.9-10.2-.3.1-2.7.6-5.3 1.1zM1845.5 1156.7c-13.4 3-21.5 12.8-21.5 26.2 0 5 .6 7.4 2.7 11.3 2.6 4.8 9.6 10.8 12.6 10.8.8 0 1.9-1.9 2.7-4.2 1.1-3.8 1-4.4-.5-5.3-9.4-5.5-11.7-13.4-6.4-22.1 3.7-6.1 13.2-8 24.4-5 15.1 4 20.6 13.3 14.8 24.9-1.4 2.8-5.3 5.1-10.5 6.2-2.6.5-2.8.9-2.8 5.6v5.1l4.3-.7c12.4-2.1 19.7-11.7 19.7-25.9-.1-10.7-5.3-18.1-16.5-23.2-6.9-3.2-17.7-4.9-23-3.7zM122.2 1178.3l-10.4 3 .6 3.2.6 3.1-23.7 6.7c-13 3.7-23.8 6.9-24 7.1-.6.6.7 7 1.7 8.5.6 1 5.9-.2 24-5.3 12.8-3.7 23.8-6.5 24.5-6.3 1.3.5 8.2 24.4 7.3 25.3-.3.3-11.1 3.5-24 7.1-12.8 3.6-23.4 6.7-23.6 6.8-.7.6 2.1 9.5 3 9.5 1.2 0 55.2-15.1 55.7-15.7.4-.3-10-38.7-11.5-42.7-.3-.9 1.8-2 7.6-3.6 6.3-1.8 7.9-2.6 7.6-3.9-2-7.3-1-7.1-15.4-2.8zM1822 1214.7c-10.3 5.5-16.5 18.8-14 30.6 1.3 6.5 5.5 12.7 10.7 16 11.4 7.2 26.7 9.3 34.9 5 6.1-3.3 12.1-10.6 14-17.1 5.7-19.6-8.2-35.9-31.6-37-7.8-.4-8.9-.2-14 2.5zm21.4 9.3c7 2.2 12.7 6.4 15.2 11.1 3.5 6.9.3 16.9-6.6 20.8-10.7 6-31.8-1.7-35.1-12.9-3.1-10.3 4.8-20.8 15.7-21 2.3 0 7.2.9 10.8 2zM136.5 1245c-1 1.6-9 5.4-23 11-17.1 6.8-20.2 8.5-22.5 12.3-2.6 4.1-2.6 11.7-.1 18.9 4.6 13.4 12.7 20.8 22.7 20.8h4.7l-.7-4.2c-.9-5.5-1.2-5.8-4.9-5.8-7.3 0-13.8-8.2-14-17.7 0-4 .4-5 3.2-7.5 5.2-4.7 6.8-3.7 13.8 8.2 3.4 5.8 7.8 12.1 9.7 14.1 11.3 11.6 29.7 3.5 28.4-12.7-.7-7.9-5-15.8-11.4-20.8l-5.4-4.1 2.6-2.1 2.7-2.2-1.8-4.6c-1.8-4.6-2.8-5.5-4-3.6zm-.9 20.5c3 1.8 4.9 4 6.8 7.7 3.4 6.9 3.3 10.2-.3 13.9-5.2 5.2-10.8 3.2-16-5.8-1.9-3.2-5-7.9-6.8-10.5l-3.3-4.6 4.2-1.5c6.3-2.3 10.6-2 15.4.8zM1795.1 1271.7c-.8 2.1-1.6 4.3-1.8 4.9-.2.6 7.3 4 17.2 7.9 20.7 8 24.4 10.6 25.2 17.6 1.1 9.4-3.4 15.9-10.9 15.9-2.5 0-10.5-2.6-22.1-7.1-10-3.9-18.5-7.3-19-7.6-.8-.5-5.2 8.6-4.5 9.2.2.3 9.7 4 21 8.5 21.8 8.5 27 9.5 32.7 6.5 7-3.6 11.6-13 10.9-22.2-.3-3.2-.9-6.7-1.3-7.7-.7-1.6-.5-1.8 1.1-1.2 4.6 1.9 5 1.8 6.4-2.3.7-2.3 1.1-4.3.9-4.5-.3-.4-53.8-21.6-54.3-21.6-.1 0-.8 1.7-1.5 3.7zM145.4 1306.9c-4.9 2.2-8.1 6.1-9 10.7-.5 2.9-.9 3.2-2.4 2.4-1-.6-3.9-1-6.3-1-8.5 0-15.2 7.4-14.4 16 .3 3.9 12.1 33 13.4 33 .9 0 51.9-23.2 52.7-24 .9-.9-9-23.5-13.6-30.6-1.9-3-4.2-5.1-7.1-6.4-5.3-2.4-8.1-2.5-13.3-.1zm14.5 13.7c3.1 4.8 8.7 17.2 8 17.7-1.1.8-15.2 6.8-15.4 6.5-.8-.9-7.3-16.7-7.9-19.1-.7-2.9 1.4-8.1 3.6-9 .7-.3 3-.6 5.1-.6 3.4-.1 4 .3 6.6 4.5zm-24.1 10.6c1.1 1.3 3.7 5.7 5.7 9.8l3.6 7.5-7.2 3.3c-4 1.8-7.6 2.9-8 2.5-1.9-1.9-6.9-15.5-6.9-18.7 0-6.2 8.3-9.1 12.8-4.4zM1768.5 1333.3l-2.4 5.2 4.2 2.2c2.3 1.2 4.7 2.2 5.4 2.3 1 0 5.3-8.1 5.3-9.9 0-.3-2.3-1.6-5.1-2.8l-5-2.2-2.4 5.2zM168.5 1365.7c-16.6 6-25.7 16.4-25.6 29.4 0 11 7.9 22.7 17.6 26.5 10.3 3.9 25.5-.7 35.4-10.6 6.4-6.3 8.5-12 7.9-20.3-1.5-18.3-19.1-30.8-35.3-25zm21.7 14.2c8.8 9.3 4.9 21.5-9.4 29.2-7.9 4.2-16.8 4.7-21.4 1.3-10.1-7.5-9.7-20.8.9-28.5 11.9-8.8 22.7-9.5 29.9-2zM1742.2 1390.6c-10.2 5.1-15.9 16.1-14.9 29l.5 7.3-6.8 2c-3.8 1.2-7.2 2.6-7.5 3.1-.6 1 2.3 10 3.2 10 .2 0 1.3-.4 2.3-1 1-.5 4.6-1.6 8-2.4l6.1-1.4 2.3 3.6c1.3 2 3.9 5.5 5.8 7.6l3.4 4 3.6-3.9 3.6-3.9-3.6-4.3c-1.9-2.4-3.3-4.5-3.1-4.7.3-.3 19.6-3.6 21.2-3.6.2 0 .8 2.6 1.2 5.7 1.9 15.1 12.8 23 24.8 17.9 8.4-3.5 13.9-14.9 11.6-24-2.4-9.5-10.6-14.4-21.9-13.1l-5.7.7-.5-7.4c-.5-8.1-2.8-13.6-7.5-18-6.6-6.3-17.2-7.6-26.1-3.2zm16.8 10.2c4.5 2.3 7.1 6.9 7.7 14.1l.6 5.9-6.4 1c-16.5 2.8-22 3.4-22.6 2.8-.4-.4-.9-3.8-1.1-7.6-.4-5.7 0-7.5 1.8-10.9 3.9-6.8 12.5-9.1 20-5.3zm34.2 31.2c2.6 2.7 3 3.6 2.5 6.8-.8 4.5-4.7 8.2-8.8 8.2-6.2 0-10.9-5.8-10.9-13.4 0-3.8.7-4.1 9.8-4.5 3.6-.1 4.9.4 7.4 2.9zM193.7 1427.4c-13 8.4-24 15.5-24.3 15.9-.3.3.7 2.4 2.2 4.6l2.7 4.1 3.6-2.2c2-1.2 6.5-4.1 10.1-6.4 4.9-3.2 6.8-4 7.6-3.1 1.7 1.7 13.4 20.5 13.4 21.4 0 .4-4.5 3.6-10 7.1l-9.9 6.4 2.3 3.6c1.3 2 3 3.7 3.8 3.7 1.7 0 48.7-29.7 48.8-30.8 0-1.1-4.4-7.7-5.3-7.7-.4 0-5.5 3-11.3 6.7-8.5 5.3-10.8 6.4-11.4 5.2-.5-.8-3.8-5.9-7.3-11.4l-6.5-10 9.6-6.3c5.4-3.5 10.3-6.7 11.1-7.1 1-.6.8-1.7-1.4-5-1.5-2.2-3-4.1-3.4-4-.3 0-11.3 6.9-24.4 15.3zM228.8 1483.2l-22.8 18.1 3.1 3.9c3.6 4.5 2.2 4.9 14.8-4.9l7.9-6.2 8.1 10.4c4.5 5.7 8.1 10.7 8.1 11.2-.1.4-2.6 2.7-5.8 5.1-3.1 2.3-7.3 5.6-9.2 7.1l-3.4 2.9 2.8 3.7c1.6 2.1 3.4 3.4 4.2 3.1 1-.4 41.3-31.6 44.8-34.7.9-.8-4.1-7.9-5.6-7.9-.6 0-4.9 3.1-9.7 6.8-4.7 3.8-9.1 7.2-9.8 7.5-.7.5-4.2-3.2-9.2-9.5-4.5-5.7-8.1-10.6-8.1-10.9 0-.4 4.5-4.1 10-8.4l10-7.7-3.1-3.9c-1.7-2.2-3.4-3.9-3.7-3.8-.4 0-10.9 8.2-23.4 18.1zM1682.4 1477.1c-2.5 3.6-2.6 4.3-1.3 5.3 12.6 9.4 49.9 38.9 49.6 39.2-.3.4-44.2-14.6-60.3-20.6l-5.2-1.9-3.1 3.9-3.2 4 15.7 24.2c23 35.6 22.9 35.4 21.3 34.2-.8-.6-12.6-9.8-26.3-20.4l-24.9-19.4-3.3 3.9c-2.6 3.1-3.1 4.3-2.1 5.2.7.6 15.1 12 32.1 25.2l30.9 24 4.4-5.5c2.3-3.1 4.3-5.8 4.3-6.1 0-.2-8.8-13.9-19.5-30.5-12-18.5-18.9-29.9-17.8-29.6 1 .3 15.9 5.5 33.2 11.7 17.2 6.1 31.9 11.1 32.6 11.1 1.1 0 11-11.9 10.3-12.5-1.6-1.6-63.4-49.5-63.9-49.5-.4 0-1.9 1.8-3.5 4.1zM261.8 1541.8c-16.3 14.1-29.9 25.9-30.2 26.2-.3.3 1.2 2.4 3.2 4.7l3.7 4.2 35.5-4.4c19.5-2.5 36.5-4.5 37.8-4.5 1.7 0-3.9 5.3-21 20.1-12.8 11-23.4 20.6-23.6 21.3-.1.6 1.1 2.5 2.7 4l3 2.9 3.1-2.4c10-7.9 57.9-49.6 57.9-50.4.1-.6-1.6-2.7-3.6-4.6l-3.8-3.6-35 4.3c-19.2 2.4-36 4.3-37.2 4.1-1.8-.1 2.5-4.3 19.8-19.2 12.1-10.5 22.7-19.5 23.6-20.2 1.3-1 1.1-1.6-1.4-4.7-1.5-2-3.2-3.6-3.8-3.5-.5 0-14.4 11.6-30.7 25.7zM905 1547.5c-4.7.7-13.9 2.7-20.5 4.5l-12 3.2-3.4 7.9-3.3 7.9H842v78.1c0 74-.1 78.1-1.7 77.4-9-3.8-36.5-10.5-55.8-13.5-6.6-1.1-16.3-2.8-21.5-3.9-19.5-4.1-45.2-7-82.5-9.5-31.5-2.1-63.5-3.6-78.6-3.6h-12.6l-.7 3.1c-1.2 6.2-1.1 6.4 8.7 10.2 11.4 4.5 19.5 9.2 36 20.9 21.8 15.3 35.9 21.6 60.7 27.1 6.3 1.5 32.2 5.6 57.5 9.2 49.8 7.1 53.6 7.9 94.2 19.1 50.9 14 81 25.5 108.3 41.4 17.8 10.4 18.4 10.4 34.7.7 27.9-16.6 56.2-27.3 112.3-42.7 40-11 40.9-11.2 92.9-18.6 49.1-7 62.7-9.6 78.5-15.1 13.3-4.5 22.1-9.4 39.3-21.4 15-10.6 28.7-18.2 39.1-22 6.2-2.2 6.4-2.3 5.8-5.2-.3-1.6-.6-3.9-.6-5 0-2-.3-2-25.2-1.4-65.4 1.7-127.3 7.3-157.3 14.2-3.3.8-12.1 2.4-19.5 3.5-15.8 2.5-39.9 8.5-51.9 12.9-4.7 1.7-8.6 3.1-8.8 3.1-.2 0-.3-35.7-.3-79.4v-79.3l-3.7-.6c-2.1-.3-7-.9-10.9-1.3-4-.3-7.6-.9-8.2-1.3-.5-.3-2.3-3.3-4-6.6l-3-6.1-13.4-3.6c-14.5-4-27-5.8-39.4-5.8-18 0-34.1 7.2-42.1 18.9-.2.2-2.1-1.7-4.4-4.2-4.7-5.4-15.1-11.1-24.3-13.2-7.2-1.7-22.6-1.7-34.6 0zm38.5 11.5c9.1 2.1 11.5 3.9 15.4 11.4l3.6 6.9.3 55.4c.1 30.5-.1 55.3-.5 55.1-.4-.2-3.1-1.5-5.9-3-9.2-4.9-15.4-6-35.9-6.4-15.9-.4-20.4-.2-27.8 1.4-6.1 1.3-9 1.5-9.3.8-.2-.6-.3-27.6-.2-60.1l.3-59 10-1.2c5.5-.6 12.5-1.6 15.5-2.2 6.7-1.2 27.6-.7 34.5.9zm84.5-.5c4.7.8 12 1.8 16.3 2.1l7.7.7v119.9l-2.3-.6c-9.7-2.4-14.5-2.7-35.4-2.4-22.5.3-22.9.3-28.8 3.1-3.2 1.5-7.4 3.9-9.1 5.2-1.8 1.4-3.5 2.5-3.9 2.5-.3 0-.5-24.6-.3-54.8l.3-54.7 2.4-5.2c4-9 11.6-14.2 23.6-16.2 8.1-1.4 20.4-1.2 29.5.4zm-157.2 132.1l-3.3 6.9-.3-54.5-.3-54.5 3.3-6.2 3.3-6.3.3 53.8.2 53.9-3.2 6.9zm199.1-48.6l.1 53.5-3-5.2-3-5.2v-53.8l.1-53.8 2.9 5.5 2.9 5.5v53.5zm-212.4-59c-1.3 2.5-1.5 11.8-1.5 69.5v66.5l4.3-.1c2.3 0 23.5-1 47.1-2.2l43-2.2 4.5 2.3c4.1 2.1 5.7 2.3 14.6 2 7.6-.2 11-.8 14.1-2.3l4-2.1 42 2.3c23 1.2 43.8 2.2 46.2 2.2l4.2.1v-66.3c-.1-55.5-.3-66.6-1.5-68.7-2.1-3.6-1.9-4 2-4h3.5v145h-2.2c-1.3 0-22.8-1.8-47.8-4.2l-45.5-4.2-7 3.4c-9.3 4.5-14.3 4.5-25.5 0l-8.5-3.4-45 4.3c-24.7 2.3-45.8 4.1-46.7 4.1-1.7 0-1.8-4.1-1.8-72.5V1580h2.5c2.5 0 2.5.1 1 3zm87.9 107c7.5 2.9 13 7.8 15 13.6 1.6 4.7 1.1 4.9-3.1 1.1l-2.2-2-38.8 3.2c-21.4 1.7-39.6 3.1-40.5 3.1-1.5 0-1.1-1.4 2.4-8.5 3.7-7.4 4.6-8.6 7.3-9 1.6-.3 8.4-1.4 15-2.4 16.5-2.7 36.4-2.3 44.9.9zm90.6-.6c18.7 3.1 18.6 3.1 23.5 11.9 3.5 6.2 4.1 7.7 2.7 7.7-.9 0-19.1-1.4-40.4-3.1l-38.7-3.2-3 3.2c-5.7 6.1-9.2 3.1-5.2-4.7 3.6-6.9 10.5-11.3 21.2-13.1 7.6-1.3 28.6-.7 39.9 1.3zm-369.5 19.7c40.2 2.4 75.6 6.2 93.5 10 5.2 1.1 17.2 3.3 26.5 4.8 35.2 6 55.6 12.7 94.5 31 31.3 14.8 46.7 25 65.4 43 8.2 8 15.7 17 19 22.8.4.7-2.8-.8-7.1-3.4-24.5-14.6-60.3-28.2-109.8-41.8-39.3-10.9-46.1-12.3-90-18.5-51.8-7.5-57.3-8.4-71.1-12-16.2-4.3-27.1-9.3-41.3-18.8-6.9-4.7-16.2-11-20.6-14l-8-5.4 16.5.6c9.1.4 23.7 1.1 32.5 1.7zm655.5 1.2c-3 1.9-10.2 6.7-16 10.8-17.8 12.7-26.2 17.1-42.7 22.3-12.6 3.9-24 6-73.3 13.1-51.9 7.4-52.3 7.5-92 18.4-54.6 15.1-87.4 27.5-113.9 43.2l-5.4 3.3 3-4.5c4.2-6.1 13.5-16.3 21.3-23.5 15.2-13.9 29.5-23.3 54.7-35.7 40.5-20 62.8-27.5 99.5-33.7 9.5-1.6 20.2-3.6 23.8-4.4 16.4-3.8 59.5-8.5 98-10.6 10.7-.6 21.8-1.2 24.5-1.3 2.8-.2 9.3-.4 14.5-.5l9.5-.2-5.5 3.3zm-369.3 20.1c15.2 5.3 18.6 5.3 33.1-.2l5.2-2 43.3 2.9c23.7 1.6 44.6 2.9 46.2 2.9 2.4 0 1.4.8-5.5 3.9-13.3 6-40.2 19.6-47.7 24.2-17.1 10.4-40.4 30.6-49.8 43.1-2.4 3.2-4.7 5.9-5 5.9-.3 0-3.2-3.3-6.4-7.4-11.2-13.8-30.1-30-48.1-41.1-10.2-6.4-26.3-14.5-44.5-22.7-7.1-3.3-12.8-5.9-12.5-6 .3 0 18.7-1.3 41-2.9 22.3-1.5 41.3-2.8 42.2-2.9.9 0 4.7 1 8.5 2.3z"/><path d="M901.7 1575.1c-6.7 1.6-11.7 5.1-11.7 8.3 0 1.2 4.8.5 5.9-.8 2.3-2.7 10.3-4.1 23.1-4 14.4.1 24.6 2.2 30.3 6.1 4.2 2.9 5.2 2.6 4.3-1.1-1.4-5.7-16.4-9.7-35.8-9.5-6.8.1-14 .5-16.1 1zM904.2 1609.1c-5.8 1.1-11.2 3.9-13 6.6-1.3 2-1.2 2.3.3 2.9 1 .4 2.5.2 3.4-.4 6.6-4.7 17.1-6.3 33.1-5 10.4.8 17.2 2.8 22.1 6.4 3.4 2.5 3.4 2.5 3.7.4 1.1-6.9-14.6-12.1-35.8-11.9-5.2.1-11.5.5-13.8 1zM906.5 1642.6c-8.7 1.4-16.5 5.9-16.5 9.5 0 1.6 4.1.9 6.2-1.1 3.4-3.1 11.9-4.3 26.3-3.7 13.5.6 22.4 2.5 26 5.6 1.1 1 2.8 2.1 3.8 2.4 1.5.6 1.8.2 1.5-2-.4-3.8-5.3-6.8-14.1-8.8-7.1-1.6-27.5-2.8-33.2-1.9zM990.7 1575.1c-6.7 1.6-11.7 5.1-11.7 8.3 0 1.2 4.8.5 5.9-.8 2.2-2.6 10.3-4.1 22.6-4 14.3 0 26.1 2.4 30.4 6 3.5 2.9 5.1 3.1 5.1.5 0-6.6-15-11.2-36.2-11-6.8.1-14 .5-16.1 1zM991.5 1610.3c-6.3 1.7-11.1 4.2-11.9 6.2-1 2.6 2.1 2.8 6.8.5 6.2-3 20.5-4.3 32.6-3 11.8 1.2 15.6 2.3 20 5.5l3.5 2.6.3-2.3c.5-3-3.4-6.3-10.1-8.4-7-2.2-34.1-2.9-41.2-1.1zM993.5 1640.7c-7.2 1.6-9.5 2.6-11.9 4.8-1.4 1.3-2.6 2.9-2.6 3.5 0 1.3 4.7 1.3 5.5-.1 2.2-3.4 18.1-5.4 31.6-3.9 11.7 1.3 17.3 3.1 20.5 6.5 2.8 3 4.4 3.2 4.4.6 0-5.3-4.8-8.4-16.7-10.7-6.9-1.3-26.2-1.8-30.8-.7zM1621.3 1550.5c-7.3 3.1-14.7 13.7-15.9 22.7l-.6 4.6-3.2-1.9-3.2-1.9-3.8 3.9-3.8 3.8 4.4 2.2c2.4 1.1 10.2 7.7 17.5 14.5 7.2 6.9 14.5 13.2 16.2 14 6.9 3.6 14.5 1.3 22.7-6.9 7.5-7.4 10.7-14.3 10.2-21.6-.2-3.1-1.2-6.8-2.1-8.3-1.9-2.8-2.8-2.7-7.4 1.2-2.1 1.9-2.1 2-.5 6.6 1.7 4.7 1.7 4.8-.9 9.4-3.1 5.6-9.6 10.5-13.9 10.5-3.4 0-8.3-3.1-8.8-5.5-.2-.9 2.2-5.1 5.2-9.4 10.3-14.7 11.1-16.3 11.1-23 0-5.1-.4-6.6-2.8-9.7-1.5-2-4.1-4.4-5.7-5.2-3.6-1.9-10.5-1.9-14.7 0zm9 9.7c6.6 3.5 6.3 7.9-1.7 20-3.5 5.4-6.6 10.3-6.8 11-1.2 3.5-9.8-8.7-9.8-13.9 0-6.4 3.7-12.9 9.5-16.4 3.5-2.2 5.8-2.4 8.8-.7zM1579.4 1594.3l-3.8 3.5 11.9 13.8c16.2 18.8 17.9 22.5 13.4 30.3-2.9 5.2-6.6 7.6-11.6 7.6-5.1 0-5.5-.4-22-19.3-6.8-7.8-12.8-14.2-13.2-14.2-.4 0-2.1 1.5-3.9 3.3l-3.1 3.2 13.9 16.2c7.6 8.8 15.1 17 16.6 18.2 11.1 8.7 28.9-.3 31.9-16.3l.7-3.7 2.4 2.2 2.3 2.2 3.6-2.8 3.7-2.7-2.5-2.7c-1.3-1.4-9.7-11.2-18.7-21.6-9-10.5-16.6-19.4-17.1-19.9-.4-.4-2.4.8-4.5 2.7zM352 1615.2c-9.1 10.5-17.7 20.5-19.2 22.3l-2.7 3.2 11.5 9.9c13.7 11.8 18 14.4 24.4 14.4 8 0 15.1-6.5 16.5-15.1.6-3.2.2-5-1.7-9l-2.5-4.9h4.6c2.5 0 9.3-1.2 15-2.7l10.4-2.7-4.5-4.2-4.4-4.2-12.7 3.1c-14 3.3-15.1 3.2-21.6-2.2l-3.5-2.8 2.5-3c1.3-1.7 4.6-5.6 7.3-8.7l4.9-5.7-2.4-2.5c-4.7-5.1-4.3-5.4-21.9 14.8zm11.5 18c10 9.3 11.5 13.3 6.9 18.7-3.4 4.1-8.2 4.2-13.3.4-5.8-4.4-13.1-10.7-13.1-11.5 0-1 11.3-13.8 12.2-13.8.4 0 3.7 2.8 7.3 6.2zM1528.8 1637.6c-6.4 2-14.8 10.2-17.3 16.9-2.4 6.6-3.1 7.2-5.5 5-1.8-1.6-2.3-1.7-4.5-.5-3.1 1.7-7.2 6-5.7 6 2.2 0 9.3 7.3 19.8 20.6 12.8 16 16.2 18.4 24.5 16.4 2.9-.7 7.4-3 10.8-5.5 11.9-8.8 16.4-18.6 13-28.4-1.3-3.7-1.7-3.7-6.2-1.1-3.5 2.1-3.5 2.1-3 7.8.6 6.7-1.1 9.6-8.6 14.3-6 3.8-10.3 3.8-14.2 0-1.6-1.6-2.9-3.4-2.9-3.9 0-.6 4.1-5.4 9-10.8 9.6-10.5 13-16.1 13-21.2 0-11.4-10.9-19.1-22.2-15.6zm8.2 10.4c2.6 1.4 4.2 6.5 2.9 9.8-.6 1.5-3.6 5.6-6.8 9.2-3.1 3.6-6.6 7.7-7.8 9.2l-2.1 2.8-2.5-3.8c-5.5-7.9-5.7-13.4-1.1-20.5 4.3-6.5 12.1-9.5 17.4-6.7zM397.6 1659.5c-9.7 12.4-17.6 22.9-17.6 23.4s1.7 2.3 3.8 4l3.9 3 18.9-7c10.4-3.8 21.3-7.8 24.2-8.9 2.8-1.1 5.2-1.8 5.2-1.6 0 .3-5.8 7.9-13 17-7.1 9.1-13 16.9-13 17.4 0 .4 1.8 1.9 3.9 3.4l3.8 2.7 18.1-23.2 18.2-23.2-2.3-1.8c-6.7-5.4-4.4-5.7-30.2 3.8-13 4.8-23.8 8.5-24 8.3-.1-.1 5.5-7.7 12.6-16.7s12.9-16.7 12.9-17.1c0-.8-6.4-6-7.3-6-.3 0-8.4 10.1-18.1 22.5zM1463 1658.9c-7.7 2.5-16.8 9.9-20.1 16.3-3.1 6-2.6 13.4 1.4 21 3 5.7 29.8 48.1 31.7 50.2.7.7 3.7-.9 7.9-4 .2-.2-.3-1.4-1.2-2.7l-1.6-2.4h6.2c6.6 0 10.2-1.3 15.6-5.9 8.3-7 10.1-19.5 4.4-31.6-3.5-7.5-10-14.5-16.5-17.9-6.5-3.5-15.8-3.3-22.1.4-5.1 3-10.7 9.8-10.7 12.9 0 3.1-1.6 2-4.3-3.1-3.8-6.9-3.7-12.9.3-17.5 6.1-6.9 15.2-9.3 19.9-5.2 1.4 1.1 2.3 1 5.9-.6 4.1-1.8 4.3-2.1 2.9-4.1-3.6-5.4-12.7-8.1-19.7-5.8zm22.9 31.5c3.6 1.9 9.5 8.5 12 13.5 7.4 14.4-1 27.8-15.6 24.9-11.8-2.4-22.2-23.2-16.4-32.6 4.2-6.5 13.3-9.2 20-5.8zM464.1 1680c-4.2 1-7.9 3.7-11 8.1-2 3-2.2 4.2-1.8 10.1.6 6.8.6 6.8-2 6.8-3.6 0-9.8 6.5-10.7 11.2-1.5 8.4 3.4 16.6 12.6 21.2 7.8 3.9 15.8 3.3 22.3-1.7 2-1.5 1.9-1.6-1.4-5.1l-3.4-3.5-3.6 2c-4.3 2.3-6.1 2.4-10.7.4-6.5-2.7-7.8-11-2.2-14.9 3-2.1 6.6-2 10.6.4 4.2 2.6 4.4 2.6 6.6-1.1 1.7-3 1.8-3.2.2-4.1-1-.5-3.3-2.3-5.2-4-2.9-2.5-3.4-3.7-3.4-7.2.1-4.4 1.3-6.6 4.7-8.4 3.2-1.8 7.4-1.4 11 .8 4.9 2.9 6.7 6.5 6.7 12.6-.1 4.8.1 5.4 2.5 6.2 1.4.6 3.3 1.3 4.2 1.7 1.9.7 3.9-3.8 3.9-8.9-.1-12.2-17.5-25.3-29.9-22.6zM504.7 1705.7c-.4 2.1-3.4 8.7-6.9 14.8-3.4 6-7.9 14.1-10 18-5.8 10.8-5.1 16.4 3.3 23.9 9.3 8.5 24.9 12.2 32.2 7.7 1.8-1.1 4.1-2.9 5-3.9 1.7-1.8 1.6-2-2.2-4.7l-4-2.7-3.1 2.2c-4.3 3.1-9.7 2.9-15.4-.4-8.2-4.8-10.4-10.1-7-16.7 1.7-3.5 1-3.6 16.4 2.4 13.2 5.1 18.3 5.7 24.4 2.7 11.9-5.7 12.5-21.2 1-29.1-6.1-4.2-11.6-5.9-18.9-5.9h-6.2l.1-3.6c.1-3.1-.4-3.8-4-6l-4.1-2.4-.6 3.7zm22.9 17.2c7.7 3.5 10.5 10.2 6.4 15.4-3.2 4.1-5.9 4.1-18.5-.2-6.4-2.1-11.9-4.1-12.2-4.5-1-1 4.7-8.6 8-10.6 4.1-2.5 10.9-2.5 16.3-.1zM1427.3 1708.1c-1.8 1.2-3.3 2.3-3.3 2.6 0 .4 4 7.6 9 16.2 10.7 18.8 12.2 23.1 9.4 28.6-2.2 4.5-5.6 7.2-10.1 8.1-4.8.9-8.9-3.7-19.9-23.1-5.4-9.4-9.9-17.1-10-17.3-.5-.7-8.4 3.9-8.4 4.9 0 .6 4.2 8.5 9.4 17.5 5.1 9 9.7 17.9 10 19.9 1.3 7-5.6 15.5-12.6 15.5-4.6 0-8.3-4.6-19.2-23.7l-9.8-17.3-4.2 2.5c-2.2 1.4-4 3.1-3.8 3.8.6 2 19.2 33.9 21.9 37.5 4.2 5.6 8 7.4 14.5 6.9 9.3-.5 16.2-6.4 18.8-15.9l1-3.7 3.5 1.5c4.9 2 8.4 1.8 14.3-1.2 5.8-2.9 9.3-6.9 11.2-12.7l1.2-3.9 1.9 3.1 1.9 3.2 3.9-2.3c2.2-1.2 3.8-2.5 3.7-2.8-4.6-8.9-29.1-50-30-50-.6 0-2.6 1-4.3 2.1zM601.1 1744l-6.3 12.1-2.1-4.3c-3.4-6.6-9.3-10.2-17.8-10.6-5.9-.4-7.7-.1-12.3 2.2-10.9 5.3-18.8 18.2-19.4 31.7-.3 6.1 0 8.3 1.6 11.5 5.4 10.4 17.3 16 26.7 12.4 2.4-.9 2.6-.8 2 .7-1.8 4.4-1.7 5.2 1.4 6.7 1.6.9 3.4 1.6 4 1.6.5 0 6.7-11.1 13.7-24.8 6.9-13.6 15.3-29.8 18.5-36l5.8-11.2-3.9-2c-2.2-1.1-4.3-2-4.8-2s-3.7 5.4-7.1 12zm-17.7 9c6.3 5.6 7 13.3 1.9 23.5-5.5 10.9-11.3 15.5-19.6 15.5-14.1 0-17-18.2-5.3-34.1 4-5.5 8.5-7.8 14.8-7.9 3.9 0 5.4.6 8.2 3zM650.7 1751c-1.6.5-4.4 2-6.3 3.5-5.1 3.9-53.5 57.8-52.6 58.6.4.4 2.4 1.4 4.4 2.2l3.8 1.6 13.9-15.7c7.6-8.6 15.1-17.1 16.5-18.7 2.6-3 2.6-3 2.1-.5-.2 1.4-.6 12.6-.7 24.9l-.3 22.3 4.6 1.8 4.6 1.8.6-21.6c.4-11.9.7-26.2.7-31.7v-10.1l4.3-4.1c5.5-5.3 7.6-5.9 13.2-3.4l4.5 2 1-4.1c1.4-4.9 0-6.9-5.9-8.6-4.3-1.3-4.5-1.4-8.4-.2zM1329.3 1757.8c-8.7 3.1-15.7 9.6-18.2 17.1-1.3 3.9-1.5 12.1-.3 12.1.5 0 2.9-.7 5.5-1.6 4.5-1.5 4.7-1.8 4.7-5.3 0-5.3 3-10.2 8-12.8 5.1-2.7 8.7-2.9 13.7-.8 4.5 1.9 7 4 9.4 7.9l1.8 3-19.7 8.8c-10.8 4.9-19.8 9.1-20 9.3-.8.8 4.2 9 8 13 5.5 6.1 10.9 8.5 18.9 8.5 8.1 0 14.9-3 20.5-9.2 5.3-5.8 6.8-10.2 6.2-19.2-.8-12-7.5-24-16.4-29.2-6-3.5-14.9-4.2-22.1-1.6zm28.7 34.5c0 2.6-.7 6.1-1.5 7.7-3.2 6.2-11.5 9.9-18.2 8.1-3.7-1-10.3-6.6-10.3-8.6 0-1.7 28.3-14.4 29.2-13.1.4.6.8 3.3.8 5.9zM1289 1775.8c-.8.2-2.9 1-4.7 1.8l-3.2 1.3 6 17.3c7 20.4 7.5 25.7 3.2 30.9-6.2 7.4-16.5 7.8-20.6.9-1-1.6-4.4-10.9-7.8-20.7-3.3-9.8-6.4-18.2-6.9-18.6-1-1.2-9 1.3-9 2.8 0 2.9 13.4 40.4 15.6 43.8 2.7 4.1 9 7.6 13.5 7.7 8.3 0 19.2-6.4 22-13.2l1.3-3.1 1.2 3.4c1.2 3.6 2.5 3.9 7.7 2l2.6-1-9.5-27.8c-5.2-15.2-9.6-27.8-9.7-27.9-.1-.1-.9.1-1.7.4zM668.6 1785.7c-.9 2.6-1.5 4.7-1.3 4.8.1.1 10.6 3.7 23.2 8 12.7 4.3 23.1 7.9 23.2 8 .3.2-7.8 24.8-8.3 25.4-.1.2-9.8-2.9-21.4-6.7l-21.1-7.1-.9 2.5c-2.8 7.2-4.1 6.2 18.7 13.8 11.4 3.8 21 7 21.2 7.2.2.2-6.7 22.3-7.4 23.1-.1.2-10.2-3.1-22.5-7.2s-22.7-7.2-23.1-6.7c-1.3 1.4-2.9 7.6-2.2 8.3.5.3 13 4.7 28 9.7l27.1 9 12.5-37.2c6.9-20.4 12.7-37.7 12.9-38.5.2-.9-8-4.2-28.4-11.2l-28.6-9.8-1.6 4.6zM1213.6 1799.6c-2.2.8-4.1 1.6-4.3 1.7-.1.2.5 2.2 1.4 4.6 1.2 3.1 2 4 3.2 3.6 4.1-1.6 6.8-1.6 8-.1.8.9 3.7 9.9 6.6 20.1l5.2 18.4-4.9 1.1c-4 1-4.8 1.5-4.3 3.1.3 1 .8 2.8 1.1 4 .4 1.6 1.1 1.9 2.7 1.5 7.7-2.2 7.4-2.4 9.6 5 1.1 3.8 2.3 8.2 2.7 9.7l.7 2.9 4.2-4.2 4.3-4.2-1.9-6.7c-1-3.6-1.9-6.9-1.9-7.2 0-.4 1.6-1 3.6-1.3 2.7-.6 3.4-1.1 3-2.3-.3-.8-.9-2.6-1.2-3.9-.5-1.8-1.1-2.3-2.5-1.9-1.1.3-2.7.7-3.7 1-1.5.4-2.2-1.1-4.6-10.3-5.9-22-9.5-32-12.3-34.1-3-2.5-8.9-2.7-14.7-.5zM1077.7 1872c-10.2 2.6-20.1 11.6-22.2 20.2-.6 2.4-.3 2.7 3.2 3.7 5.9 1.7 6.6 1.4 9.2-4 3.2-7 8.1-10 16.9-10.6 8.7-.7 14.3.9 19.4 5.5 4.5 4 7.2 9.3 8.3 15.9l.7 4.3H1082.9l.3 4.7.3 4.8 14.9.3 14.9.3-.7 4.5c-1.3 10.1-7.3 18.7-15.2 22-4.4 1.9-14.6 1.8-19.2-.2-2-.8-5-2.7-6.5-4.2-3.1-2.9-6.7-9.2-6.7-11.6 0-2.3-1.1-2.5-6.3-1.3-5.7 1.3-5.8 2.1-1.6 10.5 6.8 13.7 21.2 20.2 37.9 17.2 16.5-3 26.5-14.3 29.2-32.9 2.9-21.1-5.6-39.3-21.8-46.8-6.2-2.8-18.2-3.9-24.7-2.3zM767.7 1872.7c-.4.3-.7 18.6-.7 40.5v39.8h61v-9l-24.7-.2-24.8-.3v-27l22.3-.3 22.2-.2v-9h-45v-25h48.1l-.3-4.8-.3-4.7-28.6-.3c-15.7-.1-28.8.1-29.2.5zM842.7 1872.7c-.4.3-.7 18.6-.7 40.5v39.8h11.5l21-31.3 21-31.2.3 31.2.2 31.3h10l-.2-40.3-.3-40.2-5.1-.3-5.1-.3-21.4 31.8-21.4 31.8-.3-31.8-.2-31.7h-4.3c-2.4 0-4.7.3-5 .7zM1007.3 1873.2c-.6.7-7.2 17.5-14.8 37.3-7.5 19.8-14.3 37.5-15.1 39.2l-1.3 3.3h11.7l4.4-12 4.3-12 17 .2 16.9.3 4.5 11.7 4.4 11.8h6.4c3.5 0 6.2-.3 6-.8-.3-.4-6.4-15.3-13.7-33.2-7.2-17.9-14.5-35.8-16.2-39.8l-3-7.2h-5.3c-3 0-5.7.5-6.2 1.2zm12.7 28.8l6.7 18h-13.3c-7.4 0-13.4-.2-13.4-.3 0-.2 2.2-6.3 4.9-13.6 2.7-7.2 5.5-15.4 6.2-18.1.7-2.7 1.5-4.8 1.7-4.5.3.3 3.5 8.6 7.2 18.5zM1131 1873c0 .6 7.2 14.1 16 30.1l16 28.9-2.4 4.8c-3.4 6.7-5.8 8.5-11 8.5-2.4-.1-5.3-.6-6.5-1.2-2-1.1-2.1-.9-2.1 3.7 0 5.7.7 6.2 9.8 6.2 6.9 0 10.2-1.8 14.1-7.8 2.9-4.6 35-70.4 35.4-72.7.1-.5-1.9-1.1-4.5-1.3-3.7-.2-5 .1-5.8 1.5-.6 1-5.8 11.9-11.5 24.3-5.8 12.4-10.8 22.4-11.2 22.2-.5-.2-6.5-11-13.5-24l-12.6-23.7-5.1-.3c-3.2-.2-5.1.1-5.1.8zM922 1924v29h10v-26h27v26h10v-58h-10v24h-27v-24h-10v29z"/></svg>